<svg xmlns="http://www.w3.org/2000/svg" width="16" height="15.031" viewBox="0 0 16 15.031">
  <metadata><?xpacket begin="﻿" id="W5M0MpCehiHzreSzNTczkc9d"?>
<x:xmpmeta xmlns:x="adobe:ns:meta/" x:xmptk="Adobe XMP Core 5.6-c142 79.160924, 2017/07/13-01:06:39        ">
   <rdf:RDF xmlns:rdf="http://www.w3.org/1999/02/22-rdf-syntax-ns#">
      <rdf:Description rdf:about=""/>
   </rdf:RDF>
</x:xmpmeta>
                                                                                                    
                                                                                                    
                                                                                                    
                                                                                                    
                                                                                                    
                                                                                                    
                                                                                                    
                                                                                                    
                                                                                                    
                                                                                                    
                                                                                                    
                                                                                                    
                                                                                                    
                                                                                                    
                                                                                                    
                                                                                                    
                                                                                                    
                                                                                                    
                                                                                                    
                                                                                                    
                           
<?xpacket end="w"?></metadata>
<defs>
    <style>
      .cls-1 {
        fill: #57c5a0;
        fill-rule: evenodd;
      }
    </style>
  </defs>
  <path id="Cart_Icon" data-name="Cart Icon" class="cls-1" d="M885.5,456.191a1.4,1.4,0,1,1-1.391,1.4A1.395,1.395,0,0,1,885.5,456.191Zm5-.031a1.428,1.428,0,1,1-1.422,1.428A1.425,1.425,0,0,1,890.5,456.16Zm2.8-9.07a1,1,0,0,0-1.252.658s-1,2.5-1.5,4.3a1.315,1.315,0,0,1-1.477,1.026h-2.125a1.469,1.469,0,0,1-1.477-1.035c-0.916-1.794-2.44-5.041-2.44-5.041a1.631,1.631,0,0,0-1.363-.953H879a1,1,0,0,0,0,2.008h2.248l2.8,5.543a2.34,2.34,0,0,0,2.081,1.487h3.843a1.95,1.95,0,0,0,2.175-1.487l1.808-5.245a1,1,0,0,0-.657-1.258h0Zm-6.3-.037v-2.036a1,1,0,1,1,2,0v2.036h2.536L888,450.6l-3.535-3.55H887Z" transform="translate(-878 -444)"/>
</svg>
