<?xml version="1.0" standalone="no"?>
<!DOCTYPE svg PUBLIC "-//W3C//DTD SVG 20010904//EN"
 "http://www.w3.org/TR/2001/REC-SVG-20010904/DTD/svg10.dtd">
<svg version="1.0" xmlns="http://www.w3.org/2000/svg"
 width="325.000000pt" height="325.000000pt" viewBox="0 0 325.000000 325.000000"
 preserveAspectRatio="xMidYMid meet">
<metadata>
Created by potrace 1.11, written by Peter Selinger 2001-2013
</metadata>
<g transform="translate(0.000000,325.000000) scale(0.100000,-0.100000)"
fill="#000000" stroke="none">
<path d="M620 1625 l0 -1625 235 0 235 0 0 734 0 733 678 1 c372 0 691 1 709
1 l32 1 0 174 0 174 -697 1 c-383 0 -703 0 -710 0 -10 1 -12 112 -10 539 l3
537 760 0 760 0 3 178 2 177 -1000 0 -1000 0 0 -1625z"/>
</g>
</svg>
