<svg xmlns="http://www.w3.org/2000/svg"><defs><font id="alleritalic" horiz-adv-x="1228"><font-face units-per-em="2048" ascent="1638" descent="-410"/><glyph unicode="ﬁ" horiz-adv-x="1179" d="M-193-473q8 47 20.5 85t33.5 75q20-8 45.5-13.5T-41-332q55 0 93 13.5t65.5 51.5 49 108.5T209 27l153 862H193q0 41 5 79t21 83h170l10 59q41 205 148.5 308.5T842 1522q47 0 94-6.5t89-16.5 75-21.5 51-19.5q-10-49-24.5-87t-36.5-75q-43 20-112 39t-134 19q-96 0-153.5-52.5T600 1106l-12-55h606L1010 0q-25-4-53.5-5T905-6t-48.5 1T809 0l158 889H561L408 12q-25-141-60-239.5T261-386t-125-87-171-27q-45 0-86 7.5t-72 19.5z"/><glyph unicode="ﬂ" horiz-adv-x="1263" d="M-193-473q8 47 20.5 85t33.5 75q20-8 45.5-13.5T-41-332q49 0 86 12.5t66.5 49.5 52 102.5T205 6l157 883H193q0 41 5 79t21 83h170l23 104q80 367 430 367 51 0 108.5-7.5T1061 1497t100-23.5 82-25.5q6-41 6-76 0-47-11-121.5t-24-142.5l-147-809q-6-35-6-55 0-33 9-52.5t23.5-28.5 32-11 33.5-2q18 0 42 4t40 8q18-53 19-127 0-8-1.5-15.5T1257 6q-31-10-74.5-15t-86.5-5q-53 0-97.5 10t-76 36.5-49 70.5T856 213q0 39 8 82t17 84l118 647q16 92 26.5 164t16.5 131q-41 14-94 23.5t-104 9.5q-49 0-87-11.5t-68-40-51.5-75.5-37.5-121l-12-55h252q0-43-5.5-80T813 889H561L403-6q-25-137-60.5-231.5t-88.5-153-124-84T-35-500q-45 0-86 7.5t-72 19.5z"/><glyph unicode="ﬃ" horiz-adv-x="1792" d="M-193-473q8 47 20.5 85t33.5 75q20-8 45.5-13.5T-41-332q45 0 82 11.5t65.5 42 51 87T197-45l165 934H193q0 41 5 79t21 83h170l10 59q41 205 139.5 308.5T815 1522q51 0 93-8.5t71-20.5q-12-51-24.5-87t-32.5-75q-20 8-46 15.5t-61 7.5q-43 0-76.5-11.5t-58.5-39-44.5-75.5-35.5-122l-12-55h411l13 59q41 205 147.5 308.5T1454 1522q45 0 92-6.5t89-16.5 75-21.5 51-19.5q-8-49-23.5-87t-37.5-75q-41 20-109.5 39t-136.5 19q-96 0-156.5-52.5T1210 1106l-10-55h604L1620 0q-23-4-52.5-5T1516-6q-23 0-47.5 1T1421 0l156 889h-403L1018 12q-25-141-60.5-238.5t-88-158.5-124-88T575-500q-90 0-159 27 10 47 21.5 85t31.5 75q23-8 48.5-13.5T567-332q45 0 83 11.5t66.5 42 51.5 87T807-45l166 934H561L379-127q-18-102-55-174t-89.5-116-120-63.5T-35-500q-45 0-86 7.5t-72 19.5z"/><glyph unicode="ﬄ" horiz-adv-x="1886" d="M-193-473q8 47 20.5 85t33.5 75q20-8 45.5-13.5T-41-332q45 0 82 11.5t65.5 42 51 87T197-45l165 934H193q0 41 5 79t21 83h170l23 110q74 360 403 361 51 0 93-8.5t71-20.5q-12-51-24.5-87t-32.5-75q-20 8-46 15.5t-61 7.5q-43 0-76.5-11.5t-60.5-39-46.5-75.5-31.5-122q-4-14-6-27.5t-6-27.5h422l12 59q2 14 5 26.5t7 24.5q86 360 430 361 51 0 107.5-7.5t110-17.5 101.5-23.5 83-25.5q4-20 4-37.5V1372q0-47-10.5-121.5T1837 1108l-151-809q-6-35-7-55 0-33 9.5-52.5T1712 163t31.5-11 34.5-2q18 0 41.5 4t40.5 8q18-53 18-127 0-8-1-15.5T1876 6q-31-10-75-15t-87-5q-131 0-182 60t-51 169q0 74 18 164 14 98 40 226t52.5 259 47 252 24.5 205q-41 14-93 23.5t-106 9.5q-49 0-88-11.5t-68.5-39-51-75.5-35.5-122l-11-55h250q0-43-5-80t-21-82h-252L1026 0q-25-139-59.5-235.5t-86-155-124-84T586-500q-90 0-160 27 10 47 21.5 85t31.5 75q20-8 47-13.5t52-5.5q45 0 82.5 11.5t66.5 42 51.5 87T817-45l166 934H561L381-119q-18-106-55-179t-89.5-118-121-64.5T-35-500q-45 0-86 7.5t-72 19.5z"/><glyph horiz-adv-x="0"/><glyph horiz-adv-x="972"/><glyph horiz-adv-x="460"/><glyph horiz-adv-x="460"/><glyph horiz-adv-x="460"/><glyph unicode="!" horiz-adv-x="567" d="M172 0q0 117 39 227 29 4 55.5 6.5T322 236q27 0 54-2.5t52-6.5q0-59-10-113.5T391 0q-29-4-56.5-6T281-8q-29 0-56.5 2T172 0zm92 440l172 1033q55 6 107 6 53 0 112-6L459 440q-53-6-99-6-51 0-96 6z"/><glyph unicode="&quot;" horiz-adv-x="796" d="M250 909l98 561q23 4 49.5 6.5t51.5 2.5q55 0 94-9l-97-561q-49-6-98-6-55 0-98 6zm389 0l98 561q23 4 49.5 6.5t51.5 2.5q55 0 94-9l-97-561q-49-6-98-6-55 0-98 6z"/><glyph unicode="#" horiz-adv-x="1462" d="M178 428l6 55q4 27 10.5 52.5T207 590h258l88 338H307q4 37 9.5 81t19.5 78h260l84 326q29 4 50.5 5t47.5 1h42l44-4-84-328h332l84 326q29 4 51.5 5t44.5 1h44.5l45.5-4-84-328h232q-6-41-11.5-78.5T1501 928h-244l-88-338h230q0-76-27-162h-244l-94-369q-29-4-51-5t-47-1q-20 0-43 1t-43 5l94 369H612L518 59q-29-4-50.5-5T420 53q-45 0-90 6 25 92 48 184.5T424 428H178zm475 162h332l86 338H739z"/><glyph unicode="$" d="M150 43q8 45 21 91t36 93q74-31 147.5-49T526 160q162 0 255 71.5T874 426q0 90-57 148.5T643 694q-66 35-121 71t-94 79-60.5 95-21.5 124q0 170 112.5 278.5T776 1470l31 183q33 8 72 8 16 0 35.5-2t35.5-6l-30-176q86-4 153.5-21.5T1202 1415q-6-43-20.5-88t-40.5-86q-53 27-124 45.5T854 1305q-59 0-112.5-11.5t-92.5-37-61.5-64.5-22.5-94q0-78 56.5-132.5T788 852q76-41 135.5-80t99.5-84 60.5-98 20.5-125q0-90-30-169t-87-141.5T847 50 657-10l-39-232q-33-8-71-8-41 0-72 8l37 217h-8q-98 0-194.5 19.5T150 43z"/><glyph unicode="%" horiz-adv-x="2019" d="M234 944q0 96 26.5 190.5t80.5 170 136 122 193 46.5q80 0 139-26t97-71 56.5-108.5T981 1130q0-102-28.5-196t-84-168T731 648t-188-44q-160 0-234.5 96.5T234 944zm190 6q0-198 137-198 61 0 104.5 35.5t71 91 41 120T791 1120q0 203-142 203-61 0-103-37t-69.5-92-40-120.5T424 950zM448 2l1133 1448q25 4 55.5 6t57.5 2 55.5-2 50.5-6L666 2q-29-4-53.5-6T563-6q-27 0-58.5 2T448 2zm818 315q0 96 26.5 190.5t80.5 170 136 122 193 46.5q80 0 139-26t97-71 56.5-108.5T2013 503q0-102-28.5-196t-84-168T1763 21t-188-44q-160 0-234.5 96.5T1266 317zm190 6q0-198 137-198 61 0 104.5 35.5t71 91 41 120T1823 493q0 203-142 203-61 0-103-37t-69.5-92-40-120.5T1456 323z"/><glyph unicode="&amp;" horiz-adv-x="1478" d="M186 377q0 86 26 160.5t71 136T388.5 780 520 850q-23 12-50.5 32.5t-50 51.5-37.5 73-15 95q0 98 41 172t106.5 123 148 73.5T831 1495q70 0 135.5-9t123.5-32q-6-45-17.5-82t-34.5-74q-51 16-100 25.5t-109 9.5q-111 0-182.5-57T575 1114q0-92 60.5-132T778 942h408q10 53 18 108.5t8 114.5v33q41 20 98.5 30.5t98.5 10.5q2-18 3-36.5t1-39.5q0-63-16-157l-13-64h209q-4-45-11-84t-19-82h-207l-47-264q-51-283-209-410T670-25Q564-25 475.5-1t-153 73T222 196.5 186 377zm228 24q0-113 68.5-179T698 156q111 0 183.5 29.5t121 83 74 126T1116 551l39 225H807q-184 0-288.5-102.5T414 401z"/><glyph unicode="'" horiz-adv-x="407" d="M250 909l98 561q23 4 49.5 6.5t51.5 2.5q55 0 94-9l-97-561q-49-6-98-6-55 0-98 6z"/><glyph unicode="(" horiz-adv-x="677" d="M250 262q0 127 18.5 260t50 263 74.5 253 92.5 227.5T587 1453t103 134q16 4 40 6t56 2q29 0 56.5-2t50.5-6q-66-92-142.5-225t-142-302T500 690t-43-428q0-115 10-211t25.5-173 32-132 28.5-86q-27-4-54.5-6t-56.5-2q-27 0-50.5 2t-39.5 6q-41 96-71.5 253T250 262z"/><glyph unicode=")" horiz-adv-x="692" d="M-16-340q66 92 141.5 224t141 300T375 554t43 429q0 115-10.5 212T382 1369t-31.5 132-28.5 86q27 4 54 6t56 2q27 0 49.5-2t38.5-6q41-96 73-253.5T625 983q0-190-40-392T481.5 208 339-117.5 184-340q-23-4-45-6t-51-2-56.5 2-47.5 6z"/><glyph unicode="*" horiz-adv-x="974" d="M260 1126q20 61 64 121l243-67q-14-41-32.5-79t-40.5-73zm59-364l183 223q29-16 58.5-39.5T614 893L408 686q-27 16-49.5 33.5T319 762zm295 444l64 267q31 6 63 6 29 0 64-6l-31-267q-23-4-42-5t-40-1q-20 0-39.5 1t-38.5 5zm48-313q72 57 145 92l104-223q-27-25-55.5-42.5T795 686zm149 270v17l268 67q18-49 19-104v-17l-267-98q-10 31-15 65.5t-5 69.5z"/><glyph unicode="+" d="M285 629q0 41 6 87t22 93h340l66 373q23 4 46 6t48 2q23 0 47.5-2t46.5-6l-65-373h336q0-45-6.5-88t-22.5-92H809l-66-373q-41-8-94-8-25 0-48 2t-46 6l66 373H285z"/><glyph unicode="," horiz-adv-x="483" d="M23-229l194 452q25 6 50.5 8t49.5 2q27 0 53.5-2t49.5-8L219-229q-27-4-52.5-6.5T119-238q-55 0-96 9z"/><glyph unicode="-" horiz-adv-x="712" d="M199 496q4 96 32 188h517q0-43-9.5-94T715 496H199z"/><glyph unicode="." horiz-adv-x="481" d="M125 0q0 57 11 113.5T164 227q29 4 57.5 6.5T279 236t57.5-2.5T391 227q0-59-10-113.5T354 0q-33-4-60.5-6T238-8q-29 0-56.5 2T125 0z"/><glyph unicode="/" horiz-adv-x="761" d="M47 0l731 1473q47 8 101 8 25 0 52-2t52-6L250 0q-27-4-55.5-6T141-8q-23 0-47 2T47 0z"/><glyph unicode="0" d="M190 449q0 166 42 325.5T356 1060t203 203.5 279 77.5q121 0 202.5-40.5t131-108.5 71-153 21.5-173q0-166-42-325.5T1098 255 895 52 616-25q-121 0-202.5 41t-131 107.5-71 151.5T190 449zm213-7q0-55 11.5-107t38-92 70.5-64.5T635 154q96 0 173 61t131 161.5 83 230.5 29 265q0 57-11.5 109.5t-38 92.5-70.5 63.5-112 23.5q-98 0-175-60.5T514 940t-82-230-29-268z"/><glyph unicode="1" d="M250 0q0 43 8 90t21 84h315l149 862-286-129q-25 41-40.5 81t-19.5 83l568 260h39L799 174h297q0-41-8.5-87T1067 0H250z"/><glyph unicode="2" d="M115 25l454 450q74 74 136.5 138.5t106.5 127 69.5 125T907 993q0 76-51 122t-162 46q-88 0-158.5-24.5T397 1083q-39 76-43 172 78 31 171 58.5t210 27.5q186 0 292-85t106-238q0-86-30-164t-81-152.5T902.5 554 754 406L518 178h539q0-45-9.5-92T1026 0H123q-4 16-8 25z"/><glyph unicode="3" d="M109-78q10 41 27.5 84T176 90q59-29 142-46t163-17q82 0 153 22.5T757 117t82.5 110.5T870 379q0 63-21.5 105t-56 68-81.5 36-99 10q-41 0-84-3t-86-13l-14 30 440 527H350q0 45 9.5 93t21.5 89h817l10-25-467-555q176-10 261-107t85-243q0-127-47-227.5T910-6.5 715.5-113 477-150q-92 0-191.5 17.5T109-78z"/><glyph unicode="4" d="M117 182l762 1178q47-6 92-26.5t76-49.5L438 340h393l72 405q23 4 51.5 6.5t53.5 2.5q23 0 50-2t48-7l-72-405h178q0-45-8-93t-22-87h-178l-52-281q-23-4-51.5-5t-50.5-1q-25 0-52.5 1t-47.5 5l51 281H127z"/><glyph unicode="5" d="M133-86q10 43 26.5 89T199 88q59-23 121.5-41T475 29q80 0 151.5 22.5t126 68.5 86 115.5T870 397q0 102-62.5 158.5T616 612q-78 0-135-10t-104-29l-21 23 156 725h672q0-45-9.5-93t-21.5-89H668l-78-371q39 8 71.5 10t55.5 2q92 0 161.5-27.5T996 678t73-111.5 25-140.5q0-139-51.5-245.5T904 0 702.5-112 461-150q-98 0-180 17.5T133-86z"/><glyph unicode="6" d="M219 422q0 186 61.5 368.5t181.5 331T758 1369t407 122q12-47 13-96 0-16-1-31.5t-6-44.5q-121-10-226-48t-191-102.5T604.5 1013 504 805q53 63 138 107t204 44q76 0 140.5-23.5T1098 863t73.5-114.5T1198 588q0-139-46-253t-124-194T847.5 18 633-25Q524-25 445.5 9t-129 93.5-74 141.5T219 422zm215-35q0-98 52-167.5T653 150q80 0 142.5 35.5t105.5 94 64.5 132T987 559q0 115-57.5 170T764 784q-63 0-122.5-27.5t-106-79.5-74-125T434 387z"/><glyph unicode="7" d="M281-63l708 1202H338q0 43 8 95t23 87h936l8-16L463-154q-63 16-104.5 36T281-63z"/><glyph unicode="8" d="M188 315q0 82 30 153t80 129 117.5 104T559 782q-31 18-61.5 43t-56 61-42 81-16.5 104q0 84 38 156.5t103.5 127T678 1441t186 32q76 0 144.5-18.5t120-57.5 82-96.5T1241 1165q0-68-23.5-126T1154 932t-93-87-115-67q45-25 86-55.5t73-72.5 50.5-94 18.5-118q0-109-45.5-194.5t-121-145T831.5 7 623-25q-90 0-169 18.5T315.5 52 222 157.5 188 315zm218 31q0-104 64.5-151.5T639 147q74 0 133 21.5T872 228t63.5 90.5T958 430q0 96-67.5 160.5T725 696q-68-23-126-57.5T498 559t-67.5-98T406 346zm180 725q0-47 20.5-83t50-60.5 63-41T780 860q121 43 189.5 111.5T1038 1143q0 86-56 127t-132 41q-63 0-112.5-19.5t-83-52.5-51-76-17.5-92z"/><glyph unicode="9" d="M246 735q0 137 45 248t121.5 189.5 178 121.5 212.5 43q109 0 187.5-33.5t129.5-93 76-140.5 25-177q0-117-23.5-239t-73-237.5-126-218-182-182-243-130T266-174q-12 49-12 108 0 35 6 66 252 31 430 153.5T940 514q-53-66-139-109t-209-43q-74 0-136.5 26T346 462t-73.5 116.5T246 735zm211 23q0-117 57.5-171.5T676 532q63 0 123.5 28T907 638t76 124 29 166q0 49-13.5 91t-41 73.5-68.5 50-98 18.5q-82 0-144.5-33.5t-104.5-91-63.5-130T457 758z"/><glyph unicode=":" horiz-adv-x="481" d="M125 0q0 57 11 113.5T164 227q29 4 57.5 6.5T279 236t57.5-2.5T391 227q0-59-10-113.5T354 0q-33-4-60.5-6T238-8q-29 0-56.5 2T125 0zm133 758q0 57 11 113.5T297 985q29 4 57.5 6.5T412 994t57.5-2.5T524 985q0-59-10-113.5T487 758q-33-4-60.5-6t-55.5-2q-29 0-56.5 2t-56.5 6z"/><glyph unicode=";" horiz-adv-x="483" d="M-16-229l194 452q25 6 50.5 8t49.5 2q27 0 53.5-2t49.5-8L180-229q-27-4-52.5-6.5T80-238q-55 0-96 9zm297 987q0 57 11 113.5T320 985q29 4 57.5 6.5T435 994t57.5-2.5T547 985q0-59-10-113.5T510 758q-33-4-60.5-6t-55.5-2q-29 0-56.5 2t-56.5 6z"/><glyph unicode="&lt;" d="M317 596q0 121 37 217l895 348q0-57-10-115.5t-22-93.5L518 698l608-258q0-53-11-104t-25-86z"/><glyph unicode="=" d="M258 422q0 84 29 180h852q0-45-6.5-89t-22.5-91H258zm68 395q0 41 6 86t24 94h852q0-41-6-86t-24-94H326z"/><glyph unicode="&gt;" d="M254 248q0 20 2 48t7 57.5 11.5 57T287 457l698 258-606 252q0 47 8 96t27 96l774-346q0-47-9.5-107.5T1149 596z"/><glyph unicode="?" horiz-adv-x="954" d="M299 1430q94 35 175 45t161 10q102 0 181-25.5t131-72 79-108.5 27-136q0-90-34-169t-92.5-142.5-134-110.5T635 649l-35-211q-53-6-98-6-25 0-49.5 1t-46.5 5l57 332 76 21q57 16 110 44.5t94 69.5 64.5 93.5T831 1114q0 94-65.5 143.5T590 1307q-78 0-134.5-13.5T334 1257q-14 35-24.5 83.5T299 1430zM311 2q2 59 11.5 116.5T352 229q29 4 57.5 7.5T467 240q27 0 55.5-3.5T580 229q-2-61-11.5-116.5T539 2q-29-4-57.5-6T424-6t-56.5 2T311 2z"/><glyph unicode="@" horiz-adv-x="2023" d="M201 438q0 184 65.5 371.5T467 1150t343 249 495 96q156 0 292-42t236-128 158.5-216 58.5-304q0-127-38-250t-109.5-221-174-158.5T1497 115q-72 0-128 15t-97 48q-59-35-133-55.5T975 102q-141 0-228.5 87T659 428q0 139 47.5 257t127 203 187 133 228.5 48q82 0 157-12.5t146-34.5l-147-731q20-16 50-21.5t58-5.5q86 0 152 50.5t112 129 69.5 174T1870 805q0 260-153.5 395T1284 1335q-213 0-379-74.5T625.5 1061t-173-285T393 446q0-160 46-274.5t126-187T753.5-123 987-158q98 0 187.5 15.5T1335-100q12-29 23.5-65t21.5-79q-72-35-183.5-52T952-313q-156 0-292 45T421.5-130 260 104.5 201 438zm661 29q0-104 46-153.5t139-49.5q47 0 85.5 8.5T1219 303l114 590q-27 6-49 9t-47 3q-82 0-150.5-33.5t-118.5-93T890 639t-28-172z"/><glyph unicode="A" horiz-adv-x="1226" d="M72 0l669 1473q27 4 65 5t66 1q31 0 63-1t56-5L1192 0q-59-6-119-6-49 0-100 6l-39 346H438L289 0q-49-6-111-6-29 0-56.5 1T72 0zm446 526h395l-84 711z"/><glyph unicode="B" horiz-adv-x="1185" d="M190 0l259 1473q51 8 138 15t163 7q104 0 189-17.5t145.5-56.5 94-98 33.5-145q0-76-24.5-141.5t-65.5-116-93-84T922 788q111-18 182.5-100t71.5-209q0-135-52.5-231T981 91.5 771 3 516-25q-78 0-163 7.5T190 0zm236 160q25-4 59.5-6t73.5-2q68 0 138.5 13t129 48 95 96.5T958 467q0 61-20 103t-57 68-88.5 37T680 686H520zm123 698h143q137 0 221 76t84 211q0 102-63.5 144T758 1331q-35 0-70-2t-57-6z"/><glyph unicode="C" horiz-adv-x="1181" d="M231 545q0 184 51.5 356t153 304 251 212 345.5 80q109 0 185.5-15.5T1348 1444q-10-47-23.5-86t-40.5-86q-59 23-116.5 33t-129.5 10q-152 0-262-63.5t-181-169T490.5 842 457 563q0-199 97-301t282-102q78 0 144 14t132 43q39-74 45-174-41-18-88-30.5T973-8t-97.5-12.5T788-25q-268 0-412.5 152T231 545z"/><glyph unicode="D" horiz-adv-x="1400" d="M190 0l259 1473q33 4 73.5 8t83.5 7 84 5 78 2q172 0 297-43t205-122 117.5-189.5T1425 895q0-195-56-361.5T1202.5 242 927 46 545-25q-111 0-202 7.5T190 0zm240 172q27-4 75-7t93-3q141 0 254 53t190.5 147.5T1161 586t41 280q0 217-100.5 332T776 1313q-41 0-76.5-3t-70.5-7z"/><glyph unicode="E" horiz-adv-x="1073" d="M188 0l258 1473h781q0-92-33-185H625l-74-420h455q0-94-33-184H518q-23-127-44-251t-44-251h586q-6-53-10.5-92T983 0H188z"/><glyph unicode="F" horiz-adv-x="1015" d="M188 0l258 1473h744q-6-53-10-95.5t-23-89.5H625l-76-432h446q-4-96-32-184H516L399 0q-53-6-106-6-29 0-55.5 1T188 0z"/><glyph unicode="G" horiz-adv-x="1345" d="M231 545q0 188 50.5 360t152 304 251 210 349.5 78q102 0 181-16.5t133-38.5q-10-47-23.5-86t-40.5-86q-57 23-114.5 33t-133.5 10q-152 0-261-63.5t-180-169T490.5 840 457 561q0-205 98-303t272-98q51 0 101.5 7t87.5 21l102 572q25 4 52.5 6t52.5 2q29 0 54.5-2t49.5-6q-33-180-64.5-357.5T1200 45q-80-33-192.5-51.5T791-25q-133 0-237.5 41T377 132 268 312.5 231 545z"/><glyph unicode="H" horiz-adv-x="1363" d="M190 0l259 1473q25 4 51 6t55 2q25 0 52.5-2t51.5-6L553 866h565l105 607q25 4 51 6t55 2q25 0 53.5-2t51.5-6L1176 0q-25-4-52.5-6T1067-8t-54.5 2T965 0l118 682H520L401 0q-25-4-53.5-6T293-8q-29 0-54.5 2T190 0z"/><glyph unicode="I" horiz-adv-x="589" d="M190 0l259 1473q27 4 53 6t53 2q29 0 54.5-2t49.5-6L401 0q-29-4-54-6t-54-2-54.5 2T190 0z"/><glyph unicode="J" horiz-adv-x="806" d="M63 2q4 47 12.5 92t30.5 86q23-6 59-14t77-8q43 0 80.5 6t68.5 27.5 53.5 62.5T479 362l164 928H397q0 45 7.5 92.5T428 1473h455L696 410q-23-123-57.5-207T551 68.5t-127-72T250-25q-57 0-102.5 7.5T63 2z"/><glyph unicode="K" horiz-adv-x="1193" d="M190 0l259 1473q51 6 106 6 53 0 102-6L399 0q-53-6-106-6-57 0-103 6zm404 748l563 725q31 4 58.5 5t52.5 1q27 0 61.5-1t63.5-5L823 750 1176 0q-66-6-117-6-49 0-111 6z"/><glyph unicode="L" horiz-adv-x="1003" d="M188 0l258 1473q25 4 52.5 6t56.5 2q27 0 51.5-2t48.5-6L430 184h549q-4-53-10-96T944 0H188z"/><glyph unicode="M" horiz-adv-x="1640" d="M164 0l323 1473q27 4 59 6t60 2q29 0 55.5-2t51.5-6l200-912 523 912q23 4 53.5 6t58.5 2q29 0 57.5-2t51.5-6L1468 0q-27-4-52-6t-52-2q-29 0-53.5 2T1266 0l151 1120-471-815q-47-6-84-6-41 0-80 6l-184 819L358 0q-23-4-47-6t-51-2q-25 0-49.5 2T164 0z"/><glyph unicode="N" horiz-adv-x="1370" d="M188 0l258 1473q23 4 50.5 5t50.5 1q51 0 92-6l414-1111 192 1111 40 4 40 2h49l66-6L1182 0q-23-4-48.5-5T1083-6q-23 0-46 1t-46 5L575 1104 385 0q-41-6-80-6h-51z"/><glyph unicode="O" horiz-adv-x="1435" d="M229 516q0 188 49.5 365.5T423 1195t234.5 219 317.5 83q123 0 215-41t151.5-112.5 89-172T1460 952q0-193-50-368.5t-145.5-311T1031 56 715-25q-123 0-214 39T349.5 124 259 295t-30 221zm217 2q0-172 70.5-267T737 156q121 0 214 70.5t158 184 98.5 256T1241 950q0 166-68.5 264.5T950 1313q-123 0-217-69.5T575.5 1061 479 806t-33-288z"/><glyph unicode="P" horiz-adv-x="1159" d="M190 0l259 1475q63 8 145 15t154 7q96 0 186-18.5t159.5-63.5 111.5-120.5 42-190.5q0-139-47-245.5T1071 679 875.5 568 631 530q-82 0-137 7L399 0q-53-6-106-6T190 0zm336 719q29-4 55.5-6t63.5-2q82 0 151.5 21.5t121 65.5 80 114.5T1026 1081q0 137-78 187.5T737 1319q-27 0-53.5-2t-54.5-6z"/><glyph unicode="Q" horiz-adv-x="1435" d="M229 516q0 188 49.5 365.5T423 1195t234.5 219 317.5 83q123 0 215-41t151.5-112.5 89-172T1460 952q0-193-50-368.5t-145.5-311T1031 56 715-25q-123 0-214 39T349.5 124 259 295t-30 221zm217 2q0-172 70.5-267T737 156q121 0 214 70.5t158 184 98.5 256T1241 950q0 166-68.5 264.5T950 1313q-123 0-217-69.5T575.5 1061 479 806t-33-288zm392-741q4 43 17 87t36 85l452-82q-4-47-18-93t-33-81z"/><glyph unicode="R" horiz-adv-x="1177" d="M188 0l261 1475q78 12 149.5 17t140.5 5q92 0 180.5-18.5t157-61.5 109.5-113.5 41-177.5q0-109-35-190.5t-87-142T990.5 692 874 627L1143 0q-61-6-119-6-59 0-111 6L629 686l20 6q12 2 44 14.5t72 35 83 54 79 75.5 58.5 98.5T1008 1092q0 123-70 176t-193 53q-33 0-58-2t-58-6L397 0q-25-2-52.5-4T291-6q-25 0-52.5 1T188 0z"/><glyph unicode="S" horiz-adv-x="1089" d="M98 39q17 90 68 184 76-27 149.5-45T477 160q174 0 267.5 76.5T838 442q0 84-54.5 141.5T618 700q-68 37-123 75t-94 81-60.5 96.5T319 1073q0 96 37 174t105.5 133.5 165 86T842 1497q111 0 190.5-16.5T1184 1436q-8-43-23.5-88t-42.5-86q-53 25-119.5 43T846 1323q-66 0-121-12.5t-96-37-64.5-64.5-23.5-95q0-82 49-136t151-110q76-41 136.5-79.5t102.5-84 64.5-100.5 22.5-129q0-113-42-205T905 112.5 716.5 11 467-25Q354-25 264-7.5T98 39z"/><glyph unicode="T" horiz-adv-x="1054" d="M276 1290q0 45 8.5 90t24.5 93h940q0-47-8-91.5t-24-91.5H852L627 0q-53-6-109-6-27 0-53.5 1T416 0l225 1290H276z"/><glyph unicode="U" horiz-adv-x="1357" d="M258 387q0 47 6 100.5T281 600l153 873q27 4 54.5 6t54.5 2 52.5-2 49.5-6L498 637q-25-141-25-240 0-125 52.5-179T707 164q88 0 150.5 29.5t105.5 89 71.5 148.5 48.5 206l146 836q29 4 54.5 6t53.5 2q25 0 52.5-2t50.5-6l-156-887q-27-147-71-262t-114.5-192-174-117T676-25Q465-25 361.5 75.5T258 387z"/><glyph unicode="V" horiz-adv-x="1249" d="M311 1473q25 4 55.5 6t61.5 2q27 0 54.5-2t52.5-6L678 238l541 1235q25 4 54.5 6t57.5 2q29 0 58.5-2t52.5-6L766 0q-29-4-65.5-6T635-8q-31 0-62.5 2T514 0z"/><glyph unicode="W" horiz-adv-x="1826" d="M326 1473q29 4 63.5 5t69.5 1q45 0 86-6l26-1201 484 1201q27 4 58.5 5t57.5 1q23 0 51.5-1t51.5-5l80-1213 438 1213q49 6 106 6 27 0 55.5-1t51.5-5L1423 0q-25-4-58.5-5T1303-6q-29 0-62 1t-59 5l-80 1128L633 0q-27-4-62.5-5T506-6q-25 0-56.5 1T395 0z"/><glyph unicode="X" horiz-adv-x="1243" d="M53 0l479 772-188 701q57 6 117 6 47 0 100-6l180-707L289 0q-31-4-63.5-5T166-6Q109-6 53 0zm705 766l420 707q55 6 110 6 61 0 117-6L971 770 1212 0q-59-6-112-6-49 0-107 6z"/><glyph unicode="Y" horiz-adv-x="1124" d="M272 1473q29 4 67 5t73 1q43 0 84-6l196-723 422 723q55 6 117 6 27 0 56.5-1t51.5-5L760 530 668 0q-55-6-109-6-57 0-102 6l96 537z"/><glyph unicode="Z" horiz-adv-x="1085" d="M66 16l860 1272H330q0 96 32 185h898l8-21L410 182h622q0-51-8-96T999 0H76z"/><glyph unicode="[" horiz-adv-x="700" d="M115-344l334 1900h430q0-41-7.5-85t-21.5-80H618L344-178h229q-2-39-8-82t-20-84H115z"/><glyph unicode="\" horiz-adv-x="837" d="M281 1473q29 4 52 6t50 2q25 0 49.5-2t48.5-6L809 0q-47-8-100-8-25 0-50.5 2T608 0z"/><glyph unicode="]" horiz-adv-x="673" d="M6-344q0 41 7 85t22 83h229l277 1567H311q0 80 29 165h430L436-344H6z"/><glyph unicode="^" horiz-adv-x="1081" d="M242 754l438 716q27 4 53.5 6.5t50.5 2.5q29 0 55.5-2t53.5-7l186-716q-29-4-52-5t-46-1-46.5 1-45.5 5l-135 530-318-532q-23-4-50.5-4H336q-20 0-44 1t-50 5z"/><glyph unicode="_" horiz-adv-x="995" d="M-18-160q0 29 5 61.5T6-29h971q0-45-7-80.5T952-180H-16q0 4-1 10t-1 10z"/><glyph unicode="`" horiz-adv-x="1024" d="M512 1477q31 4 61.5 6t65.5 2 68.5-2 64.5-6l189-260q-47-8-99-9-31 0-57.5 2t-48.5 7z"/><glyph unicode="a" horiz-adv-x="1134" d="M168 307q0 145 45 283.5t133 246 219 173 305 65.5q74 0 149-11t132-32l-102-586q-23-123-36.5-211T999 82q0-27 1-42t6-38q-23-4-49.5-6T907-6q-20 0-44.5 2T815 2q-4 23-6 46.5t-2 57.5q0 23 5 62t11 70q-23-45-59.5-91.5t-84.5-84T570.5 0 440-25q-135 0-203.5 89.5T168 307zm211 43q0-98 35-152.5T518 143q63 0 122.5 41t109 114 85 170T891 676l41 219q-25 6-51.5 8t-59.5 2q-102 0-183-47T498.5 732t-89-178T379 350z"/><glyph unicode="b" horiz-adv-x="1169" d="M172 25l186 1056q18 113 30.5 196t12.5 148v41.5l-2 34.5q23 4 54.5 6t54.5 2q20 0 46-1t48-5q2-20 3-37.5t1-38.5q0-47-10-122.5T573 1163l-47-268q27 37 58.5 69.5T657 1022t92.5 39 116.5 14q141 0 223-99t82-280q0-145-44-275T994 191.5t-223-158T457-25q-78 0-156 14.5T172 25zm225 135q23-6 55.5-10.5T514 145q94 0 175 39t139.5 107.5 92 163T954 659q0 111-46 175.5T772 899q-53 0-102-22.5T579 805t-75-128-51-194z"/><glyph unicode="c" horiz-adv-x="940" d="M180 395q0 123 40 245t119 219 192.5 156.5T793 1075q68 0 129-12t106-29q-2-39-16.5-85T975 868q-41 16-89 27.5T784 907q-100 0-173.5-44t-123-114.5-73-158.5T391 416q0-139 68.5-206T649 143q53 0 105.5 9T862 184q16-29 25.5-68.5T897 25Q838 0 760-12.5T618-25Q393-25 286.5 86T180 395z"/><glyph unicode="d" horiz-adv-x="1130" d="M170 307q0 145 45 283.5t133 246 220 173 304 65.5q23 0 47.5-2t41.5-4q23 119 35 205t12 151v41.5l-2 34.5q23 4 54.5 6t53.5 2q20 0 46-1t46-5q6-41 6-76 0-47-9-120.5t-21-141.5l-129-719q-23-123-35-211t-12-153V40l4-38q-23-4-48.5-6T913-6t-47 2-45 6q-4 16-7 35.5T811 92q0 25 5 69t15 81q-25-45-61.5-92.5t-85.5-86T574.5 0 444-25q-135 0-204.5 89.5T170 307zm211 43q0-98 35-152.5T520 143q63 0 122.5 41t109 114 86 170T895 676l39 219q-25 6-51.5 8t-59.5 2q-102 0-183-47T500.5 732t-89-178T381 350z"/><glyph unicode="e" horiz-adv-x="1019" d="M178 395q0 125 42 247t121 218 188.5 155.5T774 1075t214-66.5 79-177.5q0-90-44-156.5T901 561t-183.5-77.5T487 434l-106-16q6-137 69.5-207T647 141q82 0 156 19.5T936 203q18-31 26.5-74t8.5-86q-31-14-75-26.5T804-5t-97.5-14.5T616-25Q495-25 412.5 7t-135 88.5-76 133T178 395zm219 174l113 21q104 18 173 41.5T793 683t57 58.5 16 67.5q0 47-32.5 76.5T739 915q-66 0-121-29.5T519 808t-74.5-110.5T397 569z"/><glyph unicode="f" horiz-adv-x="688" d="M-193-473q8 47 20.5 85t33.5 75q20-8 45.5-13.5T-41-332q47 0 85 12.5t66.5 49.5 52 103.5T205 6l157 883H193q0 41 5 79t21 83h170l10 59q35 207 136.5 309.5T821 1522q53 0 92-7.5t72-17.5q-12-53-25.5-89t-33.5-75q-23 8-47.5 14.5T821 1354q-43 0-77.5-11.5t-62.5-39-48.5-75.5-32.5-122q-4-14-6-27.5t-6-27.5h252q0-43-5.5-80T813 889H561L403-6q-25-137-60.5-231.5t-88.5-153-124-84T-35-500q-45 0-86 7.5t-72 19.5z"/><glyph unicode="g" horiz-adv-x="1126" d="M76-457q2 88 45 164 41-10 96-21.5T338-326q92 0 163.5 18.5t127 61.5T722-133t60 174l43 197q-23-45-59.5-91.5t-85.5-84T570.5 0 440-25q-135 0-203.5 89.5T168 307q0 145 45 283.5t133 246 219 173 305 65.5q74 0 151-11t134-32q-47-258-91-512T973 8q-25-139-82-235.5T750-384t-190.5-88T330-500q-70 0-139.5 12.5T76-457zm301 807q0-98 37-152.5T518 143q66 0 124 41t106.5 113 84 169T891 676l41 217q-49 12-111 12-102 0-184-47T497.5 732t-89-178T377 350z"/><glyph unicode="h" horiz-adv-x="1161" d="M166 0l190 1079q20 115 32.5 198t12.5 148q0 25-1 39.5t-3 36.5q23 4 55.5 6t55.5 2q20 0 46-2t46-6q6-37 6-76 0-23-3-54.5t-7-66-10-71.5-13-70q-14-70-26-138.5T522 887q57 76 147.5 131t204.5 55q125 0 196-65.5t71-202.5q0-31-4-68t-11-73L1010 0q-23-4-52.5-5T905-6t-50.5 1T807 0q29 160 55.5 315.5T918 631q4 31 8 61.5t4 52.5q0 78-42 115t-108 37q-47 0-96-20.5T591 806t-81-135-59-214q-23-117-42.5-229.5T369 0q-29-4-59.5-5T250-6q-10 0-37 1t-47 5z"/><glyph unicode="i" horiz-adv-x="583" d="M213 0l156 889H242q0 41 5 80t21 82h328L412 0q-23-4-52.5-5T307-6t-47 1-47 5zm154 1268q0 59 10 112.5t26 108.5q29 4 62 6t57 2q25 0 56.5-2t58.5-6q-2-59-12.5-113.5T598 1268q-29-4-61.5-5t-57.5-1q-23 0-55 1t-57 5z"/><glyph unicode="j" horiz-adv-x="581" d="M-176-473q0 33 11 78t28 78q23-8 56.5-13.5T-18-336q76 0 132 45t76 162L369 889H242q0 41 5 79t21 83h328L387-141Q324-499-4-500q-49 0-93 7.5t-79 19.5zm543 1741q0 59 10 112.5t26 108.5q29 4 62 6t57 2q25 0 56.5-2t58.5-6q-2-59-12.5-113.5T598 1268q-29-4-61.5-5t-57.5-1q-23 0-55 1t-57 5z"/><glyph unicode="k" horiz-adv-x="1032" d="M168 0l190 1079q20 115 31.5 198t11.5 148v39.5l-2 36.5q23 4 54.5 6t54.5 2 47.5-2 46.5-6q2-18 3-36.5t1-39.5q0-37-6-91t-16-113L369 0q-23-4-52.5-5T264-6t-49.5 1T168 0zm367 545l215 268q57 72 94 131.5t47 106.5q29 4 53.5 6t52.5 2q29 0 57.5-2t55.5-6q-8-47-34.5-91.5T1001 852q-63-76-125.5-151.5T748 549L997 0q-59-6-106-6-53 0-111 6z"/><glyph unicode="l" horiz-adv-x="608" d="M201 213q0 39 8 82t16 84l129 700q20 115 31.5 198t13.5 148v39.5l-2 36.5q23 4 54.5 6t54.5 2q20 0 46-2t48-6q4-18 4-36.5V1425q0-23-3-54.5t-7-66-10-71.5-13-70L412 299q-6-35-6-55 0-33 9-52.5t23.5-28.5 31.5-11 34-2q18 0 41.5 4t40.5 8q18-53 18-127 0-8-1-15.5T602 6Q571-4 527-9t-87-5q-53 0-97 10t-75.5 36.5-49 70.5T201 213z"/><glyph unicode="m" horiz-adv-x="1726" d="M168 0l106 608q23 123 36.5 211T324 973v42l-5 38q23 4 49.5 6t49.5 2q20 0 44.5-2t47.5-6q4-16 6-36t2-54q0-25-2-47.5t-6-47.5q53 86 145.5 146.5T862 1075q111 0 169.5-54t68.5-159q61 94 155.5 153.5T1462 1075q242 0 242-266 0-31-4-69t-10-74L1573 0q-23-4-51.5-6T1470-8t-50 2-48 6l111 631q6 33 9 64.5t3 54.5q0 78-30.5 113.5T1366 899q-43 0-89-20.5t-88-69.5-77-129-55-199L973 0q-25-4-53.5-6T868-8t-50 2-48 6l111 631q6 33 9 64.5t3 54.5q0 78-31 113.5T764 899q-43 0-89-20.5T587 807t-78-136-58-214L369 0q-25-4-53.5-6T264-8t-49.5 2T168 0z"/><glyph unicode="n" horiz-adv-x="1177" d="M182 0l109 608q23 123 36 211t13 154q0 27-1 42t-5 38q23 4 49.5 6t48.5 2q20 0 46-2t46-6q4-16 6-38t2-57q0-39-5-73.5T516 817q20 43 57 89t86.5 83 109.5 61.5 128 24.5q123 0 191.5-65.5T1157 807q0-31-4-69t-10-72L1026 0q-25-4-53.5-6T922-8q-23 0-50.5 2T823 0l111 631q6 33 9 63.5t3 53.5q0 82-38 116.5T807 899q-55 0-108.5-34T598 765.5 513 604t-60-221L385 0q-25-4-53.5-6T281-8q-23 0-50.5 2T182 0z"/><glyph unicode="o" horiz-adv-x="1140" d="M182 379q0 113 35 236.5t107.5 225 182 168T766 1075q193 0 289-106.5t96-298.5q0-115-35-238t-106.5-224.5-182-167T565-25Q375-25 278.5 80.5T182 379zm207-2q0-117 50.5-178.5T586 137t164.5 52.5 111.5 132 63.5 173T946 670q0 117-52 178t-149 61q-96 0-163.5-53T471 723t-62.5-173T389 377z"/><glyph unicode="p" horiz-adv-x="1169" d="M80-483L274 608q23 123 36.5 211T324 973q0 27-1 42t-4 38q23 4 48.5 6t48.5 2q20 0 45.5-2t48.5-6q4-16 6-36t2-54q0-25-2-44.5t-6-44.5q55 86 143 143.5t213 57.5q141 0 223-99t82-280q0-145-44-275T995 191.5t-219-158T471-25q-33 0-58.5 2.5T365-16l-80-467q-25-4-53.5-6.5T182-492q-23 0-50.5 2.5T80-483zm317 643q23-8 55.5-11.5T514 145q94 0 175 39t139.5 107.5 92 163T954 659q0 111-47 175.5T772 899q-53 0-102-22.5T579 805t-75-128-51-194z"/><glyph unicode="q" horiz-adv-x="1128" d="M174 309q0 145 45 282.5t133 245 219 173 303 65.5q76 0 150-12t133-29L891-483q-23-4-51.5-6.5T791-492q-23 0-50.5 2.5T690-483l123 698q-25-41-60.5-83T671 55 568.5-2.5 446-25q-135 0-203.5 90.5T174 309zm209 43q0-98 36-153.5T522 143q63 0 123 41t109 114 84.5 170T895 676l41 219q-23 6-50.5 8t-60.5 2q-102 0-183-47T502.5 733t-89-177T383 352z"/><glyph unicode="r" horiz-adv-x="747" d="M166 0q23 129 50.5 272.5t51 277.5 40 245.5T324 973q0 27-1 42t-6 38q23 4 49.5 5t49.5 1q20 0 45.5-1t46.5-5q4-16 6-36t2-54q0-47-6-93 27 37 58.5 70t70.5 59.5 86 42 104 15.5q16 0 36-2t32-6q0-41-9-93.5T856 866q-8 2-25.5 4t-33.5 2q-137 0-222.5-98T453 471L369 0q-43-6-84-6h-52z"/><glyph unicode="s" horiz-adv-x="888" d="M92 27q4 45 15.5 86t33.5 77q53-23 125-36t133-13q51 0 96.5 9.5t78 29 52 52T645 313q0 63-37 95t-104 59l-66 27q-31 12-65.5 30.5t-63 47-48 72.5T242 750q0 76 30.5 136t86 102 132 64.5T662 1075q84 0 159.5-18.5T940 1016q-16-80-59-154-35 16-96.5 33.5T653 913q-88 0-146-30.5T449 776q0-47 27.5-78.5T575 637l46-21q39-18 80.5-38.5t75.5-50 55.5-71.5T854 352q0-98-37-168.5t-101.5-117T566-2.5 383-25q-82 0-161 14.5T92 27z"/><glyph unicode="t" horiz-adv-x="716" d="M184 889q0 41 6.5 79t22.5 83h164q10 53 18 108t8 115v33q41 20 98.5 30.5T600 1348q2-18 3-37t1-39q0-63-16-158l-13-63h265q0-45-6.5-83T813 889H551l-80-445q-10-47-18.5-97t-8.5-91q0-61 32-85t85-24q35 0 63.5 5.5T682 166q6-20 10-45t4-53V38.5L694 6q-27-8-69.5-15T532-16q-66 0-120 9t-92.5 34.5-60 69.5T238 213q0 39 7 83t15 91l90 502H184z"/><glyph unicode="u" horiz-adv-x="1163" d="M209 244q0 31 4 68.5t10 72.5l117 666q23 4 52.5 6t51.5 2q23 0 49.5-2t49.5-6L432 420q-12-66-12-117 0-82 38-116.5T559 152q55 0 108.5 33.5t100.5 99 85 162T913 668l68 383q25 4 53.5 6t50.5 2q23 0 50.5-2t48.5-6l-109-609q-23-123-36-211t-13-153q0-27 1-42.5t3-37.5q-23-4-48.5-6T934-10q-20 0-46 2t-46 6q-8 27-8 94 0 39 5 74t11 67q-20-43-57-89t-86.5-82.5T597 0 469-25q-123 0-191.5 65.5T209 244z"/><glyph unicode="v" horiz-adv-x="1024" d="M203 1051q25 4 52.5 6t53.5 2q31 0 58.5-2t52.5-6l119-844 264 530q47 96 75.5 175t30.5 124v15q27 4 55.5 6t57.5 2q31 0 60.5-2t54.5-6v-11q0-33-10.5-68.5T1087 879Q970 656 848.5 437.5T606 0q-55-6-106-6-23 0-54.5 1T391 0z"/><glyph unicode="w" horiz-adv-x="1564" d="M221 1051q29 4 55.5 6t55.5 2q59 0 106-8l80-815 328 815q23 4 49.5 6t48.5 2q27 0 51.5-2t48.5-6l101-818 256 621q25 59 34 105.5t9 72.5v19q25 4 50.5 6t53.5 2q66 0 113-8v-9q0-45-17.5-95T1589 821L1208 0q-27-4-56.5-6T1094-8q-25 0-51.5 2T993 0L891 756 580 0q-27-4-56.5-6T467-8q-25 0-52.5 2T365 0z"/><glyph unicode="x" horiz-adv-x="1003" d="M61 0q2 6 2 13t5 16q4 43 39.5 106.5t86 134 106.5 143T401 547l-147 504q23 4 49.5 6t54.5 2q29 0 49.5-2t49.5-6l141-506-262-383q-33-47-49.5-86T270 0q-35-4-62.5-5T160-6q-25 0-44.5 1T61 0zm553 545l222 332q35 53 47 99t12 75q35 6 57.5 7t42.5 1q49 0 97-8 0-47-15.5-99.5T1020 840q-51-72-102.5-142.5T815 555L981 0q-31-4-57.5-6T868-8q-25 0-50 2t-48 6q-41 137-79 272.5T614 545z"/><glyph unicode="y" horiz-adv-x="1024" d="M45-481q2 45 12.5 86T90-324q18-6 45-11t49-5q31 0 64 9t68.5 44T393-184.5 483 0q-16-2-34.5-2h-67L352 0q-35 262-68.5 524T215 1051q29 4 52.5 6t51.5 2q29 0 55.5-2t53.5-6l104-949q66 141 117 258t93 215.5T818 756t63 155q12 33 18 64t6 47q0 10-1 16t-1 13q39 6 86 6h129q2-8 2-16.5V1024q0-49-20.5-106.5T1055 803q-92-199-197.5-425T621-123q-57-121-110.5-194.5T404.5-432 299-487.5 184-502q-72 0-139 21z"/><glyph unicode="z" horiz-adv-x="919" d="M63 29l658 860H266q0 41 5 80t24 82h743l6-27-659-864h498q0-41-6.5-83T854 0H70z"/><glyph unicode="{" horiz-adv-x="778" d="M193 606l4 23q53 27 92 53.5t67.5 59 48 74.5 33.5 99q37 160 64.5 282t73 205 123 125 219.5 42q14 0 27-1t28-3q0-37-9.5-82t-21.5-80h-22q-66 0-108-17.5t-67.5-53.5-42-92-30.5-136q-4-16-4-25l-17-88q-18-92-37.5-154.5t-46-104.5-62.5-69.5-83-52.5q57-35 85-83t28-138q0-37-8.5-97.5t-19.5-125T487.5 45 479-43q0-78 40-106.5T662-178q0-37-6.5-78T635-338q-8 0-15.5-1t-13.5-1q-174 0-250.5 69.5T279-57q0 31 4 65.5T293 80l35 194q6 51 6 95 0 78-33 134T193 606z"/><glyph unicode="|" horiz-adv-x="681" d="M193-344l339 1933q25 4 51.5 6t51.5 2q27 0 51.5-2t44.5-6L391-344q-23-4-47.5-6t-50.5-2q-29 0-53.5 2t-46.5 6z"/><glyph unicode="}" horiz-adv-x="770" d="M20-334q0 37 9.5 82T51-172h23q66 0 107.5 17.5t67 53 42 92T322 127q4 16 4 25l16 88q18 92 37.5 154.5T426 499t62.5 69.5T571 621q-57 35-84.5 83T459 842q0 37 8 97t19.5 124.5 19.5 122 8 88.5q0 78-40 106.5T332 1409q0 37 6 78t20 82q8 0 15.5 1t13.5 1q174 0 251-69.5t77-213.5q0-31-4-65.5t-11-71.5l-34-195q-6-53-7-94 0-78 33-134t109-103l-4-23q-53-27-92-53.5t-68-59-48.5-74.5T555 315q-37-160-64.5-281.5T418-171 295-296 76-338q-14 0-27.5 1T20-334z"/><glyph unicode="~" horiz-adv-x="980" d="M193 836q23 23 57.5 44t73 38.5T404 946t81 10q49 0 90-13t80-28.5 80-28 88-12.5q37 0 78 16.5t94 61.5q29-35 46.5-66.5T1073 811q-55-47-128-76.5T793 705q-47 0-88 12t-82 27.5-81 28.5-83 13q-41 0-88-18t-99-61q-29 29-49 59.5T193 836z"/><glyph unicode="¡" horiz-adv-x="577" d="M100-414L297 618q51 6 98 7 49 0 97-7L319-414q-55-6-106-6-55 0-113 6zM328 831q0 59 10 113.5t27 114.5q29 4 56.5 6t53.5 2q29 0 56.5-2t52.5-6q0-117-39-228-29-4-55.5-6t-55.5-2q-27 0-54 2t-52 6z"/><glyph unicode="¢" d="M319 393q0 113 34 225.5t99.5 206 161 158T834 1065l43 238q18 4 35.5 7t35.5 3 35.5-3 36.5-7q-10-57-20.5-115T979 1071q53-4 102-14t84-23q-2-39-15-86t-36-82q-41 16-90 27.5T920 905q-98 0-172-46T626 742.5 553 584t-25-170q0-139 69-205t191-66q102 0 213 39 14-29 24.5-68.5T1036 25Q983 2 912.5-9T786-23l-36-219q-33-8-72-8-20 0-37.5 2t-34.5 6l39 226Q477 11 398 117t-79 276z"/><glyph unicode="£" d="M211 23q10 10 21.5 18T256 59q111 92 172 224.5T489 575q0 12-1 23.5t-1 24.5H303q0 78 29 159h147q-4 39-6 76t-2 72q0 113 29.5 211t93 171.5 161 117T985 1473q121 0 203-23t131-45q-10-41-27.5-80t-46.5-86q-53 23-119.5 41T981 1298q-84 0-140.5-26.5t-92-74.5-51-115.5T682 932q0-33 3-71t7-79h383q0-80-28-159H700q0-109-26.5-223.5T559 184h580q0-53-10.5-100T1108 0H215z"/><glyph unicode="¤" d="M205 315l155 156q-35 51-53 112.5T289 713q0 70 20.5 131T367 958l-162 164q23 45 53.5 74t71.5 47l162-164q51 35 111.5 53.5T731 1151q68 0 128.5-18.5T973 1079l164 164q37-23 68.5-52.5t51.5-66.5l-161-161q39-53 60.5-117t21.5-133q0-70-21.5-131.5T1100 467l155-156q-45-78-116-121L977 350q-109-74-246-74-139 0-248 74L326 193q-45 20-74 51.5T205 315zm266 398q0-57 19.5-106.5T545 520t83-58.5T731 440q57 0 105.5 21.5t83 58.5 55 86T995 713q0 57-20.5 106t-55 86-83 58.5T731 985q-55 0-103-21.5T545 905t-54.5-86T471 713z"/><glyph unicode="¥" d="M190 338q0 37 4.5 70.5T215 481h373l26 160H242q0 43 7 77t19 66h295l-241 676q27 4 58.5 6t59.5 2q29 0 55.5-2t49.5-6l203-622 397 622q31 4 65.5 5t67.5 1q20 0 46-1t46-5L924 784h317q0-35-4-68.5t-20-74.5H823l-28-160h393q0-41-7-75.5t-18-67.5H770L711 0q-53-6-107-6-57 0-102 6l59 338H190z"/><glyph unicode="¦" horiz-adv-x="481" d="M80-344l119 682q25 4 50 6t50 2q27 0 51.5-2t46.5-6L279-344q-25-4-49.5-6t-51.5-2-51.5 2-46.5 6zM299 907l119 682q25 4 50.5 6t49.5 2q27 0 51.5-2t46.5-6L498 907q-23-4-48.5-6t-52.5-2-51 2-47 6z"/><glyph unicode="§" horiz-adv-x="1118" d="M225 35q10 43 28.5 82t41.5 73q47-23 123-40t145-17q37 0 81 5t83 20.5 64.5 45T817 281q0 53-40 81.5T684 410l-252 86q-86 29-128 77t-42 125q0 86 45 157t119 134q-18 27-31.5 60.5T381 1126q0 88 37 154t99.5 109 145 63.5T838 1473q98 0 186-18.5t147-45.5q-10-43-29.5-81t-41.5-73q-47 23-118 39.5T844 1311q-41 0-85-6.5t-81-21.5-60.5-43-23.5-71q0-59 42-86.5t95-46.5l213-75q80-29 130-75t50-126q0-82-44-153.5T969 471q61-66 61-152 0-88-38-153.5T891.5 57t-145-63.5T573-27q-49 0-100 5.5T376-8t-85 19.5T225 35zm232 727q0-41 26.5-63.5T569 655q55-20 111.5-39.5T795 573l55-20q29 29 53.5 64.5T928 694q0 33-31 58.5t-77 45-102 38T612 872l-73 29q-31-27-56.5-62.5T457 762z"/><glyph unicode="¨" horiz-adv-x="1024" d="M397 1237q2 53 10.5 103.5T434 1442q27 4 54.5 6t50.5 2 51-2 53-6q-2-53-10-103.5T606 1237q-53-6-104-6-23 0-51.5 1t-53.5 5zm418 0q2 53 9 103.5t28 101.5q25 4 52.5 6t51.5 2q23 0 51.5-2t53.5-6q-4-53-12.5-102.5T1024 1237q-53-6-104-6-23 0-51.5 1t-53.5 5z"/><glyph unicode="©" horiz-adv-x="1732" d="M225 735q0 162 55.5 302.5t155 241.5T675 1438.5t310 58.5 310.5-57.5T1535 1280t154.5-241.5T1745 735t-55.5-303T1535 191.5t-239.5-160T985-27 675 31.5t-239.5 160-155 240.5T225 735zm150 0q0-131 42-245.5T537.5 290 730 155.5 985 106q143 0 256 49.5T1432.5 290 1553 489.5t42 245.5-42 246-120.5 200-191.5 134-256 49q-141 0-255-49t-192.5-134T417 981t-42-246zm241-2q0 92 28 172t78 138.5 123 92 165 33.5q74 0 117.5-8t93.5-24q-2-37-8.5-73t-22.5-69q-47 14-83 19.5t-81 5.5q-117 0-177.5-77T788 733q0-137 66-207.5t176-70.5q45 0 83 7t79 25q35-59 43-137-47-23-103.5-33T1016 307q-94 0-169 32t-126 89-78 135-27 170z"/><glyph unicode="ª" horiz-adv-x="1024" d="M276 858q0 115 36 224.5T420 1278t177 138 245 52q59 0 123.5-10t111.5-26l-92-517q-25-147-24-229v-33.5l2-34.5q-20-2-47-3t-44-1q-16 0-37.5 1t-39.5 3q-8 33-9 87 0 14 2.5 35.5T795 791q-45-76-117-134.5T506 598q-115 0-172.5 68.5T276 858zm187 39q0-74 24.5-117t77.5-43q49 0 94.5 33t83 89T809 992t45 165l31 164q-18 4-38 5t-42 1q-78 0-141.5-37T555 1193t-68.5-137T463 897z"/><glyph unicode="«" horiz-adv-x="1198" d="M176 555l428 444q25 4 55.5 6.5t57.5 2.5q29 0 61.5-2t61.5-7L408 543 672 92q-29-4-57.5-6T557 84q-27 0-52.5 2T455 92zm485 0l428 444q25 4 55.5 6.5t57.5 2.5q29 0 61.5-2t61.5-7L893 543l264-451q-29-4-57.5-6t-57.5-2q-27 0-52.5 2T940 92z"/><glyph unicode="¬" d="M274 694q0 23 1 49.5t6 47.5h856V219q-18-4-44-6t-49-2-49 2-47 6v383H281q-4 18-5.5 44t-1.5 48z"/><glyph unicode="­" horiz-adv-x="735" d="M199 496q4 96 32 188h517q0-43-9.5-94T715 496H199z"/><glyph unicode="®" horiz-adv-x="1732" d="M225 735q0 162 55.5 302.5t155 241.5T675 1438.5t310 58.5 310.5-57.5T1535 1280t154.5-241.5T1745 735t-55.5-303T1535 191.5t-239.5-160T985-27 675 31.5t-239.5 160-155 240.5T225 735zm150 0q0-133 42-247.5T537.5 289 729 155.5 985 106q141 0 255 49.5T1432.5 289 1553 487.5t42 247.5q0 131-42 246t-120.5 199-192.5 133-255 49q-143 0-256-49t-191.5-133T417 981t-42-246zm358-381v789q51 6 101.5 10t111.5 4q74 0 135.5-14.5t105.5-43 69.5-75.5 25.5-111q0-47-13.5-83.5t-34-65.5-46-48.5T1139 682l213-326q-29-4-52.5-5t-46.5-1q-43 0-79 6L940 721l41 18q49 23 94 61t45 97-43 92-114 33q-16 0-35-1t-41-5V354q-31-6-76-6t-78 6z"/><glyph unicode="¯" horiz-adv-x="1024" d="M410 1262q0 41 4 79.5t20 79.5h553q0-41-5-78.5t-19-80.5H410z"/><glyph unicode="°" horiz-adv-x="757" d="M236 1188q0 63 23.5 117.5t63 94.5 95 63.5T535 1487q61 0 115.5-23.5t95-63.5 64.5-94.5 24-117.5q0-61-24-115.5T745.5 978t-95-63.5T535 891t-117 23.5-95.5 63.5-63 94.5T236 1188zm145 0q0-70 44-115t110-45 109.5 45 43.5 115-44 116-109 46q-66 0-110-46.5T381 1188z"/><glyph unicode="±" d="M172 2q0 49 8 94t24 92h867v-14q0-47-8.5-90T1040 2H172zm113 627q0 41 6 87t22 93h340l66 373q23 4 46 6t48 2q23 0 47.5-2t46.5-6l-65-373h336q0-45-6.5-88t-22.5-92H809l-66-373q-41-8-94-8-25 0-48 2t-46 6l66 373H285z"/><glyph unicode="²" horiz-adv-x="921" d="M213 651l326 305q63 59 112 115.5t49 128.5q0 111-116 111-47 0-98.5-14.5T393 1264q-12 29-23.5 62.5T356 1397q59 27 127 44t144 17q121 0 190.5-61.5T887 1231q0-55-17.5-102.5t-46-88.5-69.5-79.5-86-81.5L553 774h303q0-72-27-147H217z"/><glyph unicode="³" horiz-adv-x="921" d="M242 649q12 68 59 131 51-16 97-27.5t96-11.5q37 0 71.5 8.5t62 27 44 49T688 899q0 59-38 89t-101 30q-16 0-39-2t-45-6l-19 24 236 273H387q0 35 5 69.5t18 71.5h510l10-31-248-295q96-12 140-71.5T866 920q0-76-29.5-135.5T757 685t-118-61.5T498 602q-82 0-146.5 13.5T242 649z"/><glyph unicode="´" horiz-adv-x="1024" d="M520 1217l199 260q33 4 65.5 6t67.5 2 65.5-2 61.5-6l-254-260q-23-4-50.5-6.5T616 1208q-23 0-47 2t-49 7z"/><glyph unicode="µ" horiz-adv-x="1187" d="M61-483l263 1534q23 4 50 6t50 2 50.5-2 49.5-6l-96-549q-6-39-10-79t-4-75q0-102 44-154.5T602 141q45 0 92 18.5t88 55.5 73 93.5T899 440l105 611q23 4 50 6t50 2 50.5-2 49.5-6L1024 0q-16-4-36.5-6T944-8t-46.5 2T858 0v23q0 27 1 55t5 53Q811 59 739.5 17T565-25q-72 0-129 29t-82 76l-94-563q-23-4-51.5-6.5T158-492q-23 0-49.5 2.5T61-483z"/><glyph unicode="¶" horiz-adv-x="1177" d="M240 1001q0 137 50 230.5t142 150 220 80 286 23.5L682-10h-35q-31 0-63.5 2T520 2l111 639q-78 6-149.5 28.5t-125 65.5-85 108.5T240 1001zM838-12l256 1497q53 0 95-3t64-12L1001 0q-55-12-163-12z"/><glyph unicode="·" horiz-adv-x="493" d="M215 461q0 57 11 113.5T254 688q29 4 57.5 6.5T369 697t57.5-2.5T481 688q0-59-10-113.5T444 461q-33-4-60.5-6t-55.5-2q-29 0-56.5 2t-56.5 6z"/><glyph unicode="¸" horiz-adv-x="1024" d="M260-455q6 27 17.5 58.5T307-342q29-10 64-19.5t65-9.5q20 0 43 2t43.5 10.5 33.5 25 13 44.5q0 39-31.5 54.5T453-219q-27 0-54.5-4T342-233l-8 10L475 47h121l-88-166q6 2 15 3t26 1q82 0 128-45t46-114q0-63-24.5-105.5t-64.5-68-91-36T438-494q-61 0-108 12.5T260-455z"/><glyph unicode="¹" horiz-adv-x="921" d="M287 627q0 37 5 72.5t23 72.5h183l82 467-193-78q-41 55-47 133l397 162h54L672 772h188q0-37-5-72.5T834 627H287z"/><glyph unicode="º" horiz-adv-x="1024" d="M281 920q0 88 26.5 185t84 179T539 1418t215 52q158 0 236.5-85t78.5-240q0-90-26.5-186.5t-84-176.5T812 650t-214-52q-156 0-236.5 84T281 920zm186-2q0-181 143-181 74 0 126 40t85 101.5 48.5 133T885 1145q0 90-39 136t-109 46q-74 0-125-41t-82.5-102.5-47-133T467 918z"/><glyph unicode="»" horiz-adv-x="1241" d="M94 92l436 467-268 440q29 4 57.5 6.5t57.5 2.5q27 0 52.5-2t49.5-7l279-467L328 92q-25-4-54.5-6T215 84t-60.5 2T94 92zm483 0l436 467-268 440q29 4 57.5 6.5t57.5 2.5q27 0 52.5-2t49.5-7l279-467L811 92q-25-4-54.5-6T698 84t-60.5 2-60.5 6z"/><glyph unicode="¼" horiz-adv-x="2150" d="M287 627q0 37 5 72.5t23 72.5h183l82 467-193-78q-41 55-47 133l397 162h54L672 772h188q0-37-5-72.5T834 627H287zM542 2l1133 1448q25 4 55.5 6t57.5 2 55.5-2 50.5-6L760 2q-29-4-53.5-6T657-6q-27 0-58.5 2T542 2zm746 186l436 664q41-6 79-20.5t65-33.5l-332-499h201l30 168q18 4 36 5t40 1q41 0 76-6l-29-168h94q0-31-5-69t-17-69h-94L1839 0q-16-2-32.5-3T1769-4q-23 0-41 1t-41 5l27 159h-416z"/><glyph unicode="½" horiz-adv-x="2150" d="M287 627q0 37 5 72.5t23 72.5h183l82 467-193-78q-41 55-47 133l397 162h54L672 772h188q0-37-5-72.5T834 627H287zM518 2l1133 1448q25 4 55.5 6t57.5 2 55.5-2 50.5-6L736 2q-29-4-53.5-6T633-6q-27 0-58.5 2T518 2zm825 24l326 305q63 59 112 115.5t49 128.5q0 111-116 111-47 0-98.5-14.5T1523 639q-12 29-23.5 62.5T1486 772q59 27 127 44t144 17q121 0 190.5-61.5T2017 606q0-55-17.5-102.5t-46-88.5-69.5-79.5-86-81.5l-115-105h303q0-72-27-147h-612z"/><glyph unicode="¾" horiz-adv-x="2150" d="M256 649q12 68 59 131 51-16 97-27.5t96-11.5q37 0 71.5 8.5t62 27 44 49T702 899q0 59-38 89t-101 30q-16 0-39-2t-45-6l-19 24 236 273H401q0 35 5 69.5t18 71.5h510l10-31-248-295q96-12 140-71.5T880 920q0-76-29.5-135.5T771 685t-118-61.5T512 602q-82 0-146.5 13.5T256 649zM505 2l1133 1448q25 4 55.5 6t57.5 2 55.5-2 50.5-6L723 2q-29-4-53.5-6T620-6q-27 0-58.5 2T505 2zm757 186l436 664q41-6 79-20.5t65-33.5l-332-499h201l30 168q18 4 36 5t40 1q41 0 76-6l-29-168h94q0-31-5-69t-17-69h-94L1813 0q-16-2-32.5-3T1743-4q-23 0-41 1t-41 5l27 159h-416z"/><glyph unicode="¿" horiz-adv-x="927" d="M145-82q0 90 34 169t92.5 142.5 133 110.5T563 412l35 211q51 6 98 6 25 0 49.5-1t47.5-5l-58-332-76-21q-59-16-111-44.5T455 156t-64.5-93.5T367-53q0-94 65.5-143.5T608-246q78 0 134.5 13.5T864-197q14-35 24.5-83t10.5-89q-94-35-175-45t-161-10q-102 0-181 25.5T251-327t-79 108.5T145-82zm473 913q2 61 11.5 117t29.5 111q29 4 57.5 6t57.5 2 56.5-2 56.5-6q-2-59-11.5-116.5T846 831q-29-4-57.5-7t-57.5-3q-27 0-55.5 3t-57.5 7z"/><glyph unicode="À" horiz-adv-x="1226" d="M72 0l669 1473q27 4 65 5t66 1q31 0 63-1t56-5L1192 0q-59-6-119-6-49 0-100 6l-39 346H438L289 0q-49-6-111-6-29 0-56.5 1T72 0zm446 526h395l-84 711zm39 1299q25 4 64.5 6t78.5 2q35 0 67.5-2t55.5-6l186-232q-16-4-44.5-7t-57.5-3q-33 0-59.5 2t-45.5 6z"/><glyph unicode="Á" horiz-adv-x="1226" d="M72 0l669 1473q27 4 65 5t66 1q31 0 63-1t56-5L1192 0q-59-6-119-6-49 0-100 6l-39 346H438L289 0q-49-6-111-6-29 0-56.5 1T72 0zm446 526h395l-84 711zm193 1067l250 224q25 4 58.5 6t68.5 2q37 0 75.5-2t61.5-6l-297-226q-20-4-52-5t-65-1q-29 0-56.5 2t-43.5 6z"/><glyph unicode="Â" horiz-adv-x="1226" d="M72 0l669 1473q27 4 65 5t66 1q31 0 63-1t56-5L1192 0q-59-6-119-6-49 0-100 6l-39 346H438L289 0q-49-6-111-6-29 0-56.5 1T72 0zm446 526h395l-84 711zm29 1069l260 226q27 4 60.5 6t62.5 2q20 0 50-2t56-6l168-226q-23-4-47-6t-51-2q-23 0-50.5 2t-54.5 8l-92 123-141-125q-27-4-58.5-6t-56.5-2q-29 0-56.5 2t-49.5 6z"/><glyph unicode="Ã" horiz-adv-x="1226" d="M72 0l669 1473q27 4 65 5t66 1q31 0 63-1t56-5L1192 0q-59-6-119-6-49 0-100 6l-39 346H438L289 0q-49-6-111-6-29 0-56.5 1T72 0zm446 526h395l-84 711zm25 1211q39 41 93 71.5t120 30.5q43 0 78-11t67.5-25.5 66.5-26 75-11.5q35 0 62.5 11.5t68.5 46.5q16-20 35.5-53t23.5-62q-41-37-95-67.5t-120-30.5q-43 0-78 11t-67.5 24.5T806 1670t-70 11q-39 0-67-12t-67-43q-18 20-36.5 51t-22.5 60z"/><glyph unicode="Ä" horiz-adv-x="1226" d="M72 0l669 1473q27 4 65 5t66 1q31 0 63-1t56-5L1192 0q-59-6-119-6-49 0-100 6l-39 346H438L289 0q-49-6-111-6-29 0-56.5 1T72 0zm446 526h395l-84 711zm29 1067q0 106 35 207 29 4 56.5 6t51.5 2q27 0 55.5-2t51.5-6q0-106-35-207-29-4-56.5-6t-54.5-2q-25 0-52 2t-52 6zm438 0q0 102 35 207 27 4 55.5 6t53.5 2q27 0 54-2t52-6q-4-104-35-207-29-4-56.5-6t-53.5-2q-25 0-53.5 2t-51.5 6z"/><glyph unicode="Å" horiz-adv-x="1239" d="M74 0l669 1468q-45 27-68.5 73T651 1645q0 57 20.5 107t56.5 87 85 57.5 109 20.5q104 0 159.5-62.5T1137 1700q0-78-39-139.5T993 1468L1194 0q-47-6-109-6-57 0-108 6-10 86-20.5 172T936 346H442L291 0q-41-6-86-6h-55zm446 526h395l-84 711zm260 1135q0-53 24-86t77-33q59 0 92 44t33 104q0 49-21.5 82.5T909 1806q-61 0-95-42t-34-103z"/><glyph unicode="Æ" horiz-adv-x="1796" d="M0 0l1018 1473h930q0-86-31-185h-569l-74-420h455q0-43-8.5-90t-24.5-94h-455l-88-502h584q0-45-8.5-91T1706 0H911l60 344H475L231 0q-29-4-60.5-6T109-8Q80-8 52.5-6T0 0zm600 524h404l137 781h-13z"/><glyph unicode="Ç" horiz-adv-x="1181" d="M233 545q0 184 51.5 356t153 304 251 212 343.5 80q109 0 186.5-15.5T1350 1444q-10-47-23.5-86t-40.5-86q-59 23-116.5 33t-131.5 10q-152 0-262-63.5t-181-169T490.5 842 457 563q0-199 98-301t281-102q78 0 144.5 14t133.5 43q18-35 28.5-80t14.5-94q-72-33-166-48T817-25l-53-94q20 4 43 4 86 0 132-45t46-114q0-63-24.5-105.5t-65.5-68-93-36T694-494q-63 0-111 12.5T512-455q4 27 16.5 58.5T557-342q31-10 68-19.5t67-9.5q20 0 44 2t44.5 10.5 33.5 25 13 44.5q0 39-31.5 54.5T709-219q-29 0-56.5-4T596-233l-10 10L694-18Q471 9 352 156T233 545z"/><glyph unicode="È" horiz-adv-x="1073" d="M188 0l258 1473h781q0-92-33-185H625l-74-420h455q0-94-33-184H518q-23-127-44-251t-44-251h586q-6-53-10.5-92T983 0H188zm371 1825q25 4 64.5 6t78.5 2q35 0 67.5-2t55.5-6l186-232q-16-4-44.5-7t-57.5-3q-33 0-59.5 2t-45.5 6z"/><glyph unicode="É" horiz-adv-x="1073" d="M188 0l258 1473h781q0-92-33-185H625l-74-420h455q0-94-33-184H518q-23-127-44-251t-44-251h586q-6-53-10.5-92T983 0H188zm519 1593l250 224q25 4 58.5 6t68.5 2q37 0 75.5-2t61.5-6l-297-226q-20-4-52-5t-65-1q-29 0-56.5 2t-43.5 6z"/><glyph unicode="Ê" horiz-adv-x="1073" d="M188 0l258 1473h781q0-92-33-185H625l-74-420h455q0-94-33-184H518q-23-127-44-251t-44-251h586q-6-53-10.5-92T983 0H188zm334 1595l260 226q27 4 60.5 6t62.5 2q20 0 50-2t56-6l168-226q-23-4-47-6t-51-2q-23 0-50.5 2t-54.5 8l-92 123-141-125q-27-4-58.5-6t-56.5-2q-29 0-56.5 2t-49.5 6z"/><glyph unicode="Ë" horiz-adv-x="1073" d="M188 0l258 1473h781q0-92-33-185H625l-74-420h455q0-94-33-184H518q-23-127-44-251t-44-251h586q-6-53-10.5-92T983 0H188zm347 1593q0 106 35 207 29 4 56.5 6t51.5 2q27 0 55.5-2t51.5-6q0-106-35-207-29-4-56.5-6t-54.5-2q-25 0-52 2t-52 6zm438 0q0 102 35 207 27 4 55.5 6t53.5 2q27 0 54-2t52-6q-4-104-35-207-29-4-56.5-6t-53.5-2q-25 0-53.5 2t-51.5 6z"/><glyph unicode="Ì" horiz-adv-x="589" d="M190 0l259 1473q27 4 53 6t53 2q29 0 54.5-2t49.5-6L401 0q-29-4-54-6t-54-2-54.5 2T190 0zm89 1825q25 4 64.5 6t78.5 2q35 0 67.5-2t55.5-6l186-232q-16-4-44.5-7t-57.5-3q-33 0-59.5 2t-45.5 6z"/><glyph unicode="Í" horiz-adv-x="589" d="M190 0l259 1473q27 4 53 6t53 2q29 0 54.5-2t49.5-6L401 0q-29-4-54-6t-54-2-54.5 2T190 0zm203 1593l250 224q25 4 58.5 6t68.5 2q37 0 75.5-2t61.5-6l-297-226q-20-4-52-5t-65-1q-29 0-56.5 2t-43.5 6z"/><glyph unicode="Î" horiz-adv-x="589" d="M190 0l259 1473q27 4 53 6t53 2q29 0 54.5-2t49.5-6L401 0q-29-4-54-6t-54-2-54.5 2T190 0zm56 1595l260 226q27 4 60.5 6t62.5 2q20 0 50-2t56-6l168-226q-23-4-47-6t-51-2q-23 0-50.5 2t-54.5 8l-92 123-141-125q-27-4-58.5-6t-56.5-2q-29 0-56.5 2t-49.5 6z"/><glyph unicode="Ï" horiz-adv-x="589" d="M190 0l259 1473q27 4 53 6t53 2q29 0 54.5-2t49.5-6L401 0q-29-4-54-6t-54-2-54.5 2T190 0zm58 1593q0 106 35 207 29 4 56.5 6t51.5 2q27 0 55.5-2t51.5-6q0-106-35-207-29-4-56.5-6t-54.5-2q-25 0-52 2t-52 6zm438 0q0 102 35 207 27 4 55.5 6t53.5 2q27 0 54-2t52-6q-4-104-35-207-29-4-56.5-6t-53.5-2q-25 0-53.5 2t-51.5 6z"/><glyph unicode="Ð" horiz-adv-x="1425" d="M184 692q0 41 5.5 79t19.5 75h156l110 627q33 4 74 8t84 7 84 5 78 2q172 0 297-43t204.5-122 117.5-189.5 38-245.5q0-195-57.5-361.5t-169-291.5T950 46 571-25q-111 0-201.5 7.5T217 0l121 692H184zm273-520q27-4 75-7t93-3q141 0 253.5 53T1070 362.5 1190 586t41 280q0 217-98.5 332T809 1313q-41 0-80-3t-72-7l-82-457h353q0-39-5-78t-20-76H549z"/><glyph unicode="Ñ" horiz-adv-x="1370" d="M188 0l258 1473q23 4 50.5 5t50.5 1q51 0 92-6l414-1111 192 1111 40 4 40 2h49l66-6L1182 0q-23-4-48.5-5T1083-6q-23 0-46 1t-46 5L575 1104 385 0q-41-6-80-6h-51zm447 1737q39 41 93 71.5t120 30.5q43 0 78-11t67.5-25.5 66.5-26 75-11.5q35 0 62.5 11.5t68.5 46.5q16-20 35.5-53t23.5-62q-41-37-95-67.5t-120-30.5q-43 0-78 11t-67.5 24.5T898 1670t-70 11q-39 0-67-12t-67-43q-18 20-36.5 51t-22.5 60z"/><glyph unicode="Ò" horiz-adv-x="1435" d="M229 516q0 188 49.5 365.5T423 1195t234.5 219 317.5 83q123 0 215-41t151.5-112.5 89-172T1460 952q0-193-50-368.5t-145.5-311T1031 56 715-25q-123 0-214 39T349.5 124 259 295t-30 221zm217 2q0-172 70.5-267T737 156q121 0 214 70.5t158 184 98.5 256T1241 950q0 166-68.5 264.5T950 1313q-123 0-217-69.5T575.5 1061 479 806t-33-288zm302 1307q25 4 64.5 6t78.5 2q35 0 67.5-2t55.5-6l186-232q-16-4-44.5-7t-57.5-3q-33 0-59.5 2t-45.5 6z"/><glyph unicode="Ó" horiz-adv-x="1435" d="M229 516q0 188 49.5 365.5T423 1195t234.5 219 317.5 83q123 0 215-41t151.5-112.5 89-172T1460 952q0-193-50-368.5t-145.5-311T1031 56 715-25q-123 0-214 39T349.5 124 259 295t-30 221zm217 2q0-172 70.5-267T737 156q121 0 214 70.5t158 184 98.5 256T1241 950q0 166-68.5 264.5T950 1313q-123 0-217-69.5T575.5 1061 479 806t-33-288zm363 1075l250 224q25 4 58.5 6t68.5 2q37 0 75.5-2t61.5-6l-297-226q-20-4-52-5t-65-1q-29 0-56.5 2t-43.5 6z"/><glyph unicode="Ô" horiz-adv-x="1435" d="M229 516q0 188 49.5 365.5T423 1195t234.5 219 317.5 83q123 0 215-41t151.5-112.5 89-172T1460 952q0-193-50-368.5t-145.5-311T1031 56 715-25q-123 0-214 39T349.5 124 259 295t-30 221zm217 2q0-172 70.5-267T737 156q121 0 214 70.5t158 184 98.5 256T1241 950q0 166-68.5 264.5T950 1313q-123 0-217-69.5T575.5 1061 479 806t-33-288zm210 1077l260 226q27 4 60.5 6t62.5 2q20 0 50-2t56-6l168-226q-23-4-47-6t-51-2q-23 0-50.5 2t-54.5 8l-92 123-141-125q-27-4-58.5-6t-56.5-2q-29 0-56.5 2t-49.5 6z"/><glyph unicode="Õ" horiz-adv-x="1435" d="M229 516q0 188 49.5 365.5T423 1195t234.5 219 317.5 83q123 0 215-41t151.5-112.5 89-172T1460 952q0-193-50-368.5t-145.5-311T1031 56 715-25q-123 0-214 39T349.5 124 259 295t-30 221zm217 2q0-172 70.5-267T737 156q121 0 214 70.5t158 184 98.5 256T1241 950q0 166-68.5 264.5T950 1313q-123 0-217-69.5T575.5 1061 479 806t-33-288zm234 1219q39 41 93 71.5t120 30.5q43 0 78-11t67.5-25.5 66.5-26 75-11.5q35 0 62.5 11.5t68.5 46.5q16-20 35.5-53t23.5-62q-41-37-95-67.5t-120-30.5q-43 0-78 11t-67.5 24.5T943 1670t-70 11q-39 0-67-12t-67-43q-18 20-36.5 51t-22.5 60z"/><glyph unicode="Ö" horiz-adv-x="1435" d="M229 516q0 188 49.5 365.5T423 1195t234.5 219 317.5 83q123 0 215-41t151.5-112.5 89-172T1460 952q0-193-50-368.5t-145.5-311T1031 56 715-25q-123 0-214 39T349.5 124 259 295t-30 221zm217 2q0-172 70.5-267T737 156q121 0 214 70.5t158 184 98.5 256T1241 950q0 166-68.5 264.5T950 1313q-123 0-217-69.5T575.5 1061 479 806t-33-288zm228 1075q0 106 35 207 29 4 56.5 6t51.5 2q27 0 55.5-2t51.5-6q0-106-35-207-29-4-56.5-6t-54.5-2q-25 0-52 2t-52 6zm438 0q0 102 35 207 27 4 55.5 6t53.5 2q27 0 54-2t52-6q-4-104-35-207-29-4-56.5-6t-53.5-2q-25 0-53.5 2t-51.5 6z"/><glyph unicode="×" d="M317 483l293 248-198 242q33 35 70.5 68.5T565 1104l199-244 289 248q35-29 66.5-68t51.5-77L883 715l196-238q-31-37-70.5-69.5T928 350L731 588 436 338q-37 27-66.5 65.5T317 483z"/><glyph unicode="Ø" horiz-adv-x="1435" d="M168-31l151 195q-90 135-90 352 0 188 49.5 365.5T423 1195t234.5 219 317.5 83q190 0 307-98l72 92q16 4 39.5 6t44.5 2q47 0 80-8l-148-188q90-139 90-351 0-193-50-368.5t-145.5-311T1031 56 715-25q-188 0-305 93l-78-99q-33-8-78-8-20 0-45 2t-41 6zm278 549q0-92 25-160l684 877q-74 78-205 78-123 0-217-69.5T575.5 1061 479 806t-33-288zm89-287q72-76 202-75 121 0 214 70.5t158 184 98.5 256T1241 950q0 92-22 158z"/><glyph unicode="Ù" horiz-adv-x="1357" d="M258 387q0 47 6 100.5T281 600l153 873q27 4 54.5 6t54.5 2 52.5-2 49.5-6L498 637q-25-141-25-240 0-125 52.5-179T707 164q88 0 150.5 29.5t105.5 89 71.5 148.5 48.5 206l146 836q29 4 54.5 6t53.5 2q25 0 52.5-2t50.5-6l-156-887q-27-147-71-262t-114.5-192-174-117T676-25Q465-25 361.5 75.5T258 387zm410 1438q25 4 64.5 6t78.5 2q35 0 67.5-2t55.5-6l186-232q-16-4-44.5-7t-57.5-3q-33 0-59.5 2t-45.5 6z"/><glyph unicode="Ú" horiz-adv-x="1357" d="M258 387q0 47 6 100.5T281 600l153 873q27 4 54.5 6t54.5 2 52.5-2 49.5-6L498 637q-25-141-25-240 0-125 52.5-179T707 164q88 0 150.5 29.5t105.5 89 71.5 148.5 48.5 206l146 836q29 4 54.5 6t53.5 2q25 0 52.5-2t50.5-6l-156-887q-27-147-71-262t-114.5-192-174-117T676-25Q465-25 361.5 75.5T258 387zm533 1206l250 224q25 4 58.5 6t68.5 2q37 0 75.5-2t61.5-6l-297-226q-20-4-52-5t-65-1q-29 0-56.5 2t-43.5 6z"/><glyph unicode="Û" horiz-adv-x="1357" d="M258 387q0 47 6 100.5T281 600l153 873q27 4 54.5 6t54.5 2 52.5-2 49.5-6L498 637q-25-141-25-240 0-125 52.5-179T707 164q88 0 150.5 29.5t105.5 89 71.5 148.5 48.5 206l146 836q29 4 54.5 6t53.5 2q25 0 52.5-2t50.5-6l-156-887q-27-147-71-262t-114.5-192-174-117T676-25Q465-25 361.5 75.5T258 387zm371 1208l260 226q27 4 60.5 6t62.5 2q20 0 50-2t56-6l168-226q-23-4-47-6t-51-2q-23 0-50.5 2t-54.5 8l-92 123-141-125q-27-4-58.5-6t-56.5-2q-29 0-56.5 2t-49.5 6z"/><glyph unicode="Ü" horiz-adv-x="1357" d="M258 387q0 47 6 100.5T281 600l153 873q27 4 54.5 6t54.5 2 52.5-2 49.5-6L498 637q-25-141-25-240 0-125 52.5-179T707 164q88 0 150.5 29.5t105.5 89 71.5 148.5 48.5 206l146 836q29 4 54.5 6t53.5 2q25 0 52.5-2t50.5-6l-156-887q-27-147-71-262t-114.5-192-174-117T676-25Q465-25 361.5 75.5T258 387zm385 1206q0 106 35 207 29 4 56.5 6t51.5 2q27 0 55.5-2t51.5-6q0-106-35-207-29-4-56.5-6t-54.5-2q-25 0-52 2t-52 6zm438 0q0 102 35 207 27 4 55.5 6t53.5 2q27 0 54-2t52-6q-4-104-35-207-29-4-56.5-6t-53.5-2q-25 0-53.5 2t-51.5 6z"/><glyph unicode="Ý" horiz-adv-x="1124" d="M272 1473q29 4 67 5t73 1q43 0 84-6l196-723 422 723q55 6 117 6 27 0 56.5-1t51.5-5L760 530 668 0q-55-6-109-6-57 0-102 6l96 537zm408 120l250 224q25 4 58.5 6t68.5 2q37 0 75.5-2t61.5-6l-297-226q-20-4-52-5t-65-1q-29 0-56.5 2t-43.5 6z"/><glyph unicode="Þ" horiz-adv-x="1181" d="M197 0l258 1473q49 6 100 6 29 0 57.5-1t51.5-5l-41-230q27 2 49 2h45q98 0 187-20.5t156.5-68.5 107.5-125 40-189q0-133-45-237.5T1036 428 839.5 318.5 586 281q-41 0-69 2t-60 4L406 0q-33-4-61-5t-58-1q-23 0-47.5 2T197 0zm290 467q29-4 53.5-5t71.5-1q82 0 152 21.5T883 549t76.5 114.5T987 829q0 74-23.5 120t-61.5 72-88 36-103 10h-33.5l-27-1-27-2-33.5-3z"/><glyph unicode="ß" horiz-adv-x="1183" d="M-236-475q8 49 20.5 87t33.5 75q20-8 45.5-13.5T-84-332q45 0 83 10.5t67.5 41 51 87T156-45l194 1116q20 123 57 208t94.5 138 137.5 78 184 25q90 0 157-22.5t110-62.5 64.5-92.5T1176 1229q0-98-42-167t-92.5-123T949 835.5 907 727q0-51 38-89t84-81 85-100.5 39-145.5q0-76-28.5-138t-80-106-123-68T764-25q-78 0-142.5 12.5T508 23q10 37 27.5 77.5T575 182q41-18 91.5-29.5T766 141q74 0 131 38t57 116q0 66-38.5 105.5t-85 77.5-85 86T707 694q0 80 43 140.5t94 117 94 116.5 43 138q0 72-52 110t-132 38q-55 0-96.5-14.5t-70-49.5-48-92-33.5-141L354-61q-23-123-59.5-206T204-402.5t-124-75T-78-500q-45 0-85 7.5t-73 17.5z"/><glyph unicode="à" horiz-adv-x="1134" d="M168 307q0 145 45 283.5t133 246 219 173 305 65.5q74 0 149-11t132-32l-102-586q-23-123-36.5-211T999 82q0-27 1-42t6-38q-23-4-49.5-6T907-6q-20 0-44.5 2T815 2q-4 23-6 46.5t-2 57.5q0 23 5 62t11 70q-23-45-59.5-91.5t-84.5-84T570.5 0 440-25q-135 0-203.5 89.5T168 307zm211 43q0-98 35-152.5T518 143q63 0 122.5 41t109 114 85 170T891 676l41 219q-25 6-51.5 8t-59.5 2q-102 0-183-47T498.5 732t-89-178T379 350zm186 1127q31 4 61.5 6t65.5 2 68.5-2 64.5-6l189-260q-47-8-99-9-31 0-57.5 2t-48.5 7z"/><glyph unicode="á" horiz-adv-x="1134" d="M168 307q0 145 45 283.5t133 246 219 173 305 65.5q74 0 149-11t132-32l-102-586q-23-123-36.5-211T999 82q0-27 1-42t6-38q-23-4-49.5-6T907-6q-20 0-44.5 2T815 2q-4 23-6 46.5t-2 57.5q0 23 5 62t11 70q-23-45-59.5-91.5t-84.5-84T570.5 0 440-25q-135 0-203.5 89.5T168 307zm211 43q0-98 35-152.5T518 143q63 0 122.5 41t109 114 85 170T891 676l41 219q-25 6-51.5 8t-59.5 2q-102 0-183-47T498.5 732t-89-178T379 350zm334 867l199 260q33 4 65.5 6t67.5 2 65.5-2 61.5-6l-254-260q-23-4-50.5-6.5T809 1208q-23 0-47 2t-49 7z"/><glyph unicode="â" horiz-adv-x="1134" d="M168 307q0 145 45 283.5t133 246 219 173 305 65.5q74 0 149-11t132-32l-102-586q-23-123-36.5-211T999 82q0-27 1-42t6-38q-23-4-49.5-6T907-6q-20 0-44.5 2T815 2q-4 23-6 46.5t-2 57.5q0 23 5 62t11 70q-23-45-59.5-91.5t-84.5-84T570.5 0 440-25q-135 0-203.5 89.5T168 307zm211 43q0-98 35-152.5T518 143q63 0 122.5 41t109 114 85 170T891 676l41 219q-25 6-51.5 8t-59.5 2q-102 0-183-47T498.5 732t-89-178T379 350zm124 867l254 260q25 4 59 6t62 2q23 0 57.5-2t61.5-8l152-258q-18-4-42-6.5t-51-2.5q-25 0-53.5 2t-52.5 7l-84 161-143-161q-25-4-56.5-6.5T610 1208q-29 0-57.5 2t-49.5 7z"/><glyph unicode="ã" horiz-adv-x="1134" d="M168 307q0 145 45 283.5t133 246 219 173 305 65.5q74 0 149-11t132-32l-102-586q-23-123-36.5-211T999 82q0-27 1-42t6-38q-23-4-49.5-6T907-6q-20 0-44.5 2T815 2q-4 23-6 46.5t-2 57.5q0 23 5 62t11 70q-23-45-59.5-91.5t-84.5-84T570.5 0 440-25q-135 0-203.5 89.5T168 307zm211 43q0-98 35-152.5T518 143q63 0 122.5 41t109 114 85 170T891 676l41 219q-25 6-51.5 8t-59.5 2q-102 0-183-47T498.5 732t-89-178T379 350zm119 1002q39 41 93 71.5t120 30.5q43 0 77.5-11t67.5-24.5 67-25 74-11.5q35 0 64 10.5t70 45.5q16-20 34.5-52t22.5-63q-39-37-94.5-67.5T973 1225q-43 0-78 11t-67.5 25.5T761 1287t-71 11q-39 0-66.5-13t-66.5-44q-18 20-36.5 51t-22.5 60z"/><glyph unicode="ä" horiz-adv-x="1134" d="M168 307q0 145 45 283.5t133 246 219 173 305 65.5q74 0 149-11t132-32l-102-586q-23-123-36.5-211T999 82q0-27 1-42t6-38q-23-4-49.5-6T907-6q-20 0-44.5 2T815 2q-4 23-6 46.5t-2 57.5q0 23 5 62t11 70q-23-45-59.5-91.5t-84.5-84T570.5 0 440-25q-135 0-203.5 89.5T168 307zm211 43q0-98 35-152.5T518 143q63 0 122.5 41t109 114 85 170T891 676l41 219q-25 6-51.5 8t-59.5 2q-102 0-183-47T498.5 732t-89-178T379 350zm135 887q2 53 10.5 103.5T551 1442q27 4 54.5 6t50.5 2 51-2 53-6q-2-53-10-103.5T723 1237q-53-6-104-6-23 0-51.5 1t-53.5 5zm418 0q2 53 9 103.5t28 101.5q25 4 52.5 6t51.5 2q23 0 51.5-2t53.5-6q-4-53-12.5-102.5T1141 1237q-53-6-104-6-23 0-51.5 1t-53.5 5z"/><glyph unicode="å" horiz-adv-x="1134" d="M168 307q0 145 45 283.5t133 246 219 173 305 65.5q74 0 149-11t132-32l-102-586q-23-123-36.5-211T999 82q0-27 1-42t6-38q-23-4-49.5-6T907-6q-20 0-44.5 2T815 2q-4 23-6 46.5t-2 57.5q0 23 5 62t11 70q-23-45-59.5-91.5t-84.5-84T570.5 0 440-25q-135 0-203.5 89.5T168 307zm211 43q0-98 35-152.5T518 143q63 0 122.5 41t109 114 85 170T891 676l41 219q-25 6-51.5 8t-59.5 2q-102 0-183-47T498.5 732t-89-178T379 350zm303 1045q0 49 16.5 93t47 77.5 73.5 54 96 20.5q92 0 145.5-54t53.5-148q0-49-17.5-93.5t-49-76-74.5-50-94-18.5q-92 0-144.5 53.5T682 1395zm121 12q0-47 20.5-74.5T889 1305q47 0 74.5 34.5T991 1434q0 47-19.5 74.5T907 1536q-51 0-77.5-39t-26.5-90z"/><glyph unicode="æ" horiz-adv-x="1689" d="M168 307q0 143 45 281.5t132 247 217 174 300 65.5q66 0 133.5-11t124.5-30q-6-29-11-58.5t-9-57.5q63 68 151 112.5t203 44.5q129 0 206-66.5t77-177.5q0-90-44-156.5T1571 561t-183.5-77.5T1157 434l-106-16q0-125 63.5-201t198.5-76q82 0 155.5 19.5T1602 203q20-31 27-74t7-86q-31-14-74.5-26.5t-92-21.5-97.5-14.5-90-5.5q-96 0-167 20.5T995 53t-77.5 87T874 250Q794 119 690 47T457-25q-147 0-218 89.5T168 307zm209 43q0-98 36-152.5T516 143q66 0 125 41t108.5 113 85 169T891 676l39 217q-49 12-111 12-102 0-183-48T496.5 731t-89-177T377 350zm690 219l113 19q104 16 172.5 39.5T1461 679t56.5 58.5T1534 803q0 49-34 80.5t-95 31.5q-66 0-121-28.5t-98-76.5-73-110.5-46-130.5z"/><glyph unicode="ç" horiz-adv-x="940" d="M180 395q0 123 40 245t119 219 192.5 156.5T793 1075q68 0 129-12t106-29q-2-39-16.5-85T975 868q-41 16-89 27.5T784 907q-100 0-173.5-44t-123-114.5-73-158.5T391 416q0-139 68.5-206T649 143q53 0 105.5 9.5T862 184q16-29 25.5-68.5T897 25Q840 2 767-10.5T631-25l-51-94q8 2 17 3t24 1q86 0 132-45t46-114q0-63-24.5-105.5t-65.5-68-93.5-36T508-494q-63 0-111.5 12.5T326-455q6 27 17 58.5t30 54.5q29-10 65.5-19.5T508-371q20 0 43.5 2t44 10.5 34 25T643-289q0 39-32.5 54.5T524-219q-29 0-57.5-4T412-233l-11 10L512-16Q340 9 260 115t-80 280z"/><glyph unicode="è" horiz-adv-x="1019" d="M178 395q0 125 42 247t121 218 188.5 155.5T774 1075t214-66.5 79-177.5q0-90-44-156.5T901 561t-183.5-77.5T487 434l-106-16q6-137 69.5-207T647 141q82 0 156 19.5T936 203q18-31 26.5-74t8.5-86q-31-14-75-26.5T804-5t-97.5-14.5T616-25Q495-25 412.5 7t-135 88.5-76 133T178 395zm219 174l113 21q104 18 173 41.5T793 683t57 58.5 16 67.5q0 47-32.5 76.5T739 915q-66 0-121-29.5T519 808t-74.5-110.5T397 569zm92 908q31 4 61.5 6t65.5 2 68.5-2 64.5-6l189-260q-47-8-99-9-31 0-57.5 2t-48.5 7z"/><glyph unicode="é" horiz-adv-x="1019" d="M178 395q0 125 42 247t121 218 188.5 155.5T774 1075t214-66.5 79-177.5q0-90-44-156.5T901 561t-183.5-77.5T487 434l-106-16q6-137 69.5-207T647 141q82 0 156 19.5T936 203q18-31 26.5-74t8.5-86q-31-14-75-26.5T804-5t-97.5-14.5T616-25Q495-25 412.5 7t-135 88.5-76 133T178 395zm219 174l113 21q104 18 173 41.5T793 683t57 58.5 16 67.5q0 47-32.5 76.5T739 915q-66 0-121-29.5T519 808t-74.5-110.5T397 569zm217 648l199 260q33 4 65.5 6t67.5 2 65.5-2 61.5-6l-254-260q-23-4-50.5-6.5T710 1208q-23 0-47 2t-49 7z"/><glyph unicode="ê" horiz-adv-x="1019" d="M178 395q0 125 42 247t121 218 188.5 155.5T774 1075t214-66.5 79-177.5q0-90-44-156.5T901 561t-183.5-77.5T487 434l-106-16q6-137 69.5-207T647 141q82 0 156 19.5T936 203q18-31 26.5-74t8.5-86q-31-14-75-26.5T804-5t-97.5-14.5T616-25Q495-25 412.5 7t-135 88.5-76 133T178 395zm219 174l113 21q104 18 173 41.5T793 683t57 58.5 16 67.5q0 47-32.5 76.5T739 915q-66 0-121-29.5T519 808t-74.5-110.5T397 569zm26 648l254 260q25 4 59 6t62 2q23 0 57.5-2t61.5-8l152-258q-18-4-42-6.5t-51-2.5q-25 0-53.5 2t-52.5 7l-84 161-143-161q-25-4-56.5-6.5T530 1208q-29 0-57.5 2t-49.5 7z"/><glyph unicode="ë" horiz-adv-x="1019" d="M178 395q0 125 42 247t121 218 188.5 155.5T774 1075t214-66.5 79-177.5q0-90-44-156.5T901 561t-183.5-77.5T487 434l-106-16q6-137 69.5-207T647 141q82 0 156 19.5T936 203q18-31 26.5-74t8.5-86q-31-14-75-26.5T804-5t-97.5-14.5T616-25Q495-25 412.5 7t-135 88.5-76 133T178 395zm219 174l113 21q104 18 173 41.5T793 683t57 58.5 16 67.5q0 47-32.5 76.5T739 915q-66 0-121-29.5T519 808t-74.5-110.5T397 569zm31 668q2 53 10.5 103.5T465 1442q27 4 54.5 6t50.5 2 51-2 53-6q-2-53-10-103.5T637 1237q-53-6-104-6-23 0-51.5 1t-53.5 5zm418 0q2 53 9 103.5t28 101.5q25 4 52.5 6t51.5 2q23 0 51.5-2t53.5-6q-4-53-12.5-102.5T1055 1237q-53-6-104-6-23 0-51.5 1t-53.5 5z"/><glyph unicode="ì" horiz-adv-x="583" d="M213 0l156 889H242q0 41 5 80t21 82h328L412 0q-23-4-52.5-5T307-6t-47 1-47 5zm2 1477q31 4 61.5 6t65.5 2 68.5-2 64.5-6l189-260q-47-8-99-9-31 0-57.5 2t-48.5 7z"/><glyph unicode="í" horiz-adv-x="583" d="M213 0l156 889H242q0 41 5 80t21 82h328L412 0q-23-4-52.5-5T307-6t-47 1-47 5zm100 1217l199 260q33 4 65.5 6t67.5 2 65.5-2 61.5-6l-254-260q-23-4-50.5-6.5T409 1208q-23 0-47 2t-49 7z"/><glyph unicode="î" horiz-adv-x="583" d="M145 1217l254 260q25 4 59 6t62 2q23 0 57.5-2t61.5-8l152-258q-18-4-42-6.5t-51-2.5q-25 0-53.5 2t-52.5 7l-84 161-143-161q-25-4-56.5-6.5T252 1208q-29 0-57.5 2t-49.5 7zM213 0l156 889H242q0 41 5 80t21 82h328L412 0q-23-4-52.5-5T307-6t-47 1-47 5z"/><glyph unicode="ï" horiz-adv-x="583" d="M157 1237q2 53 10.5 103.5T194 1442q27 4 54.5 6t50.5 2 51-2 53-6q-2-53-10-103.5T366 1237q-53-6-104-6-23 0-51.5 1t-53.5 5zM213 0l156 889H242q0 41 5 80t21 82h328L412 0q-23-4-52.5-5T307-6t-47 1-47 5zm362 1237q2 53 9 103.5t28 101.5q25 4 52.5 6t51.5 2q23 0 51.5-2t53.5-6q-4-53-12.5-102.5T784 1237q-53-6-104-6-23 0-51.5 1t-53.5 5z"/><glyph unicode="ð" horiz-adv-x="1157" d="M178 381q0 111 33 221.5T308.5 800 470 942t226 55q92 0 165-37.5T975 862q-4 109-35 195t-84 145l-211-119q-23 20-39 51t-20 60l166 94q-90 51-203 58 0 35 9 75.5t36 87.5q104-6 191-35.5t147-76.5l205 112q23-20 39-49.5t22-60.5l-170-94q74-92 108.5-225.5T1171 795q0-141-30.5-287t-101-263.5T853 51 569-25Q467-25 392 6T270 91t-69.5 129T178 381zm207 6q0-115 47-183.5T594 135q82 0 144.5 40T844 276.5t65.5 137T932 563q0 131-55.5 204T705 840q-86 0-146.5-44T459 684t-56.5-147.5T385 387z"/><glyph unicode="ñ" horiz-adv-x="1177" d="M182 0l109 608q23 123 36 211t13 154q0 27-1 42t-5 38q23 4 49.5 6t48.5 2q20 0 46-2t46-6q4-16 6-38t2-57q0-39-5-73.5T516 817q20 43 57 89t86.5 83 109.5 61.5 128 24.5q123 0 191.5-65.5T1157 807q0-31-4-69t-10-72L1026 0q-25-4-53.5-6T922-8q-23 0-50.5 2T823 0l111 631q6 33 9 63.5t3 53.5q0 82-38 116.5T807 899q-55 0-108.5-34T598 765.5 513 604t-60-221L385 0q-25-4-53.5-6T281-8q-23 0-50.5 2T182 0zm273 1352q39 41 93 71.5t120 30.5q43 0 77.5-11t67.5-24.5 67-25 74-11.5q35 0 64 10.5t70 45.5q16-20 34.5-52t22.5-63q-39-37-94.5-67.5T930 1225q-43 0-78 11t-67.5 25.5T718 1287t-71 11q-39 0-66.5-13t-66.5-44q-18 20-36.5 51t-22.5 60z"/><glyph unicode="ò" horiz-adv-x="1140" d="M182 379q0 113 35 236.5t107.5 225 182 168T766 1075q193 0 289-106.5t96-298.5q0-115-35-238t-106.5-224.5-182-167T565-25Q375-25 278.5 80.5T182 379zm207-2q0-117 50.5-178.5T586 137t164.5 52.5 111.5 132 63.5 173T946 670q0 117-52 178t-149 61q-96 0-163.5-53T471 723t-62.5-173T389 377zm174 1100q31 4 61.5 6t65.5 2 68.5-2 64.5-6l189-260q-47-8-99-9-31 0-57.5 2t-48.5 7z"/><glyph unicode="ó" horiz-adv-x="1140" d="M182 379q0 113 35 236.5t107.5 225 182 168T766 1075q193 0 289-106.5t96-298.5q0-115-35-238t-106.5-224.5-182-167T565-25Q375-25 278.5 80.5T182 379zm207-2q0-117 50.5-178.5T586 137t164.5 52.5 111.5 132 63.5 173T946 670q0 117-52 178t-149 61q-96 0-163.5-53T471 723t-62.5-173T389 377zm235 840l199 260q33 4 65.5 6t67.5 2 65.5-2 61.5-6l-254-260q-23-4-50.5-6.5T720 1208q-23 0-47 2t-49 7z"/><glyph unicode="ô" horiz-adv-x="1140" d="M182 379q0 113 35 236.5t107.5 225 182 168T766 1075q193 0 289-106.5t96-298.5q0-115-35-238t-106.5-224.5-182-167T565-25Q375-25 278.5 80.5T182 379zm207-2q0-117 50.5-178.5T586 137t164.5 52.5 111.5 132 63.5 173T946 670q0 117-52 178t-149 61q-96 0-163.5-53T471 723t-62.5-173T389 377zm69 840l254 260q25 4 59 6t62 2q23 0 57.5-2t61.5-8l152-258q-18-4-42-6.5t-51-2.5q-25 0-53.5 2t-52.5 7l-84 161-143-161q-25-4-56.5-6.5T565 1208q-29 0-57.5 2t-49.5 7z"/><glyph unicode="õ" horiz-adv-x="1140" d="M182 379q0 113 35 236.5t107.5 225 182 168T766 1075q193 0 289-106.5t96-298.5q0-115-35-238t-106.5-224.5-182-167T565-25Q375-25 278.5 80.5T182 379zm207-2q0-117 50.5-178.5T586 137t164.5 52.5 111.5 132 63.5 173T946 670q0 117-52 178t-149 61q-96 0-163.5-53T471 723t-62.5-173T389 377zm52 975q39 41 93 71.5t120 30.5q43 0 77.5-11t67.5-24.5 67-25 74-11.5q35 0 64 10.5t70 45.5q16-20 34.5-52t22.5-63q-39-37-94.5-67.5T916 1225q-43 0-78 11t-67.5 25.5T704 1287t-71 11q-39 0-66.5-13t-66.5-44q-18 20-36.5 51t-22.5 60z"/><glyph unicode="ö" horiz-adv-x="1140" d="M182 379q0 113 35 236.5t107.5 225 182 168T766 1075q193 0 289-106.5t96-298.5q0-115-35-238t-106.5-224.5-182-167T565-25Q375-25 278.5 80.5T182 379zm207-2q0-117 50.5-178.5T586 137t164.5 52.5 111.5 132 63.5 173T946 670q0 117-52 178t-149 61q-96 0-163.5-53T471 723t-62.5-173T389 377zm86 860q2 53 10.5 103.5T512 1442q27 4 54.5 6t50.5 2 51-2 53-6q-2-53-10-103.5T684 1237q-53-6-104-6-23 0-51.5 1t-53.5 5zm418 0q2 53 9 103.5t28 101.5q25 4 52.5 6t51.5 2q23 0 51.5-2t53.5-6q-4-53-12.5-102.5T1102 1237q-53-6-104-6-23 0-51.5 1t-53.5 5z"/><glyph unicode="÷" d="M311 629q0 45 9.5 94t23.5 92h866q0-45-8-95t-24-91H311zm236-289q0 66 46 111t112 45q59 0 92.5-34t33.5-95q0-59-44-105.5T674 215q-61 0-94 38t-33 87zm123 741q0 66 46 111t111 45q59 0 93-34t34-95q0-59-44-106.5T797 954q-61 0-94 39t-33 88z"/><glyph unicode="ø" horiz-adv-x="1140" d="M131-41l123 150q-74 100-74 270 0 113 36 235.5t107.5 225 182 169T766 1075q133 0 227-59l56 69q25 6 69 7 45 0 76-7l-119-145q76-104 76-272 0-115-35-237t-107.5-223.5-183-167T565-25q-70 0-127 15.5T336 33Q324 15 313.5.5t-24-25T256-41t-53-6q-45 0-72 6zm256 416q0-43 10-88l473 579q-49 43-127 43-96 0-163.5-53T469 723t-62.5-174T387 375zm70-195q49-43 127-43 96 0 164.5 52.5t111.5 132 63.5 173T944 668q0 27-4 49t-10 41z"/><glyph unicode="ù" horiz-adv-x="1163" d="M209 244q0 31 4 68.5t10 72.5l117 666q23 4 52.5 6t51.5 2q23 0 49.5-2t49.5-6L432 420q-12-66-12-117 0-82 38-116.5T559 152q55 0 108.5 33.5t100.5 99 85 162T913 668l68 383q25 4 53.5 6t50.5 2q23 0 50.5-2t48.5-6l-109-609q-23-123-36-211t-13-153q0-27 1-42.5t3-37.5q-23-4-48.5-6T934-10q-20 0-46 2t-46 6q-8 27-8 94 0 39 5 74t11 67q-20-43-57-89t-86.5-82.5T597 0 469-25q-123 0-191.5 65.5T209 244zm280 1233q31 4 61.5 6t65.5 2 68.5-2 64.5-6l189-260q-47-8-99-9-31 0-57.5 2t-48.5 7z"/><glyph unicode="ú" horiz-adv-x="1163" d="M209 244q0 31 4 68.5t10 72.5l117 666q23 4 52.5 6t51.5 2q23 0 49.5-2t49.5-6L432 420q-12-66-12-117 0-82 38-116.5T559 152q55 0 108.5 33.5t100.5 99 85 162T913 668l68 383q25 4 53.5 6t50.5 2q23 0 50.5-2t48.5-6l-109-609q-23-123-36-211t-13-153q0-27 1-42.5t3-37.5q-23-4-48.5-6T934-10q-20 0-46 2t-46 6q-8 27-8 94 0 39 5 74t11 67q-20-43-57-89t-86.5-82.5T597 0 469-25q-123 0-191.5 65.5T209 244zm456 973l199 260q33 4 65.5 6t67.5 2 65.5-2 61.5-6l-254-260q-23-4-50.5-6.5T761 1208q-23 0-47 2t-49 7z"/><glyph unicode="û" horiz-adv-x="1163" d="M209 244q0 31 4 68.5t10 72.5l117 666q23 4 52.5 6t51.5 2q23 0 49.5-2t49.5-6L432 420q-12-66-12-117 0-82 38-116.5T559 152q55 0 108.5 33.5t100.5 99 85 162T913 668l68 383q25 4 53.5 6t50.5 2q23 0 50.5-2t48.5-6l-109-609q-23-123-36-211t-13-153q0-27 1-42.5t3-37.5q-23-4-48.5-6T934-10q-20 0-46 2t-46 6q-8 27-8 94 0 39 5 74t11 67q-20-43-57-89t-86.5-82.5T597 0 469-25q-123 0-191.5 65.5T209 244zm245 973l254 260q25 4 59 6t62 2q23 0 57.5-2t61.5-8l152-258q-18-4-42-6.5t-51-2.5q-25 0-53.5 2t-52.5 7l-84 161-143-161q-25-4-56.5-6.5T561 1208q-29 0-57.5 2t-49.5 7z"/><glyph unicode="ü" horiz-adv-x="1163" d="M209 244q0 31 4 68.5t10 72.5l117 666q23 4 52.5 6t51.5 2q23 0 49.5-2t49.5-6L432 420q-12-66-12-117 0-82 38-116.5T559 152q55 0 108.5 33.5t100.5 99 85 162T913 668l68 383q25 4 53.5 6t50.5 2q23 0 50.5-2t48.5-6l-109-609q-23-123-36-211t-13-153q0-27 1-42.5t3-37.5q-23-4-48.5-6T934-10q-20 0-46 2t-46 6q-8 27-8 94 0 39 5 74t11 67q-20-43-57-89t-86.5-82.5T597 0 469-25q-123 0-191.5 65.5T209 244zm266 993q2 53 10.5 103.5T512 1442q27 4 54.5 6t50.5 2 51-2 53-6q-2-53-10-103.5T684 1237q-53-6-104-6-23 0-51.5 1t-53.5 5zm418 0q2 53 9 103.5t28 101.5q25 4 52.5 6t51.5 2q23 0 51.5-2t53.5-6q-4-53-12.5-102.5T1102 1237q-53-6-104-6-23 0-51.5 1t-53.5 5z"/><glyph unicode="ý" horiz-adv-x="1024" d="M45-481q2 45 12.5 86T90-324q18-6 45-11t49-5q31 0 64 9t68.5 44T393-184.5 483 0q-16-2-34.5-2h-67L352 0q-35 262-68.5 524T215 1051q29 4 52.5 6t51.5 2q29 0 55.5-2t53.5-6l104-949q66 141 117 258t93 215.5T818 756t63 155q12 33 18 64t6 47q0 10-1 16t-1 13q39 6 86 6h129q2-8 2-16.5V1024q0-49-20.5-106.5T1055 803q-92-199-197.5-425T621-123q-57-121-110.5-194.5T404.5-432 299-487.5 184-502q-72 0-139 21zm506 1698l199 260q33 4 65.5 6t67.5 2 65.5-2 61.5-6l-254-260q-23-4-50.5-6.5T647 1208q-23 0-47 2t-49 7z"/><glyph unicode="þ" horiz-adv-x="1159" d="M76-483q68 387 135.5 769T348 1055q23 123 36 211t13 153q0 27-1 43.5t-3 36.5q23 4 48.5 6t47.5 2q20 0 51-1t54-5q4-16 6-36.5t2-55.5q0-18-6-76.5T578 1202l-60-325q55 84 136 141t206 57q141 0 223-99t82-280q0-145-44-275T989 191.5t-219-158T465-25q-31 0-57.5 3.5T358-14l-79-469q-25-4-53.5-5t-49.5-1q-23 0-50.5 1T76-483zm315 641q23-6 55.5-9.5T510 145q92 0 171 36t138.5 102.5 93 159T946 649q0 109-44 178.5T766 897q-51 0-100.5-21.5T574 805t-75.5-128T446 483z"/><glyph unicode="ÿ" horiz-adv-x="1024" d="M45-481q2 45 12.5 86T90-324q18-6 45-11t49-5q31 0 64 9t68.5 44T393-184.5 483 0q-16-2-34.5-2h-67L352 0q-35 262-68.5 524T215 1051q29 4 52.5 6t51.5 2q29 0 55.5-2t53.5-6l104-949q66 141 117 258t93 215.5T818 756t63 155q12 33 18 64t6 47q0 10-1 16t-1 13q39 6 86 6h129q2-8 2-16.5V1024q0-49-20.5-106.5T1055 803q-92-199-197.5-425T621-123q-57-121-110.5-194.5T404.5-432 299-487.5 184-502q-72 0-139 21zm332 1718q2 53 10.5 103.5T414 1442q27 4 54.5 6t50.5 2 51-2 53-6q-2-53-10-103.5T586 1237q-53-6-104-6-23 0-51.5 1t-53.5 5zm418 0q2 53 9 103.5t28 101.5q25 4 52.5 6t51.5 2q23 0 51.5-2t53.5-6q-4-53-12.5-102.5T1004 1237q-53-6-104-6-23 0-51.5 1t-53.5 5z"/><glyph unicode="Œ" horiz-adv-x="1845" d="M227 518q0 188 47.5 364.5T416 1196t233 219 322 82q68 0 132-7t118-17h778q0-41-7-88.5t-26-96.5h-567l-74-420h455q0-43-8.5-90t-24.5-94h-455l-88-502h584l-4-49q0-33-8.5-67.5T1757 0H954q-51-10-109.5-17.5T723-25q-129 0-222 39T347.5 125 257 297t-30 221zm222 43q0-201 69.5-308.5T752 145q82 0 141 10.5T993 184l195 1106q-47 16-100.5 24.5T965 1323q-123 0-219.5-66.5t-163-174-100-244T449 561z"/><glyph unicode="œ" horiz-adv-x="1751" d="M182 379q0 113 35 235.5t106.5 225 180 169T760 1075q137 0 218-67.5T1087 842q72 98 180.5 165.5T1518 1075q63 0 115.5-18.5t89-51 56-77.5 19.5-97q0-90-44-156.5T1632 561t-183.5-77.5T1219 434l-107-16q4-129 68.5-203t195.5-74q82 0 157 19.5t132 42.5q20-31 27.5-74t7.5-86q-31-14-75-26.5T1533-5t-97.5-14.5T1346-25q-84 0-145.5 17.5T1095 41t-73 72-45 90q-61-92-165.5-160T555-25Q375-25 278.5 79.5T182 379zm207-4q0-117 51.5-177.5T586 137q96 0 164.5 52.5t111.5 132 63.5 173T946 668q0 117-52 179t-149 62q-96 0-163.5-53T471 723t-62.5-174T389 375zm739 194l113 19q104 16 173 39.5t109 51.5 57 58.5 17 65.5q0 49-33.5 80.5T1468 915q-66 0-121-28.5t-98-76.5-73.5-110.5T1128 569z"/><glyph unicode="Ÿ" horiz-adv-x="1124" d="M272 1473q29 4 67 5t73 1q43 0 84-6l196-723 422 723q55 6 117 6 27 0 56.5-1t51.5-5L760 530 668 0q-55-6-109-6-57 0-102 6l96 537zm228 120q0 106 35 207 29 4 56.5 6t51.5 2q27 0 55.5-2t51.5-6q0-106-35-207-29-4-56.5-6t-54.5-2q-25 0-52 2t-52 6zm438 0q0 102 35 207 27 4 55.5 6t53.5 2q27 0 54-2t52-6q-4-104-35-207-29-4-56.5-6t-53.5-2q-25 0-53.5 2t-51.5 6z"/><glyph unicode="ˆ" horiz-adv-x="1021" d="M403 1217l254 260q25 4 59 6t62 2q23 0 57.5-2t61.5-8l152-258q-18-4-42-6.5t-51-2.5q-25 0-53.5 2t-52.5 7l-84 161-143-161q-25-4-56.5-6.5T510 1208q-29 0-57.5 2t-49.5 7z"/><glyph unicode="˜" horiz-adv-x="1024" d="M375 1352q39 41 93 71.5t120 30.5q43 0 77.5-11t67.5-24.5 67-25 74-11.5q35 0 64 10.5t70 45.5q16-20 34.5-52t22.5-63q-39-37-94.5-67.5T850 1225q-43 0-78 11t-67.5 25.5T638 1287t-71 11q-39 0-66.5-13t-66.5-44q-18 20-36.5 51t-22.5 60z"/><glyph horiz-adv-x="958"/><glyph horiz-adv-x="1917"/><glyph horiz-adv-x="958"/><glyph horiz-adv-x="1917"/><glyph horiz-adv-x="639"/><glyph horiz-adv-x="479"/><glyph horiz-adv-x="319"/><glyph horiz-adv-x="319"/><glyph horiz-adv-x="239"/><glyph horiz-adv-x="383"/><glyph horiz-adv-x="106"/><glyph unicode="‐" horiz-adv-x="712" d="M199 496q4 96 32 188h517q0-43-9.5-94T715 496H199z"/><glyph unicode="‑" horiz-adv-x="712" d="M199 496q4 96 32 188h517q0-43-9.5-94T715 496H199z"/><glyph unicode="‒" horiz-adv-x="712" d="M199 496q4 96 32 188h517q0-43-9.5-94T715 496H199z"/><glyph unicode="–" horiz-adv-x="1024" d="M86 481q0 53 7 96.5t24 90.5h1024q0-94-33-187H86z"/><glyph unicode="—" horiz-adv-x="2048" d="M80 481q0 96 31 187h2048q0-94-33-187H80z"/><glyph unicode="‘" horiz-adv-x="483" d="M289 1470q25 4 51.5 6.5t50.5 2.5q51 0 101-6l122-459q-41-8-94-8-25 0-50.5 2t-51.5 6z"/><glyph unicode="’" horiz-adv-x="481" d="M260 1014l199 456q47 8 100 9 27 0 53.5-2t49.5-7l-203-456q-29-6-54.5-7t-48.5-1q-27 0-50 1t-46 7z"/><glyph unicode="‚" horiz-adv-x="483" d="M23-229l194 452q27 6 51.5 8t48.5 2q27 0 53.5-2t49.5-8L219-229q-27-4-52.5-6.5T119-238q-55 0-96 9z"/><glyph unicode="“" horiz-adv-x="868" d="M289 1470q25 4 51.5 6.5t50.5 2.5q51 0 101-6l122-459q-41-8-94-8-25 0-50.5 2t-51.5 6zm385 0q25 4 51.5 6.5t50.5 2.5q51 0 101-6l122-459q-41-8-94-8-25 0-50.5 2t-51.5 6z"/><glyph unicode="”" horiz-adv-x="866" d="M260 1014l199 456q47 8 100 9 27 0 53.5-2t49.5-7l-203-456q-29-6-54.5-7t-48.5-1q-27 0-50 1t-46 7zm385 0l199 456q47 8 100 9 27 0 53.5-2t49.5-7l-203-456q-29-6-54.5-7t-48.5-1q-27 0-50 1t-46 7z"/><glyph unicode="„" horiz-adv-x="868" d="M23-229l194 452q27 6 51.5 8t48.5 2q27 0 53.5-2t49.5-8L219-229q-27-4-52.5-6.5T119-238q-55 0-96 9zm385 0l194 452q27 6 51.5 8t48.5 2q27 0 53.5-2t49.5-8L604-229q-27-4-52.5-6.5T504-238q-55 0-96 9z"/><glyph unicode="•" horiz-adv-x="833" d="M270 713q0 53 20.5 101t56.5 84 84 56.5T535 975q53 0 101-20.5t84-56.5 56.5-84T797 713q0-55-20.5-103.5T720 525t-84-56-101-20q-55 0-103.5 20T347 525t-56.5 84.5T270 713z"/><glyph unicode="…" horiz-adv-x="1488" d="M125 0q0 57 11 113.5T164 227q29 4 57.5 6.5T279 236t57.5-2.5T391 227q0-59-10-113.5T354 0q-33-4-60.5-6T238-8q-29 0-56.5 2T125 0zm504 0q0 57 11 113.5T668 227q29 4 57.5 6.5T783 236t57.5-2.5T895 227q0-59-10-113.5T858 0q-33-4-60.5-6T742-8q-29 0-56.5 2T629 0zm504 0q0 57 11 113.5t28 113.5q29 4 57.5 6.5t57.5 2.5 57.5-2.5 54.5-6.5q0-59-10-113.5T1362 0q-33-4-60.5-6T1246-8q-29 0-56.5 2T1133 0z"/><glyph horiz-adv-x="383"/><glyph unicode="‹" horiz-adv-x="712" d="M176 555l428 444q25 4 55.5 6.5t57.5 2.5q29 0 61.5-2t61.5-7L408 543 672 92q-29-4-57.5-6T557 84q-27 0-52.5 2T455 92z"/><glyph unicode="›" horiz-adv-x="755" d="M94 92l436 467-268 440q29 4 57.5 6.5t57.5 2.5q27 0 52.5-2t49.5-7l279-467L328 92q-25-4-54.5-6T215 84t-60.5 2T94 92z"/><glyph horiz-adv-x="479"/><glyph unicode="€" d="M150 483q0 35 5 71t21 71h143q6 98 25 190H209q0 33 5 70t19 71h150q39 113 102.5 207T636 1326t198.5 106.5T1083 1470q104 0 183.5-16t126.5-39q-10-49-23.5-86t-40.5-84q-59 23-116.5 33t-135.5 10q-92 0-166.5-24.5t-132-68.5T678 1090.5 608 956h535q2-10 2-17v-15q0-33-7.5-59.5T1120 815H565q-10-47-14-94t-8-96h544q0-33-6-71t-20-71H547q14-160 94-241.5T885 160q78 0 144.5 14t131.5 43q39-74 45-172-41-18-88-31.5T1023-8t-93-12.5-82-4.5q-260 0-389 135.5T319 483H150z"/><glyph unicode="™" horiz-adv-x="1691" d="M238 1370q0 35 6 78h618q4-20 6-37.5t2-38.5q0-18-2-36.5t-6-37.5H633V629q-23-4-41.5-6t-40.5-2q-18 0-37.5 2t-38.5 6v669H244q-6 37-6 72zm716-741l41 819q25 2 45.5 4t40.5 2q18 0 40-2t46-4l203-449 201 449q23 2 42 4t40 2q20 0 41.5-2t44.5-4l41-819q-25-4-42.5-6t-37.5-2q-16 0-35.5 1t-42.5 7l-31 522-176-367q-16-4-28.5-5t-28.5-1q-20 0-60 6l-161 361-27-516q-41-8-76-8-39 0-80 8z"/><glyph unicode="◼" horiz-adv-x="1054" d="M0 0v1055h1055V0H0z"/></font>
</defs>
</svg>
