<svg xmlns="http://www.w3.org/2000/svg"><defs><font id="aller_lightregular" horiz-adv-x="1228"><font-face units-per-em="2048" ascent="1638" descent="-410"/><glyph unicode="ﬁ" horiz-adv-x="1189" d="M72 985q0 16 1 32.5t3 26.5h178v93q0 193 101.5 289t299.5 96q33 0 60.5-2t57.5-6.5 62.5-12.5 75.5-22q0-31-11-60.5t-23-56.5q-29 10-52.5 18.5t-48 13.5-51.5 8-63 3q-66 0-117-11.5t-86-42-52.5-84T389 1130v-86h621V0q-12-2-34-3t-34-1q-10 0-32.5 1T874 0v930H389V0q-12-2-33.5-3T322-4q-10 0-33 1t-35 3v930H76q-2 10-3 24.5T72 985z"/><glyph unicode="ﬂ" horiz-adv-x="1226" d="M72 985q0 16 1 32.5t3 26.5h178v93q0 193 100.5 289t311.5 96q98 0 179-13.5t126-23.5V242q0-53 12-83t30.5-43.5 41-16.5 41.5-3q23 0 47 3t41 7q10-25 14-53t6-53q-29-10-64.5-14t-66.5-4q-43 0-86 9t-76.5 34.5-54 69.5T836 211v1180q-37 8-84 12t-93 4q-66 0-116.5-11.5t-84.5-42-51.5-85T389 1130v-86h266q2-10 3-26.5t1-32.5-1-30.5-3-24.5H389V0q-12-2-33.5-3T322-4q-10 0-33 1t-35 3v930H76q-2 10-3 24.5T72 985z"/><glyph unicode="ﬃ" horiz-adv-x="1816" d="M72 985q0 16 1 32.5t3 26.5h178v82q0 193 85 289t269 96q43 0 83-7t65-13q-4-39-13.5-64.5T723 1376q-18 4-48 10.5t-65 6.5q-53 0-94-11.5t-68.5-41-43-83T389 1120v-76h492v93q0 193 101 289t300 96q33 0 60.5-2t57.5-6.5 62.5-12.5 75.5-22q0-31-11-60.5t-24-56.5q-29 10-52.5 18.5t-48 13.5-51 8-63.5 3q-66 0-117-11.5t-85.5-42-52-84T1016 1130v-86h620V0q-12-2-33.5-3T1569-4q-10 0-33 1t-35 3v930h-485V0q-12-2-33.5-3T948-4q-10 0-32.5 1T881 0v930H389V0q-12-2-33.5-3T322-4q-10 0-33 1t-35 3v930H76q-2 10-3 24.5T72 985z"/><glyph unicode="ﬄ" horiz-adv-x="1853" d="M72 985q0 16 1 32.5t3 26.5h178v82q0 193 85 289t269 96q43 0 83-7t65-13q-4-39-13.5-64.5T723 1376q-18 4-48 10.5t-65 6.5q-53 0-94-11.5t-68.5-41-43-83T389 1120v-76h492v93q0 193 100 289t311 96q98 0 179-13.5t126-23.5V242q0-53 12.5-83t31-43.5 41-16.5 40.5-3q23 0 47.5 3t40.5 7q10-25 14.5-53t6.5-53q-29-10-64.5-14t-66.5-4q-43 0-86 9t-77 34.5-54.5 69.5-20.5 116v1180q-37 8-84 12t-92 4q-66 0-117-11.5t-84.5-42-51-85T1016 1130v-86h266q2-10 3-26.5t1-32.5-1-30.5-3-24.5h-266V0q-12-2-33.5-3T948-4q-10 0-32.5 1T881 0v930H389V0q-12-2-33.5-3T322-4q-10 0-33 1t-35 3v930H76q-2 10-3 24.5T72 985z"/><glyph horiz-adv-x="0"/><glyph horiz-adv-x="1024"/><glyph horiz-adv-x="512"/><glyph horiz-adv-x="512"/><glyph horiz-adv-x="512"/><glyph unicode="!" horiz-adv-x="579" d="M197 86q0 45 6 88 43 6 86 6 45 0 88-6 6-43 6-86 0-45-6-88-43-6-86-6-45 0-88 6-6 43-6 86zm26 1387q16 2 32.5 3t33.5 1q20 0 39.5-1t40.5-3l-9-1053q-16-2-32.5-3t-32.5-1-31.5 1-32.5 3z"/><glyph unicode="&quot;" horiz-adv-x="845" d="M154 922v551q14 2 34.5 3t36.5 1q18 0 37-1t33-3V922q-14-2-32.5-3t-37.5-1q-16 0-36.5 1t-34.5 3zm397 0v551q14 2 34.5 3t36.5 1q18 0 37-1t33-3V922q-14-2-32.5-3t-37.5-1q-16 0-36.5 1t-34.5 3z"/><glyph unicode="#" horiz-adv-x="1507" d="M147 489q0 16 1.5 33t3.5 33h280l35 406H195q-6 27-7 57 0 29 7 59h282l29 338q18 4 35.5 4h67l30.5-2-29-340h424l29 338q18 4 36.5 4h68l30.5-2-29-340h258q2-12 3.5-24.5t1.5-26.5q0-16-1-32.5t-4-32.5h-268l-35-406h258q2-12 3-25.5t1-27.5q0-16-1-32.5t-3-33.5h-268l-31-377q-16-2-32.5-3t-32.5-1-32.5 1-33.5 3l31 377H559L528 59q-16-2-34.5-3T459 55t-34.5 1-35.5 3l33 377H152q-2 12-3.5 25.5T147 489zm420 66h424l35 406H600z"/><glyph unicode="$" d="M170 33q4 31 14.5 66.5T207 164q29-8 59.5-18.5T335 127t85-14.5 108-6.5q195 0 286 83t91 210q0 61-15.5 104.5t-53 79-104 68.5T565 723q-72 27-136 56.5T315.5 852t-78 103.5T209 1108q0 143 89 236.5T559 1464v185q27 6 57 6 29 0 60-6v-176q45 0 91-4.5t87-10.5 75-14 54-14q-4-31-11-63t-18-60q-49 16-125.5 29.5T676 1350q-170 0-244-66.5T358 1110q0-55 22.5-95t62.5-70 95.5-54.5T657 842q86-35 161-71t128-84 84-113.5 31-159.5q0-178-102.5-286T676-10v-232q-29-6-55-6-31 0-62 6v219q-12-2-20.5-2H520Q399-25 319.5-7.5T170 33z"/><glyph unicode="%" horiz-adv-x="2150" d="M86 1038q0 92 23.5 171t69.5 137.5 117 92.5 167 34q94 0 164.5-34t117-92.5 70-137.5 23.5-171-23.5-172-70-138-118-91T461 604t-165 33-117 91-69.5 138T86 1038zm143 0q0-154 54.5-235.5T461 721q119 0 176 82t57 235q0 154-54 236t-177 82q-119 0-176.5-82T229 1038zM506 0l991 1448q16 2 33.5 3t34.5 1q20 0 39.5-1t40.5-3L655 0q-20-4-38.5-4H542l-36 4zm778 413q0 92 23.5 171t69.5 137.5 117 92.5 167 34q94 0 164.5-34t117-92.5 70-137.5 23.5-171-23.5-172-70-138-118-91T1659-21t-165 33-117 91-69.5 138-23.5 172zm143 0q0-154 54.5-235.5T1659 96q119 0 176 82t57 235q0 154-54 236t-177 82q-119 0-176.5-82T1427 413z"/><glyph unicode="&amp;" horiz-adv-x="1556" d="M137 418q0 61 18.5 127.5t53.5 125T294 776t114 72q-96 35-160 108.5T184 1157q0 88 34 152.5t92.5 105.5 136 61.5T610 1497q49 0 107.5-6t124.5-27q-4-37-11.5-59.5T809 1356q-43 10-87 18t-101 8q-78 0-133.5-20.5t-90.5-52-52-72.5-17-82q0-111 70.5-166T623 934h507v186l127 123h9V934h256q2-14 3-29.5t1-32.5q0-16-1-31.5t-3-31.5h-256V469q0-125-43-217T1103 98.5 919.5 6 684-25Q571-25 472 1T298 80 180 217t-43 201zm154 12q0-152 102.5-235.5T688 111q137 0 222 32.5t132.5 88 65.5 128 22 152.5v297H664q-88 0-157-32t-117-85-73.5-120.5T291 430z"/><glyph unicode="'" horiz-adv-x="448" d="M154 922v551q14 2 34.5 3t36.5 1q18 0 37-1t33-3V922q-14-2-32.5-3t-37.5-1q-16 0-36.5 1t-34.5 3z"/><glyph unicode="(" horiz-adv-x="593" d="M102 623q0 154 22.5 299t59.5 271 83 227.5 91 168.5q16 2 32 3t32 1q18 0 34.5-1t35.5-3q-25-45-68-129t-84-207-70.5-280.5T240 623q0-193 29.5-350.5T340-7t84-206 68-129q-16-2-37-3t-39-1q-14 0-28.5 1t-29.5 3q-45 68-91 168T184 52t-59.5 271.5T102 623z"/><glyph unicode=")" horiz-adv-x="593" d="M102-342q25 45 68 129T254-7t70.5 279.5T354 623t-29.5 350-70.5 280-84 207-68 129q18 2 35 3t35 1q16 0 31.5-1t32.5-3q45-68 91-169t82.5-227T469 921.5 492 623q0-154-23-299.5T409.5 52 327-174t-91-168q-14-2-28.5-3t-29.5-1q-18 0-39 1t-37 3z"/><glyph unicode="*" horiz-adv-x="995" d="M117 1157q6 53 33 98l243-69q-10-61-37-119zm125-354l141 211q51-27 102-72L326 741q-53 25-84 62zm213 416l12 254q25 6 51 6 23 0 51-6l11-254q-16-4-30.5-4.5t-31.5-.5h-31.5l-31.5 5zm92-277q45 43 100 76l141-215q-20-20-39.5-34.5T705 743zm84 246l248 67q14-25 22-48t8-50l-237-88q-12 27-22.5 57.5T631 1188z"/><glyph unicode="+" d="M193 684.5v67l4 32.5h352v379q16 2 32.5 3t32.5 1 33-1 35-3V784h352q2-16 3-32.5t1-32.5-1-33.5-3-34.5H682V272q-18-4-34.5-4h-66l-32.5 4v379H197q-4 16-4 33.5z"/><glyph unicode="," horiz-adv-x="419" d="M61-231l111 405q16 2 34.5 3t35.5 1q16 0 34.5-1t36.5-3L203-231q-20-4-38-4.5t-34-.5H95.5L61-231z"/><glyph unicode="-" horiz-adv-x="722" d="M88 582q0 16 1 37.5t3 31.5h539q2-10 3-31.5t1-37.5-1-37-3-31H92q-2 10-3 30.5T88 582z"/><glyph unicode="." horiz-adv-x="419" d="M117 86q0 45 6 88 43 6 86 6 45 0 88-6 6-43 6-86 0-45-6-88-43-6-86-6-45 0-88 6-6 43-6 86z"/><glyph unicode="/" horiz-adv-x="841" d="M106 0l498 1473q31 6 62 6 33 0 69-6L236 0q-31-6-68-6-31 0-62 6z"/><glyph unicode="0" d="M111 653q0 147 32.5 272.5t96 215.5 158 140 216.5 50q123 0 217.5-50t158-140 96-215 32.5-273q0-147-32.5-272t-96-215-158-140.5T614-25 397 25.5 239.5 166t-96 215T111 653zm147 0q0-274 92-411.5T614 104q170 0 262.5 137.5T969 653t-92.5 411.5T614 1202t-263-137-93-412z"/><glyph unicode="1" d="M229 1065l512 262h11V123h292q2-16 4.5-29.5T1051 63q0-16-2-31.5T1044 0H297q-4 16-4 57 0 20 1 40t3 26h315v1003L283 965q-18 20-30.5 45.5T229 1065z"/><glyph unicode="2" d="M121 27l399 426q61 66 115.5 127T730 702.5t63.5 122T817 950q0 129-75.5 191.5T522 1204q-104 0-183-26.5T199 1122q-10 27-19.5 58.5T162 1243q55 27 147 58.5t211 31.5q100 0 183-22.5t141.5-69.5 90.5-117.5T967 956q0-66-18.5-129T892 698.5t-95.5-136T664 412L399 131h625q2-16 3-34.5t1-37.5q0-16-1-30.5T1024 0H131z"/><glyph unicode="3" d="M113-92q18 59 57 123 55-27 130-43.5T467-29q88 0 165 17.5T765 48t88 111.5T885 332q0 129-85 198.5T555 600q-45 0-89-3t-91-13l-15 24 392 574H170q-4 16-4 30.5v64l4 34.5h809l8-17-403-581q10 2 23.5 2H631q109 0 184.5-37T939 584.5t69.5-124T1030 332q0-133-46-226.5T860-47t-179-87-214-28q-43 0-90 4t-95.5 13.5T189-122t-76 30z"/><glyph unicode="4" d="M96 176l615 1178q25-4 55.5-16.5T829 1307L311 285h504v436q37 6 70 6t67-6V285h219q6-35 7-66 0-33-7-63H952v-279q-18-4-35.5-4H849l-34 4v279H111z"/><glyph unicode="5" d="M150-104q6 31 16 60.5T197 18q55-23 116.5-35T471-29q86 0 160 17.5T759 47t86 109.5T877 328q0 61-16.5 118.5T803 549t-110.5 72.5T518 649q-66 0-130-10t-103-16l-15 14 27 674h668q4-16 4-30.5v-65l-4-33.5H424l-14-420q41 8 90 10t65 2q102 0 187.5-30.5t145.5-87T992 518t34-186q0-133-46-226.5T857-47t-178-87-212-28q-98 0-178 15.5T150-104z"/><glyph unicode="6" d="M150 563q0 174 43 334t135 286 235.5 210T907 1499q6-18 9.5-40.5t3.5-39.5q0-33-2-43-131-14-233.5-63T505 1187t-126-177.5T305 793q-4-23-8-43.5t-6-42.5q51 98 151.5 161.5T680 932q78 0 155.5-26.5t139-83T1074 677t38-214q0-119-41-210T962.5 100.5 809 7 635-25Q526-25 436 6T282.5 106.5t-98 181T150 563zm157-121q0-172 84-254t236-82q72 0 134 23t108 68 72 110.5T967 457q0 92-26 157.5T872 721t-101 60.5T647 801q-68 0-129-25.5t-108.5-72-75-113T307 442z"/><glyph unicode="7" d="M141 1239q0 37 6 72h947l6-6L461-154q-43 10-73 23.5T332-92l565 1274H145q-2 12-3 28.5t-1 28.5z"/><glyph unicode="8" d="M119 367q0 92 31.5 159.5t82 116.5 112 82T463 780q-57 23-107.5 54.5T267 909t-59.5 98.5T186 1135q0 76 33 138t89.5 107 135 69 170.5 24 171-24 135.5-69 89-107.5T1042 1135q0-72-21.5-127.5t-59-98.5-88-74.5T766 780q57-23 118.5-55.5t112-81.5 82-116.5T1110 367q0-106-43-181T954.5 64.5t-159-68T614-25 433-3.5t-158.5 68-112.5 121T119 367zm157 14q0-129 85-204t253-75 253 76 85 205q0 66-26.5 118T854 593t-107.5 69.5T614 715q-72-23-133-52.5T375 592t-72-93.5T276 381zm54 735q0-57 24.5-100t64.5-76 91-55.5T614 848q53 14 104.5 36.5T810 940t64.5 76 24.5 100q0 109-72 172.5T614 1352t-212.5-63.5T330 1116z"/><glyph unicode="9" d="M121 838q0 119 41 210t108.5 152.5 152.5 93 175 31.5q109 0 199-30.5T950.5 1194t98-182.5T1083 737q0-174-43-333.5T905 118 669.5-92 326-199q-12 37-13 88v18.5l2 16.5q131 14 233.5 63.5t179.5 126 126 177T928 508q4 23 8 43t6 43q-51-98-151.5-161.5T553 369q-78 0-156 26.5t-139 83T159 624t-38 214zm145 6q0-92 25.5-157.5T360 580t101.5-60.5T586 500q68 0 129 25.5T823 597t75 112.5T926 858q0 172-84 254t-236 82q-72 0-134-23.5T363.5 1103t-72-109.5T266 844z"/><glyph unicode=":" horiz-adv-x="419" d="M117 86q0 45 6 88 43 6 86 6 45 0 88-6 6-43 6-86 0-45-6-88-43-6-86-6-45 0-88 6-6 43-6 86zm0 877q0 45 6 88 43 6 86 6 45 0 88-6 6-43 6-86 0-45-6-88-43-6-86-6-45 0-88 6-6 43-6 86z"/><glyph unicode=";" horiz-adv-x="454" d="M61-231l111 405q16 2 34.5 3t35.5 1q16 0 34.5-1t36.5-3L203-231q-20-4-38-4.5t-34-.5H95.5L61-231zm91 1194q0 45 6 88 43 6 86 6 45 0 88-6 6-43 6-86 0-45-6-88-43-6-86-6-45 0-88 6-6 43-6 86z"/><glyph unicode="&lt;" d="M170 715q0 47 8 73l856 355q6-35 6-68 0-51-6-76L324 713l710-279q8-31 8-69 0-35-2-53.5t-6-28.5L178 637q-4 14-6 31.5t-2 46.5z"/><glyph unicode="=" d="M174 526q0 16 1 38.5t3 33.5h873q2-10 3-33t1-39-1-36.5-3-31.5H178q-2 10-3 30.5t-1 37.5zm0 373q0 16 1 38.5t3 33.5h873q2-10 3-33t1-39-1-36.5-3-31.5H178q-2 10-3 30.5t-1 37.5z"/><glyph unicode="&gt;" d="M170 1061q0 35 2 53.5t6 28.5l856-355q4-14 6-31.5t2-45.5q0-47-8-74L178 283q-6 33-6 67 0 51 6 76l711 287-711 278q-8 31-8 70z"/><glyph unicode="?" horiz-adv-x="993" d="M88 1427q90 29 163 40.5t163 11.5q240 0 362.5-108.5T899 1075q0-104-45-181T747.5 767t-124-79-97.5-39V420q-18-2-36.5-3t-34.5-1-35 1-33 3v317l70 23q51 16 103 41.5t94 62.5 68 88.5 26 118.5q0 139-98.5 210T393 1352q-96 0-153.5-14.5T127 1305q-12 29-20.5 57.5T88 1427zM367 90q0 45 6 88 43 6 86 6 45 0 88-6 6-43 6-86 0-45-6-88-43-6-86-6-45 0-88 6-6 43-6 86z"/><glyph unicode="@" horiz-adv-x="2091" d="M133 432q0 123 28.5 250t87 244.5 146.5 221T604 1328t274.5 122 342.5 45q156 0 291-42t234-127 155.5-214 56.5-303q0-127-36-250t-103.5-220-167-157.5T1423 121q-137 0-223 55-59-39-137-56.5T907 102q-76 0-135 25t-99 68-60.5 100T592 418q0 141 47 260t128 205 189.5 134 229.5 48q74 0 137-11.5t131-29.5l-158-758q29-23 67-29t71-6q92 0 163.5 53.5T1719 422t76 186.5 26 200.5q0 276-161 419.5T1206 1372q-221 0-394-80t-292-211-180-299-61-342q0-170 48-291.5T459-51t197.5-115T901-203q94 0 181 16.5t159 41.5q6-16 15.5-42t15.5-67q-74-31-173.5-48T866-319q-154 0-287 46T347-134 190.5 100.5 133 432zm610 17q0-115 50.5-169.5T956 225q49 0 95.5 11.5T1157 279l133 649q-51 14-106 14-92 0-172-37T872.5 802.5 778 646t-35-197z"/><glyph unicode="A" horiz-adv-x="1232" d="M41 0l491 1473q14 2 39 3t45 1q23 0 46.5-1t37.5-3L1192 0q-12-2-34.5-3T1114-4q-18 0-38.5 1T1040 0L918 375H311L195 0q-16-2-38-3t-40-1Q97-4 75-3T41 0zm311 506h525l-265 819z"/><glyph unicode="B" horiz-adv-x="1202" d="M207 0v1473q20 2 58 6t81 8 87 6 79 2q242 0 371-93t129-290q0-63-19.5-115.5T940 902t-77-70.5-91-43.5q63-8 122.5-33.5t106-71.5 74-114.5T1102 403q0-111-44-190.5T935 80 748.5 1 514-25q-33 0-74 2.5T357-17t-81.5 8T207 0zm141 115q29-4 77-7.5t101-3.5q80 0 157 14.5T819.5 168t95 92T950 403t-30.5 144.5-84 95.5-125 53.5T557 713H348V115zm0 731h195q166 0 242.5 73.5T862 1112q0 111-81 185.5T526 1372q-53 0-101-4t-77-8V846z"/><glyph unicode="C" horiz-adv-x="1265" d="M131 721q0 184 48 328.5t135 244T525 1445t278 52q129 0 215-18.5t125-30.5q-4-37-11.5-61.5T1110 1327q-27 8-54.5 16.5T993 1358t-81 10-107 4q-121 0-217-44t-164-128-104.5-205T283 721q0-158 41-274.5T437.5 253t170-114T817 102q96 0 175 18.5t132 47.5q16-31 28.5-59.5T1171 49q-70-35-166-54.5T803-25q-150 0-273.5 49.5T317.5 168 180 401.5 131 721z"/><glyph unicode="D" horiz-adv-x="1431" d="M207 0v1473q29 4 70.5 8t89 7 94.5 5 86 2q193 0 335-52t235-149.5 138-238 45-316.5q0-764-753-764-43 0-92 2.5T359.5-17 273-9t-66 9zm141 123q37-4 87-8t104-4q141 0 254.5 30.5t193.5 104T1110 441t43 304q0 317-163 466t-451 149q-47 0-101.5-2t-89.5-8V123z"/><glyph unicode="E" horiz-adv-x="1105" d="M207 0v1473h788q2-12 3-30t1-34q0-14-1-33.5t-3-32.5H348V846h520q2-12 3-29.5t1-34.5q0-14-1-33.5t-3-31.5H348V129h666q2-12 3-29.5t1-33.5q0-14-1-34t-3-32H207z"/><glyph unicode="F" horiz-adv-x="1028" d="M207 0v1473h723q2-12 3-30t1-34q0-14-1-33.5t-3-32.5H348V846h504q2-12 3-29.5t1-34.5q0-14-1-33.5t-3-31.5H348V0q-14-2-32.5-3T279-4q-20 0-40 1t-32 3z"/><glyph unicode="G" horiz-adv-x="1413" d="M133 721q0 184 51.5 328.5t142.5 244T542 1445t269 52q129 0 215-17.5t139-33.5q-4-37-11-63.5t-21-61.5q-45 16-121 33.5T819 1372t-215-44-168.5-128T325 995t-40-274q0-158 43-273.5T444.5 256t173-113T829 106q92 0 155 7.5t108 23.5v623q14 2 34.5 3t36.5 1q18 0 37-1t33-3V43q-35-18-83-30.5T1047.5-8 936-20.5 823-25q-147 0-274 47.5T330 164 185.5 397.5 133 721z"/><glyph unicode="H" horiz-adv-x="1421" d="M207 0v1473q14 2 34.5 3t37.5 1q18 0 36.5-1t32.5-3V846h725v627q14 2 32.5 3t37.5 1q16 0 36.5-1t34.5-3V0q-12-2-31.5-3T1143-4q-18 0-37 1t-33 3v717H348V0q-14-2-32.5-3T279-4q-20 0-40 1t-32 3z"/><glyph unicode="I" horiz-adv-x="555" d="M207 0v1473q14 2 34.5 3t37.5 1q18 0 36.5-1t32.5-3V0q-14-2-32.5-3T279-4q-20 0-40 1t-32 3z"/><glyph unicode="J" horiz-adv-x="788" d="M61 2q6 57 35 125 27-8 62-15.5t75-7.5q37 0 75 7.5t71 29 53.5 62.5T453 311v1037H182q-2 10-3 27.5t-1 33.5q0 14 1 33.5t3 30.5h410V293q0-90-28.5-151.5t-77-98.5-110-52.5T250-25q-61 0-107.5 8.5T61 2z"/><glyph unicode="K" horiz-adv-x="1214" d="M207 0v1473q14 2 34.5 3t37.5 1q18 0 36.5-1t32.5-3V0q-14-2-32.5-3T279-4q-20 0-40 1t-32 3zm237 754l519 719q16 2 33.5 3t33.5 1q23 0 43.5-1t42.5-3L612 768 1194 0q-23-2-46.5-3T1102-4q-18 0-38 1t-38 3z"/><glyph unicode="L" horiz-adv-x="1017" d="M207 0v1473q12 2 31.5 3t40.5 1q18 0 36.5-1t32.5-3V129h629q2-12 3-31.5t1-34.5q0-16-1-33.5T977 0H207z"/><glyph unicode="M" horiz-adv-x="1669" d="M176 0l72 1473q12 2 38.5 3t49.5 1 49.5-1 40.5-3l412-981 407 981q12 2 40 3t48 1 47-1 41-3L1493 0q-14-2-32.5-3T1423-4q-20 0-39.5 1T1352 0l-56 1253-405-948q-14-4-28.5-4h-56l-28.5 4-401 950L317 0q-14-2-32.5-3T248-4q-20 0-40 1t-32 3z"/><glyph unicode="N" horiz-adv-x="1409" d="M207 0v1473q14 2 37.5 3t40.5 1q16 0 38.5-1t36.5-3l705-1233v1233q14 2 31.5 3t36.5 1q16 0 35.5-1t33.5-3V0q-12-2-35.5-3T1124-4q-16 0-38.5 1T1049 0L344 1223V0q-14-2-31.5-3T276-4q-20 0-38.5 1T207 0z"/><glyph unicode="O" horiz-adv-x="1478" d="M131 737q0 166 38 305.5T281.5 1283 471 1440.5t268 56.5q154 0 268.5-56.5T1197 1283t113-240.5 38-305.5-38-306-113-241.5-189.5-158T739-25 470.5 31.5t-189 158T169 431t-38 306zm148 0q0-139 27.5-255.5T390 281t143-130.5T739 104t205 46.5T1087.5 281t85 200.5T1200 737t-27.5 256-85 200T944 1322t-205 46-206-46-143-129-83.5-199.5T279 737z"/><glyph unicode="P" horiz-adv-x="1134" d="M207 0v1473q20 2 57 7t81 8 90 6 83 3q121 0 219.5-24.5t169-78T1016 1256t39-205q0-129-44-221.5T892 680t-174.5-84T510 569q-47 0-82 2t-80 7V0q-14-2-32.5-3T279-4q-20 0-40 1t-32 3zm141 709q20-2 35.5-3t31-2.5 35-2.5 50.5-1q74 0 145.5 12.5t130 50.5 94 106.5T905 1051q0 90-27.5 150.5t-78.5 97-125 53-164 16.5q-53 0-94-3t-68-7V709z"/><glyph unicode="Q" horiz-adv-x="1478" d="M131 737q0 166 38 305.5T281.5 1283 471 1440.5t268 56.5q154 0 268.5-56.5T1197 1283t113-240.5 38-305.5-38-306-113-241.5-189.5-158T739-25 470.5 31.5t-189 158T169 431t-38 306zm148 0q0-139 27.5-255.5T390 281t143-130.5T739 104t205 46.5T1087.5 281t85 200.5T1200 737t-27.5 256-85 200T944 1322t-205 46-206-46-143-129-83.5-199.5T279 737zm606-923q0 35 7 63.5T911-63l443-84q0-35-5.5-65t-19.5-62z"/><glyph unicode="R" horiz-adv-x="1202" d="M207 0v1479q45 4 78.5 7t65.5 6 67 4 82 1q98 0 193-20.5t171-70.5 122-135 46-214q0-80-28.5-145.5t-74.5-118-106.5-90T698 641l-16-6L1151 0q-20-4-40.5-4h-81L989 0 473 682v8l45 12q70 18 135.5 48T769 822t81 99.5 31 135.5q0 160-98.5 239.5T516 1376q-43 0-80-2t-88-8V0q-14-2-34.5-3T276-4q-18 0-36.5 1T207 0z"/><glyph unicode="S" horiz-adv-x="1107" d="M115 33q4 31 14.5 66.5T152 164q29-8 59.5-18.5t68-18.5 85-14.5T473 106q98 0 169 24t117 63.5 68.5 94T850 406q0 61-15.5 105T781 592t-104.5 70.5T510 735q-72 27-136.5 57.5T260 867t-77.5 105.5T154 1126q0 166 119.5 268.5T623 1497q45 0 91-4t86-10 73.5-14.5T928 1454q-4-31-11.5-62.5T899 1331q-49 16-126 29.5T621 1374q-170 0-244-69.5T303 1128q0-55 22.5-96t62.5-71.5 95.5-56T602 854q86-35 161-72t128-86 84-115.5 31-160.5q0-106-38-189.5T860.5 91t-170-86T465-25Q344-25 264-7.5T115 33z"/><glyph unicode="T" horiz-adv-x="1013" d="M37 1409q0 14 1 32.5t3 31.5h932q2-12 3-29t1-33q0-14-1-33.5t-3-31.5H578V0q-14-2-33-3t-37-1q-20 0-39.5 1T436 0v1346H41q-2 12-3 29.5t-1 33.5z"/><glyph unicode="U" horiz-adv-x="1384" d="M190 565v908q14 2 35 3t37 1q18 0 36.5-1t33.5-3V584q0-129 21.5-218.5T419 219t111.5-82.5T692 111q186 0 273.5 108.5T1053 584v889q14 2 32.5 3t36.5 1q16 0 37-1t35-3V565q0-295-121-442.5T692-25 311 122.5 190 565z"/><glyph unicode="V" horiz-adv-x="1263" d="M63 1473q12 2 36 3t44 1q18 0 43-1t39-3L637 139l405 1334q16 2 38 3t40 1q20 0 44-1t36-3L717 0q-14-2-41-3t-45-1q-20 0-45 1t-39 3z"/><glyph unicode="W" horiz-adv-x="1886" d="M74 1473q12 2 36.5 3t45.5 1q18 0 42.5-1t39.5-3L522 158l338 1315q12 2 40 3t46 1q16 0 45-1t43-3l336-1315 289 1315q16 2 35.5 3t38.5 1q20 0 43.5-1t35.5-3L1456 0q-14-2-43-3t-47-1q-20 0-50 1t-44 3L942 1282 614 0q-14-2-42.5-3T524-4q-20 0-50 1t-44 3z"/><glyph unicode="X" horiz-adv-x="1210" d="M51 0l395 772-342 701q23 2 39.5 3t38.5 1q16 0 38-1t38-3l338-697L203 0q-16-4-37-4h-37q-18 0-38.5 1T51 0zm561 776l340 697q16 2 37 3t37 1q23 0 38-1t38-3L760 784 1159 0q-18-2-39.5-3T1079-4q-16 0-34.5 1T1008 0z"/><glyph unicode="Y" horiz-adv-x="1175" d="M49 1473q12 2 34.5 3t43.5 1q18 0 44-1t40-3l385-779 379 779q16 2 35.5 3t38.5 1q20 0 42.5-1t34.5-3L664 547V0q-14-2-33-3t-37-1q-20 0-39.5 1T522 0v547z"/><glyph unicode="Z" horiz-adv-x="1136" d="M29 16l833 1327H147q-2 10-3 29t-1 35 1 35.5 3 30.5h936l11-15L254 129h772q2-10 3-30.5t1-37.5q0-16-1-33.5T1026 0H39z"/><glyph unicode="[" horiz-adv-x="616" d="M102-344v1876h406q2-14 3-28.5t1-30.5-1-32-3-26H240V-229h268q2-12 3-25.5t1-30.5q0-16-1-31.5t-3-27.5H102z"/><glyph unicode="\" horiz-adv-x="841" d="M94 1473q37 6 68 6 33 0 63-6L723 0q-31-6-61-6-37 0-68 6z"/><glyph unicode="]" horiz-adv-x="616" d="M104-255.5q0 13.5 5 26.5h268v1644H109q-4 10-4.5 25.5t-.5 32.5v30.5l5 28.5h405V-344H109q-4 12-4.5 27.5T104-285v29.5z"/><glyph unicode="^" horiz-adv-x="1128" d="M145 762l336 711q18 4 40 5t38 1q43 0 86-6l336-711H846l-285 608-280-608H145z"/><glyph unicode="_" horiz-adv-x="1036" d="M2-104q0 31 8 55h1020q6-29 6-57 0-29-6-56H10q-8 25-8 58z"/><glyph unicode="`" horiz-adv-x="1024" d="M297 1481q23 2 47.5 3t48.5 1h46.5l45.5-4 240-267q-37-6-68-6-47 0-84 6z"/><glyph unicode="a" horiz-adv-x="1050" d="M113 297q0 82 31.5 146.5t88 108.5 135 66.5T541 641q74 0 127-5t88-9v63q0 135-63.5 197.5T504 950q-82 0-149.5-11T233 911q-10 18-17 53t-7 66q53 16 131 27.5t160 11.5q199 0 295-87t96-273V18Q819 4 716.5-10.5T522-25q-190 0-299.5 76T113 297zm135 4q0-68 25.5-108.5t66.5-62 90-29 98-7.5q63 0 118.5 6T756 117v391q-35 4-87.5 9t-99.5 5q-154 0-237.5-57T248 301z"/><glyph unicode="b" horiz-adv-x="1208" d="M180 31v1474q12 2 34 3t34 1q10 0 32.5-1t34.5-3V899q43 66 124 118t210 52q96 0 176-29.5t136.5-93 88-160T1081 555q0-272-149.5-426T500-25q-92 0-178 17.5T180 31zm135 94q47-16 99.5-23.5T526 94q82 0 157 26.5t131 82T904 343t34 204q0 186-70.5 292.5T639 946q-49 0-106.5-16.5t-105.5-55-80-103T315 608V125z"/><glyph unicode="c" horiz-adv-x="983" d="M121 522q0 117 32.5 216.5t96 173 159 115.5 220.5 42q78 0 148.5-11t111.5-26q0-27-7.5-61.5T866 915q-41 14-103.5 24.5T629 950q-92 0-161-31.5t-115-89T284.5 694 262 522q0-221 105.5-324.5T653 94q61 0 117.5 10.5T872 131q10-20 19.5-55T905 18Q854 0 788.5-12.5T643-25q-256 0-389 140.5T121 522z"/><glyph unicode="d" horiz-adv-x="1198" d="M127 500q0 135 37 240.5t104.5 178T431 1030t210 39q68 0 134.5-11t107.5-26v473q12 2 34.5 3t32.5 1q12 0 34-1t34-3V25Q955 5 860.5-10T664-25Q551-25 452.5 2t-170 88.5T169 252t-42 248zm141 4q0-213 101.5-310.5T657 96q68 0 129.5 7.5T883 121v784q-41 16-104.5 29.5T647 948q-96 0-166.5-32.5t-118-91-71-140.5T268 504z"/><glyph unicode="e" horiz-adv-x="1132" d="M123 516q0 115 27.5 215t84 176T379 1026t211 43q102 0 182-35t134.5-97.5 82-149.5 27.5-189q0-18-1-47t-3-49H266q0-209 96.5-307.5T651 96q78 0 144.5 13.5T926 145q10-23 16-55.5t8-58.5Q891 4 811-10.5T637-25q-135 0-232.5 40t-160 112-92 171T123 516zm147 98h611q0 63-16.5 125T813 847t-90 74.5T590 950q-143 0-223-88t-97-248z"/><glyph unicode="f" horiz-adv-x="716" d="M72 985q0 16 1 32.5t3 26.5h178v93q0 193 85 289t269 96q43 0 79-5.5t61-11.5q-4-39-9.5-63.5T725 1389q-18 4-49 9t-66 5q-53 0-94-11.5t-68.5-41-43-83T389 1130v-86h287q2-10 3-26.5t1-32.5-1-30.5-3-24.5H389V0q-12-2-33.5-3T322-4q-10 0-33 1t-35 3v930H76q-2 10-3 24.5T72 985z"/><glyph unicode="g" horiz-adv-x="1097" d="M82-238q0 78 45 150T244 18q-39 25-65.5 63T152 174q0 80 37.5 133T291 403q-72 45-115 121t-43 181q0 76 25.5 142t77 115.5 126 78T535 1069q84 0 149.5-21.5T799 991q20 8 51 18.5t67.5 17.5 75.5 12 76 5q8-31 8-67 0-39-8-70H874q29-45 44.5-95T934 705q0-88-31-156t-85-114-127-70.5T535 340q-88 0-154 22-57-37-81-70.5T276 215q0-20 6.5-38.5t26-34 54-24.5 90.5-9l266-5q180-4 257-74.5t77-187.5q0-80-41-144.5T897-413t-175-71.5T502-510q-92 0-169 14.5t-133.5 46-87 84T82-238zm133 17q0-49 22.5-82t62.5-51.5 93-25.5 113-7q190 0 296.5 64.5T909-168q0 78-53 110.5T682-23l-254 5h-7q-91 0-147-54-59-57-59-149zm61 926q0-106 62.5-179T535 453q133 0 196.5 72.5T795 705q0 106-63.5 178.5T535 956t-196-72.5T276 705z"/><glyph unicode="h" horiz-adv-x="1171" d="M180 0v1505q12 2 34 3t34 1q10 0 32.5-1t34.5-3V858q20 37 53 75t76 68.5 97.5 49T662 1069q180 0 265-107.5t85-302.5V0q-12-2-34-3t-34-1q-10 0-32.5 1T877 0v618q0 174-57.5 250T653 944q-72 0-134-26.5t-107-79-71-131T315 526V0q-12-2-33.5-3T248-4q-10 0-32.5 1T180 0z"/><glyph unicode="i" horiz-adv-x="559" d="M109 985q0 16 1 32.5t3 26.5h266V0q-12-2-33.5-3T311-4q-10 0-32.5 1T244 0v930H113q-2 10-3 24.5t-1 30.5zm63 406q0 16 1 40.5t3 41.5q18 2 45 3t45 1q16 0 41-1t41-3q2-16 3-41t1-41q0-18-1-45t-3-46q-16-2-40.5-3t-41.5-1q-18 0-45 1t-45 3q-2 18-3 45t-1 46z"/><glyph unicode="j" horiz-adv-x="569" d="M-68-346q4 23 12.5 56.5T-37-236q47-20 119-20 20 0 50 2t56.5 16.5 46 45T254-102V930H123q-2 10-3 24.5t-1 30.5 1 32.5 3 26.5h266V-88q0-86-24.5-141.5t-64.5-87-91-45T106-375q-63 0-104 8.5T-68-346zm250 1737q0 16 1 40.5t3 41.5q18 2 45 3t45 1q16 0 41-1t41-3q2-16 3-41t1-41q0-18-1-45t-3-46q-16-2-40.5-3t-41.5-1q-18 0-45 1t-45 3q-2 18-3 45t-1 46z"/><glyph unicode="k" horiz-adv-x="1028" d="M180 0v1505q12 2 34 3t34 1q10 0 32.5-1t34.5-3V0q-12-2-34.5-3T248-4q-12 0-33.5 1T180 0zm221 539l375 505q33 6 72 7 45 0 86-7L561 553 1001 0q-37-6-73-6-45 0-88 6z"/><glyph unicode="l" horiz-adv-x="571" d="M180 211v1294q12 2 34 3t34 1q10 0 32.5-1t34.5-3V242q0-53 12.5-83t31-43.5 41-16.5 40.5-3q23 0 47.5 3t40.5 7q10-25 14.5-53T549 0q-29-10-64.5-14T418-18q-43 0-86 9t-77 34.5T200.5 95 180 211z"/><glyph unicode="m" horiz-adv-x="1712" d="M180 0v1044q16 2 31.5 3.5t30.5 1.5q16 0 30.5-1t30.5-4q4-37 6-88t2-92q18 39 47 76t68 65.5 89 46 114 17.5q59 0 102-14.5t75-40 53.5-60T899 877q23 33 51.5 67.5t65.5 62 85 45 107 17.5q182 0 263-104.5t81-298.5V0q-12-2-33.5-3T1485-4q-10 0-32.5 1T1417 0v618q0 166-54 246t-163 80q-66 0-115-26.5t-81.5-71.5-50-105.5T936 612V0q-12-2-33.5-3T868-4q-10 0-32.5 1T801 0v645q0 158-50.5 233.5T606 954q-63 0-116.5-31.5t-92.5-89T336.5 697 315 524V0q-12-2-33.5-3T248-4q-10 0-32.5 1T180 0z"/><glyph unicode="n" horiz-adv-x="1171" d="M180 0v1044q16 2 31.5 3.5t30.5 1.5q16 0 30.5-1t30.5-4q4-37 6-92t2-96q20 37 53 75t77 68.5 101.5 50T668 1069q180 0 262-107.5t82-302.5V0q-12-2-34-3t-34-1q-10 0-32.5 1T877 0v618q0 174-54.5 250T659 944q-72 0-135-28.5t-109-83T342 698t-27-182V0q-12-2-33.5-3T248-4q-10 0-32.5 1T180 0z"/><glyph unicode="o" horiz-adv-x="1175" d="M121 522q0 115 28.5 215.5t87 174T383 1027t205 42 204-42 145-115.5 88-174 30-215.5-30-215-88-174T792 17 588-25 383 17 236.5 133t-87 174.5T121 522zm141 0q0-199 81-313.5T588 94t244.5 115T913 522q0 199-80.5 313.5T588 950 343 835.5 262 522z"/><glyph unicode="p" horiz-adv-x="1206" d="M180-483v1527q12 2 30.5 3.5t31.5 1.5q12 0 30.5-1t30.5-4l12-143q43 66 124 117t210 51q96 0 176-29.5t136.5-93 88-160T1081 555t-36.5-242.5T937 130 762.5 15 526-25q-49 0-106.5 8.5T315 8v-491q-12-2-34.5-3t-32.5-1q-12 0-33.5 1t-34.5 3zm135 616q47-18 97.5-27.5T547 96q80 0 151.5 25.5t125 81 84 140.5T938 547q0 188-70.5 294.5T639 948q-49 0-106.5-16.5t-105.5-56-80-104T315 608V133z"/><glyph unicode="q" horiz-adv-x="1196" d="M125 492q0 135 40 241.5t111.5 181 173 114.5 224.5 40q57 0 103-3t86-9 77-14.5 76-20.5V-483q-12-2-35-3t-33-1q-12 0-33.5 1t-33.5 3V6Q832-8 774.5-16.5T651-25Q542-25 446 0T278.5 85 166 244.5 125 492zm141-15q0-100 28-172t79-119 119.5-69.5T645 94q68 0 131.5 10.5T881 129v801q-61 12-101.5 16t-97.5 4q-104 0-183-34.5t-130.5-98-77-149.5T266 477z"/><glyph unicode="r" horiz-adv-x="716" d="M180 0v1044q16 2 31.5 3.5t30.5 1.5q16 0 30.5-1t30.5-4q4-37 6-87t2-91q41 76 115 128.5t195 52.5h21l26-3q6-35 6-65 0-33-6-64-16 2-25.5 2.5t-19.5.5q-139 0-223.5-88.5T315 537V0q-12-2-33.5-3T248-4q-10 0-32.5 1T180 0z"/><glyph unicode="s" horiz-adv-x="925" d="M113 20q12 62 39 123 45-18 116.5-31.5T406 98q123 0 194.5 54.5T672 287q0 55-21.5 91T593 438.5t-81 40-92 31.5q-51 16-101.5 36.5T229 599t-62.5 77T143 788q0 125 91.5 203t281.5 78q80 0 154.5-14.5T786 1024q-10-59-28-117-43 14-109.5 28.5T510 950q-125 0-177-44t-52-115q0-39 17-67t47-47.5 68-33.5 81-27q55-18 111.5-39.5T708 520t75.5-88T813 299q0-74-29.5-134.5T700.5 62t-127-64.5T412-25q-98 0-175 12.5T113 20z"/><glyph unicode="t" horiz-adv-x="694" d="M45 989q0 16 1 30.5t3 24.5h178v197l127 125h8v-322h283q2-10 3-24t1-31q0-16-1-32.5t-3-26.5H362V250q0-51 13.5-81t35-46.5 49-21.5 56.5-5q72 0 125 19 14-53 21-115-74-23-173-23-117 0-189.5 62.5T227 244v686H49q-2 10-3 26.5T45 989z"/><glyph unicode="u" horiz-adv-x="1177" d="M172 449v595q12 2 34.5 3.5t33.5 1.5q12 0 33.5-1t33.5-4V457q0-111 22.5-181.5T396 165t107.5-55.5T647 94q68 0 121 7.5t94 19.5v923q12 2 35 3.5t33 1.5q12 0 33.5-1t33.5-4V27Q921 7 828-9T637-25q-96 0-181 18.5t-147.5 71T209 209t-37 240z"/><glyph unicode="v" horiz-adv-x="1067" d="M53 1044q12 2 35 3.5t43 1.5q16 0 41-1t37-4l330-903 335 903q12 2 33 3.5t37 1.5 36.5-1 33.5-4L598 0q-31-6-63-6-33 0-66 6z"/><glyph unicode="w" horiz-adv-x="1540" d="M68 1044q12 2 31.5 3.5t39.5 1.5q16 0 40-1t36-4l231-888 259 888q16 2 35.5 3.5t41.5 1.5h34l34-5 258-876 231 876q12 2 29.5 3.5t34.5 1.5q16 0 36.5-1t33.5-4L1171 0q-37-6-71-6-39 0-72 6L776 864 512 0q-37-6-72-6-39 0-71 6z"/><glyph unicode="x" horiz-adv-x="1003" d="M41 0l311 545-274 499q37 6 72 7 39 0 81-7l263-499L190 0q-35-6-69-6-41 0-80 6zm469 545l262 499q43 6 80 7 33 0 70-7L655 555 963 0q-41-6-80-6-37 0-70 6z"/><glyph unicode="y" horiz-adv-x="1054" d="M33 1044q12 2 34.5 3.5t43.5 1.5q16 0 40.5-1t36.5-4L535 29l339 1015q12 2 33 3.5t37 1.5 36.5-1 33.5-4L555-309q-37-113-104.5-158T291-512q-43 0-87 8t-73 17q0 63 31 114 16-6 49-13t74-7q59 0 95 28.5T442-258L526-4h-39q-18 0-41.5 1T410 0z"/><glyph unicode="z" horiz-adv-x="952" d="M63 33l609 897H125q-2 10-3 24.5t-1 30.5 1 32.5 3 26.5h754l8-26-608-903h575q2-10 3-26.5t1-33.5q0-16-1-30.5T854 0H70z"/><glyph unicode="{" horiz-adv-x="811" d="M102 592v8q59 33 101.5 66.5t68 76.5 38 97.5T322 969v157q0 209 85 309.5T702 1536q2-14 3.5-28.5t1.5-30.5-1-30.5-4-25.5q-82 0-131-19.5t-74.5-62.5-33.5-109.5-8-158.5v-22q0-104-8.5-177t-28-124.5-53-87T281 596q51-29 84.5-64.5t53-87 28-124T455 143v-22q0-92 8-158.5T496.5-147t75-62.5T702-229q2-12 3.5-25.5T707-285q0-16-1-31.5t-4-27.5q-211 0-295.5 100.5T322 66v157q0 74-12.5 128.5t-38 97.5-67.5 76.5T102 592z"/><glyph unicode="|" horiz-adv-x="669" d="M266-344v1933q14 2 33.5 3t36.5 1q18 0 35.5-1t31.5-3V-344q-14-2-31.5-3t-35.5-1q-20 0-38.5 1t-31.5 3z"/><glyph unicode="}" horiz-adv-x="811" d="M104-285q0 16 1 29.5t4 26.5q82 0 130 19.5t74.5 62.5T348-37.5t8 158.5v22q0 104 8.5 177t28 124.5 53 87T530 596q-51 29-84.5 64.5t-53 87-28 124T356 1049v22q0 92-8 158.5T313.5 1339t-75 62.5T109 1421q-2 10-3.5 24.5T104 1477q0 16 1 30.5t4 28.5q211 0 295.5-100.5T489 1126V969q0-74 11.5-128.5t38-97.5 68.5-76.5T709 600v-8q-59-33-101.5-66.5t-69-76.5-38-97.5T489 223V66q0-209-85-309.5T109-344q-2 12-3.5 27.5T104-285z"/><glyph unicode="~" horiz-adv-x="978" d="M49 815q20 25 51 46.5t67 39 74 26.5 72 9q47 0 93.5-13.5T499 894t92-27.5 93-12.5q41 0 85 16.5t93 63.5q27-25 42.5-52.5T930 825q-51-45-108.5-71.5T686 727q-45 0-92 12.5T501 767t-92.5 28.5T319 809q-49 0-99-19.5T121 723q-47 33-72 92z"/><glyph unicode="¡" horiz-adv-x="579" d="M197 963q0 45 6 88 43 6 86 6 45 0 88-6 6-43 6-86 0-45-6-88-43-6-86-7-45 0-88 7-6 43-6 86zm14-1385l8 1053q16 2 32.5 3t33.5 1q16 0 31.5-1t31.5-3l8-1053q-16-2-32.5-3t-32.5-1q-20 0-40 1t-40 3z"/><glyph unicode="¢" d="M244 522q0 106 27.5 200.5t83 167.5 138 118 191.5 57v242q57 12 117 0v-240q66-4 121-14.5t90-20.5q0-27-7.5-61.5T989 915q-41 14-103.5 24.5T752 950q-92 0-161-31.5t-115-89T407.5 694 385 522q0-221 105.5-324.5T776 94q61 0 117.5 10.5T995 131q10-20 19.5-55t13.5-58Q981 2 924.5-9T801-25v-217q-29-8-58.5-7t-58.5 7v222Q467 3 355.5 141T244 522z"/><glyph unicode="£" d="M221 705q0 16 1 32.5t3 26.5h144q-16 63-26.5 130T332 1032q0 92 25.5 173t78.5 141.5 135 94.5 197 34q104 0 173-16.5t110-33.5q-4-37-11.5-60.5T1018 1307q-57 25-117.5 35T770 1352q-80 0-135-24.5t-90-67.5-51.5-103.5T477 1026q0-68 11.5-132.5T516 764h432q2-10 3-26.5t1-32.5-1-31-3-25H543q10-53 18-105t8-106q0-98-25.5-184T479 129h578q2-12 3-31.5t1-34.5q0-16-1-33.5T1057 0H246l-6 20 47 48q39 39 65.5 86t43 96 23.5 97 7 91q0 53-8 105.5T397 649H225q-2 10-3 24.5t-1 31.5z"/><glyph unicode="¤" d="M94 301l166 164q-39 53-60.5 118.5T178 721q0 74 23.5 140.5T266 983L94 1155q16 35 42 57.5t52 32.5l170-172q53 37 118 58.5t136 21.5q72 0 137.5-21.5T868 1071l174 174q29-16 52.5-38.5t40.5-47.5L961 983q41-55 64.5-121.5T1049 721q0-72-22.5-137.5T963 465l167-168q-16-29-38.5-52.5T1047 205L872 375q-53-41-119.5-62.5T612 291t-140 21.5T352 375L184 209q-35 16-57.5 40.5T94 301zm217 420q0-66 22.5-122t62.5-98 95.5-66.5T612 410q66 0 121 24.5t96 66.5 63.5 98T915 721t-22.5 123-63.5 99-96 66.5-121 24.5-121-24.5-95-66.5-62.5-99T311 721z"/><glyph unicode="¥" d="M76 1448q12 2 34.5 3t43.5 1q18 0 43.5-1t40.5-3l385-655 378 655q16 2 36 3t38 1q20 0 43-1t35-3L760 766h338q6-29 6-55 0-33-6-64H690V440h408q6-29 6-55 0-33-6-63H690V0q-14-2-32.5-3T621-4q-20 0-40 1t-32 3v322H143q-8 25-8 57 0 35 8 61h406v207H143q-8 25-8 58 0 35 8 61h334z"/><glyph unicode="¦" horiz-adv-x="669" d="M266 336q14 2 33.5 3t36.5 1q18 0 35.5-1t31.5-3v-680q-14-2-31.5-3t-35.5-1q-20 0-38.5 1t-31.5 3v680zm0 573v680q14 2 33.5 3t36.5 1q18 0 35.5-1t31.5-3V909q-14-2-31.5-3t-35.5-1q-20 0-38.5 1t-31.5 3z"/><glyph unicode="§" horiz-adv-x="1136" d="M141 29q10 43 16.5 65.5T178 145q57-23 131-40t170-17q158 0 245 48t87 126q0 37-17.5 63.5t-47 47-67.5 35-79 26.5l-213 70q-76 25-124 53.5t-74.5 60-37 68.5-10.5 78q0 74 32 132t75 108q-29 29-46.5 72.5T184 1178q0 63 32 117.5t87 93 133 60 170 21.5q106 0 178-16t144-39q0-33-9.5-59.5T893 1298q-57 23-118.5 40.5T618 1356q-127 0-208.5-42T328 1184q0-41 14-69t40-46 60.5-31.5T518 1012l260-80q92-29 153.5-82T993 694q0-82-32.5-143.5T883 440q29-31 48-73.5T950 266q0-68-32.5-122t-94-93T675-8.5 477-29q-98 0-183 15.5T141 29zm135 749q0-57 38-93t116-64l264-86q14-6 29.5-11.5T764 508q12 10 27.5 27.5t30 39 24.5 48 10 57.5q0 53-42 86t-120 57l-254 82q-23 8-45 16.5T356 938q-23-23-51.5-65T276 778z"/><glyph unicode="¨" horiz-adv-x="1024" d="M227 1341q0 45 6 89 39 6 82 6t84-6q6-43 7-87 0-45-7-88-41-6-82-6-45 0-84 6-6 43-6 86zm391 0q0 45 7 89 39 6 82 6t84-6q6-43 6-87 0-45-6-88-41-6-82-6-45 0-84 6-6 43-7 86z"/><glyph unicode="©" horiz-adv-x="1769" d="M125 735q0 162 55.5 302.5T335 1279t239.5 159.5T885 1497t310-57.5 239.5-159.5 155-241.5T1645 735t-55.5-303-155-240.5-239.5-160T885-27 574.5 31.5 335 191.5 180.5 432 125 735zm139 0q0-133 43-249.5T430 282t195-137.5T885 94t260 50.5T1339.5 282 1462 485.5t43 249.5-43 250-122.5 204-194.5 137-260 50-260-50-195-137-123-204-43-250zm248-6q0 98 28.5 180t81 141.5 126 92.5 163.5 33q76 0 119-8.5t84-20.5q-4-35-9-57.5t-20-51.5q-43 12-81.5 17.5T918 1061q-139 0-207-90t-68-242q0-154 74-235.5T924 412q43 0 85.5 10.5T1087 451q16-29 24.5-50.5T1130 348q-41-20-99-34.5T913 299q-92 0-166.5 30.5t-127 88-80 136.5T512 729z"/><glyph unicode="ª" horiz-adv-x="1024" d="M127 854q0 135 100.5 208t259.5 73q51 0 96.5-3.5t75.5-7.5v39q0 102-53 147.5T446 1356q-61 0-115.5-9.5T229 1323q-10 16-15 52t-5 61q41 12 107.5 21t138.5 9q166 0 247.5-69.5T784 1178V629q-59-10-146-21.5T473 596q-176 0-261 61.5T127 854zm123 4q0-49 20.5-79.5t53-46T397 712t80-5q51 0 95 3t87 11v291q-29 4-69.5 7t-75.5 3q-125 0-194.5-43T250 858z"/><glyph unicode="«" horiz-adv-x="1230" d="M113 547l358 452q37 6 76 7 39 0 80-7L276 551 627 94q-37-6-76-6-41 0-80 6zm496 0l358 452q37 6 76 7 39 0 80-7L772 551l351-457q-37-6-76-6-41 0-80 6z"/><glyph unicode="¬" d="M176 674q0 16 1 38.5t3 32.5h840V188q-10-2-30.5-3t-37.5-1q-16 0-38.5 1t-32.5 3v418H180q-2 10-3 30.5t-1 37.5z"/><glyph unicode="­" horiz-adv-x="722" d="M88 582q0 16 1 37.5t3 31.5h539q2-10 3-31.5t1-37.5-1-37-3-31H92q-2 10-3 30.5T88 582z"/><glyph unicode="®" horiz-adv-x="1769" d="M125 735q0 162 55.5 302.5T335 1279t239.5 159.5T885 1497t310-57.5 239.5-159.5 155-241.5T1645 735t-55.5-303-155-240.5-239.5-160T885-27 574.5 31.5 335 191.5 180.5 432 125 735zm139 0q0-133 43-249.5T430 282t195-137.5T885 94t260 50.5T1339.5 282 1462 485.5t43 249.5-43 250-122.5 204-194.5 137-260 50-260-50-195-137-123-204-43-250zm385-383v791q47 6 95.5 9t105.5 3q55 0 110.5-11t101.5-39 74.5-74 28.5-118q0-47-15-83.5t-37.5-65.5-51.5-49.5-55-32.5l239-328q-29-4-45-4h-63.5l-28.5 2-270 369 47 18q25 10 52.5 24.5t52 35 39.5 47 15 61.5q0 70-54 105t-130 35q-45 0-90-7V352q-10-2-24.5-3t-36.5-1q-23 0-36.5 1t-23.5 3z"/><glyph unicode="¯" horiz-adv-x="1024" d="M227 1346q0 12 1 29.5t3 27.5h562q2-10 3-27.5t1-29.5-1-30-3-26H231q-2 8-3 25.5t-1 30.5z"/><glyph unicode="°" horiz-adv-x="745" d="M86 1196q0 61 23.5 114.5T173 1403t93 61.5 113 22.5q59 0 112.5-22.5T585 1403t63.5-92.5T672 1196t-23.5-114.5T585 989t-93.5-61.5T379 905t-112.5 22.5T173 989t-63.5 92.5T86 1196zm121 0q0-78 48-129t124-51 124 51 48 129-48 129-124 51-124-51-48-129z"/><glyph unicode="±" d="M174 72q0 16 1 38.5t3 33.5h873q2-10 3-33t1-39-1-36.5-3-31.5H178q-2 10-3 30.5T174 72zm19 612.5v67l4 32.5h352v379q16 2 32.5 3t32.5 1 33-1 35-3V784h352q2-16 3-32.5t1-32.5-1-33.5-3-34.5H682V272q-18-4-34.5-4h-66l-32.5 4v379H197q-4 16-4 33.5z"/><glyph unicode="²" horiz-adv-x="921" d="M158 645l254 256q80 80 128 160t48 137q0 72-50.5 102.5T395 1331q-59 0-100-10t-76-21q-6 12-13 44t-13 67q59 23 110 30t111 7q141 0 224-61.5t83-178.5q0-90-46-175T535 856L418 741h356V629H164z"/><glyph unicode="³" horiz-adv-x="921" d="M174 635l31 110q100-31 190-30 47 0 90 9t75 30.5 50.5 53.5 18.5 79q0 39-17.5 68.5t-45 48T502 1031t-76 9h-37l-33-4-8 13 195 292H229v107h498l10-21-207-303q63-6 108.5-29.5t74-57 42-72.5 13.5-74q0-68-27.5-121t-77-90-116-56.5T401 604q-68 0-115.5 7T174 635z"/><glyph unicode="´" horiz-adv-x="1024" d="M299 1214l240 267q23 4 46 4h46q25 0 49.5-1t46.5-3l-276-267q-37-6-84-6-31 0-68 6z"/><glyph unicode="µ" horiz-adv-x="1245" d="M180-483v1527q12 2 35 3.5t33 1.5q12 0 33.5-1t33.5-4V496q0-188 67-294T606 96q49 0 106.5 16.5T818 169t80 104.5T930 436v608q12 2 34.5 3.5t32.5 1.5q12 0 34-1t34-4V0q-12-2-30.5-3T1004-4h-30l-32 4q-8 68-12 143-43-66-124-117T596-25q-186 0-281 138v-596q-12-2-34.5-3t-32.5-1q-12 0-33.5 1t-34.5 3z"/><glyph unicode="¶" horiz-adv-x="1126" d="M102 1040q0 121 32 206t103.5 138.5 187.5 77 284 23.5V-12q-45 0-73 3t-54 9v641h-27q-100 0-183 24.5T228.5 739 135 863t-33 177zM881-12v1497q45 0 72.5-3t54.5-9V0q-27-6-54.5-9T881-12z"/><glyph unicode="·" horiz-adv-x="419" d="M117 565q0 45 6 88 43 6 86 6 45 0 88-6 6-43 6-86 0-45-6-88-43-6-86-6-45 0-88 6-6 43-6 86z"/><glyph unicode="¸" horiz-adv-x="1024" d="M299-467q0 27 4 52.5t19 47.5q29-10 61.5-17t65.5-7q70 0 110.5 23.5T600-295q0 45-40 63.5T455-213q-29 0-55.5-4t-51.5-8l-10 8L438 49h119l-72-174q10 2 19.5 2H524q104 0 154.5-49T729-297q0-98-75.5-147.5T449-494q-27 0-71 5.5T299-467z"/><glyph unicode="¹" horiz-adv-x="921" d="M182 1294l377 162h25V739h202q2-14 3.5-27.5T791 684t-1.5-27.5T786 629H233q-6 27-6 55 0 27 6 55h218v547l-220-90q-20 18-31.5 46t-17.5 52z"/><glyph unicode="º" horiz-adv-x="1024" d="M139 1042q0 90 24.5 169t72 137.5 117 91.5 161.5 33 161.5-33 117-91.5 71-137T887 1042q0-94-23.5-174t-71-138-117-92T514 604t-161.5 34-117 92-72 138-24.5 174zm137 0q0-150 58.5-233.5T514 725q119 0 177.5 84t58.5 233q0 145-58.5 229.5T514 1356q-121 0-179.5-84T276 1042z"/><glyph unicode="»" d="M109 94l350 449-350 456q37 6 75 7 39 0 80-7l359-452L264 94q-37-6-76-6-41 0-79 6zm494 0l350 449-350 456q37 6 75 7 39 0 80-7l359-452L758 94q-37-6-76-6-41 0-79 6z"/><glyph unicode="¼" horiz-adv-x="2150" d="M135 1294l377 162h25V739h202q2-14 3.5-27.5T744 684t-1.5-27.5T739 629H186q-6 27-6 55 0 27 6 55h218v547l-220-90q-20 18-31.5 46t-17.5 52zM533 0l991 1448q16 2 33.5 3t34.5 1q20 0 39.5-1t40.5-3L682 0q-20-4-38.5-4H569l-36 4zm758 188l342 664q59-10 116-37l-272-529h260v176q31 6 59 7 27 0 62-7V286h106q6-23 7-57 0-16-1-31.5t-6-25.5h-106V4q-16-2-28.5-3T1805 0q-16 0-32.5 1T1737 4v168h-434z"/><glyph unicode="½" horiz-adv-x="2150" d="M135 1294l377 162h25V739h202q2-14 3.5-27.5T744 684t-1.5-27.5T739 629H186q-6 27-6 55 0 27 6 55h218v547l-220-90q-20 18-31.5 46t-17.5 52zM496 0l991 1448q16 2 33.5 3t34.5 1q20 0 39.5-1t40.5-3L645 0q-20-4-38.5-4H532l-36 4zm854 20l254 256q80 80 128 160t48 137q0 72-50.5 102.5T1587 706q-59 0-100-10t-76-21q-6 12-13 44t-13 67q59 23 110 30t111 7q141 0 224-61.5t83-178.5q0-90-46-175t-140-177l-117-115h356V4h-610z"/><glyph unicode="¾" horiz-adv-x="2150" d="M168 635l31 110q100-31 190-30 47 0 90 9t75 30.5 50.5 53.5 18.5 79q0 39-17.5 68.5t-45 48T496 1031t-76 9h-37l-33-4-8 13 195 292H223v107h498l10-21-207-303q63-6 108.5-29.5t74-57 42-72.5 13.5-74q0-68-27.5-121t-77-90-116-56.5T395 604q-68 0-115.5 7T168 635zM551 0l991 1448q16 2 33.5 3t34.5 1q20 0 39.5-1t40.5-3L700 0q-20-4-38.5-4H587l-36 4zm768 207l342 664q59-10 116-37l-272-529h260v176q31 6 59 7 27 0 62-7V305h106q6-23 7-57 0-16-1-31.5t-6-25.5h-106V23q-16-2-28.5-3t-24.5-1q-16 0-32.5 1t-35.5 3v168h-434z"/><glyph unicode="¿" horiz-adv-x="993" d="M135-20q0 104 45 181t106.5 127 124 78.5T508 406v229q18 2 36.5 3t35.5 1q16 0 34.5-1t32.5-3V317l-69-22q-53-16-104.5-42T380 190.5t-67.5-88T287-16q0-139 98-210t256-71q96 0 153.5 14.5T907-250q12-29 20.5-57.5T946-373q-90-29-162.5-40T621-424q-240 0-363 108.5T135-20zm346 983q0 45 6 88 43 6 86 6 46 0 89-6 6-43 6-86 0-45-6-88-43-6-87-7-45 0-88 7-6 43-6 86z"/><glyph unicode="À" horiz-adv-x="1232" d="M41 0l491 1473q14 2 39 3t45 1q23 0 46.5-1t37.5-3L1192 0q-12-2-34.5-3T1114-4q-18 0-38.5 1T1040 0L918 375H311L195 0q-16-2-38-3t-40-1Q97-4 75-3T41 0zm287 1821q45 6 100 6 49 0 97-6l227-228q-37-6-72-6-51 0-88 6zm24-1315h525l-265 819z"/><glyph unicode="Á" horiz-adv-x="1232" d="M41 0l491 1473q14 2 39 3t45 1q23 0 46.5-1t37.5-3L1192 0q-12-2-34.5-3T1114-4q-18 0-38.5 1T1040 0L918 375H311L195 0q-16-2-38-3t-40-1Q97-4 75-3T41 0zm311 506h525l-265 819zm107 1087l227 228q45 6 97 6 53 0 100-6l-264-228q-37-6-88-6-35 0-72 6z"/><glyph unicode="Â" horiz-adv-x="1232" d="M41 0l491 1473q14 2 39 3t45 1q23 0 46.5-1t37.5-3L1192 0q-12-2-34.5-3T1114-4q-18 0-38.5 1T1040 0L918 375H311L195 0q-16-2-38-3t-40-1Q97-4 75-3T41 0zm241 1593l258 228q37 6 76 6 35 0 76-6l252-228q-18-4-40-5t-38-1-40 1-48 5l-162 144-164-144q-49-6-88-6-16 0-38.5 1t-43.5 5zm70-1087h525l-265 819z"/><glyph unicode="Ã" horiz-adv-x="1232" d="M41 0l491 1473q14 2 39 3t45 1q23 0 46.5-1t37.5-3L1192 0q-12-2-34.5-3T1114-4q-18 0-38.5 1T1040 0L918 375H311L195 0q-16-2-38-3t-40-1Q97-4 75-3T41 0zm226 1753q31 33 80 64.5t108 31.5q45 0 91-18.5t90-40 86-38.5 83-17 68.5 17 64.5 52q16-23 28.5-46t22.5-48q-33-31-81-60.5T799 1620q-45 0-89 17.5t-88 38-85 38-80 17.5q-47 0-75.5-18.5T318 1663q-35 41-51 90zm85-1247h525l-265 819z"/><glyph unicode="Ä" horiz-adv-x="1232" d="M41 0l491 1473q14 2 39 3t45 1q23 0 46.5-1t37.5-3L1192 0q-12-2-34.5-3T1114-4q-18 0-38.5 1T1040 0L918 375H311L195 0q-16-2-38-3t-40-1Q97-4 75-3T41 0zm266 1704q0 45 6 92 45 6 88 6 49 0 90-6 6-47 6-90 0-47-6-92-41-6-88-6-45 0-90 6-6 45-6 90zm45-1198h525l-265 819zm383 1198q0 45 6 92 39 6 88 6 43 0 90-6 6-47 6-90 0-47-6-92-47-6-88-6-51 0-90 6-6 45-6 90z"/><glyph unicode="Å" horiz-adv-x="1232" d="M41 0l489 1466q-70 25-109.5 83.5T381 1686q0 49 16.5 91t47 72.5 73.5 49 96 18.5q51 0 94.5-18.5t74-49 48-72.5 17.5-91q0-76-40-134.5T700 1468L1192 0q-12-2-34.5-3T1114-4q-18 0-38.5 1T1040 0L918 375H311L195 0q-16-2-38-3t-40-1Q97-4 75-3T41 0zm311 506h525l-265 819zm142 1180q0-59 30.5-98.5T614 1548t90 39 31 99q0 59-31 98t-90 39-89.5-39-30.5-98z"/><glyph unicode="Æ" horiz-adv-x="1835" d="M-35 0l895 1473h864q2-12 3.5-30t1.5-34q0-14-1.5-33.5t-3.5-32.5h-647V805h520q2-12 3.5-29.5t1.5-34.5q0-14-1.5-33.5T1597 676h-520V129h666q2-12 3-29.5t1-33.5q0-14-1-34t-3-32H936v377H352L131 0Q84-6 45-6 2-6-35 0zm463 506h508v848h-8z"/><glyph unicode="Ç" horiz-adv-x="1265" d="M131 721q0 184 48 328.5t135 244T525 1445t278 52q129 0 215-18.5t125-30.5q-4-37-11.5-61.5T1110 1327q-27 8-54.5 16.5T993 1358t-81 10-107 4q-121 0-217-44t-164-128-104.5-205T283 721q0-158 41-274.5T437.5 253t170-114T817 102q96 0 175 18.5t132 47.5q16-31 28.5-59.5T1171 49q-70-35-166-54.5T801-25l-39-98q10 2 18 2h19q104 0 155.5-50t51.5-126q0-98-77-147.5T723-494q-27 0-71 5.5T573-467q0 25 4.5 52.5T596-365q29-10 61.5-17t65.5-7q70 0 110.5 22.5T874-295q0 45-39.5 63.5T729-213q-29 0-55.5-4t-50.5-8l-11 8 76 201Q561 2 458.5 58.5T283.5 208 171 429t-40 292z"/><glyph unicode="È" horiz-adv-x="1105" d="M207 0v1473h788q2-12 3-30t1-34q0-14-1-33.5t-3-32.5H348V846h520q2-12 3-29.5t1-34.5q0-14-1-33.5t-3-31.5H348V129h666q2-12 3-29.5t1-33.5q0-14-1-34t-3-32H207zm106 1821q45 6 100 6 49 0 97-6l227-228q-37-6-72-6-51 0-88 6z"/><glyph unicode="É" horiz-adv-x="1105" d="M207 0v1473h788q2-12 3-30t1-34q0-14-1-33.5t-3-32.5H348V846h520q2-12 3-29.5t1-34.5q0-14-1-33.5t-3-31.5H348V129h666q2-12 3-29.5t1-33.5q0-14-1-34t-3-32H207zm244 1593l227 228q45 6 97 6 53 0 100-6l-264-228q-37-6-88-6-35 0-72 6z"/><glyph unicode="Ê" horiz-adv-x="1105" d="M207 0v1473h788q2-12 3-30t1-34q0-14-1-33.5t-3-32.5H348V846h520q2-12 3-29.5t1-34.5q0-14-1-33.5t-3-31.5H348V129h666q2-12 3-29.5t1-33.5q0-14-1-34t-3-32H207zm57 1593l258 228q37 6 76 6 35 0 76-6l252-228q-18-4-40-5t-38-1-40 1-48 5l-162 144-164-144q-49-6-88-6-16 0-38.5 1t-43.5 5z"/><glyph unicode="Ë" horiz-adv-x="1105" d="M207 0v1473h788q2-12 3-30t1-34q0-14-1-33.5t-3-32.5H348V846h520q2-12 3-29.5t1-34.5q0-14-1-33.5t-3-31.5H348V129h666q2-12 3-29.5t1-33.5q0-14-1-34t-3-32H207zm84 1704q0 45 6 92 45 6 88 6 49 0 90-6 6-47 6-90 0-47-6-92-41-6-88-6-45 0-90 6-6 45-6 90zm428 0q0 45 6 92 39 6 88 6 43 0 90-6 6-47 6-90 0-47-6-92-47-6-88-6-51 0-90 6-6 45-6 90z"/><glyph unicode="Ì" horiz-adv-x="555" d="M6 1821q45 6 100 6 49 0 97-6l227-228q-37-6-72-6-51 0-88 6zM207 0v1473q14 2 34.5 3t37.5 1q18 0 36.5-1t32.5-3V0q-14-2-32.5-3T279-4q-20 0-40 1t-32 3z"/><glyph unicode="Í" horiz-adv-x="555" d="M131 1593l227 228q45 6 97 6 53 0 100-6l-264-228q-37-6-88-6-35 0-72 6zM207 0v1473q14 2 34.5 3t37.5 1q18 0 36.5-1t32.5-3V0q-14-2-32.5-3T279-4q-20 0-40 1t-32 3z"/><glyph unicode="Î" horiz-adv-x="555" d="M-51 1593l258 228q37 6 76 6 35 0 76-6l252-228q-18-4-40-5t-38-1-40 1-48 5l-162 144-164-144q-49-6-88-6-16 0-38.5 1t-43.5 5zM207 0v1473q14 2 34.5 3t37.5 1q18 0 36.5-1t32.5-3V0q-14-2-32.5-3T279-4q-20 0-40 1t-32 3z"/><glyph unicode="Ï" horiz-adv-x="555" d="M-28 1704q0 45 6 92 45 6 88 6 49 0 90-6 6-47 6-90 0-47-6-92-41-6-88-6-45 0-90 6-6 45-6 90zM207 0v1473q14 2 34.5 3t37.5 1q18 0 36.5-1t32.5-3V0q-14-2-32.5-3T279-4q-20 0-40 1t-32 3zm193 1704q0 45 6 92 39 6 88 6 43 0 90-6 6-47 6-90 0-47-6-92-47-6-88-6-51 0-90 6-6 45-6 90z"/><glyph unicode="Ð" horiz-adv-x="1462" d="M43 741q0 12 1 29.5t3 28.5h191v674q29 4 70.5 8t88.5 7 94.5 5 86.5 2q193 0 335-52t235-149.5 138-238 45-316.5q0-764-753-764-43 0-92.5 2.5T390-17t-86 8-66 9v686H47q-2 8-3 25.5T43 741zm336-618q37-4 87-8t103-4q141 0 255 30.5t194 104T1141 441t43 304q0 317-163 466t-452 149q-47 0-101-2t-89-8V799h366q2-10 3.5-27.5T750 741q0-12-1-29.5t-4-25.5H379V123z"/><glyph unicode="Ñ" horiz-adv-x="1409" d="M207 0v1473q14 2 37.5 3t40.5 1q16 0 38.5-1t36.5-3l705-1233v1233q14 2 31.5 3t36.5 1q16 0 35.5-1t33.5-3V0q-12-2-35.5-3T1124-4q-16 0-38.5 1T1049 0L344 1223V0q-14-2-31.5-3T276-4q-20 0-38.5 1T207 0zm138 1753q31 33 80 64.5t108 31.5q45 0 91-18.5t90-40 86-38.5 83-17 68.5 17 64.5 52q16-23 28.5-46t22.5-48q-33-31-81-60.5T877 1620q-45 0-89 17.5t-88 38-85 38-80 17.5q-47 0-75.5-18.5T396 1663q-35 41-51 90z"/><glyph unicode="Ò" horiz-adv-x="1478" d="M131 737q0 166 38 305.5T281.5 1283 471 1440.5t268 56.5q154 0 268.5-56.5T1197 1283t113-240.5 38-305.5-38-306-113-241.5-189.5-158T739-25 470.5 31.5t-189 158T169 431t-38 306zm148 0q0-139 27.5-255.5T390 281t143-130.5T739 104t205 46.5T1087.5 281t85 200.5T1200 737t-27.5 256-85 200T944 1322t-205 46-206-46-143-129-83.5-199.5T279 737zm163 1084q45 6 100 6 49 0 97-6l227-228q-37-6-72-6-51 0-88 6z"/><glyph unicode="Ó" horiz-adv-x="1478" d="M131 737q0 166 38 305.5T281.5 1283 471 1440.5t268 56.5q154 0 268.5-56.5T1197 1283t113-240.5 38-305.5-38-306-113-241.5-189.5-158T739-25 470.5 31.5t-189 158T169 431t-38 306zm148 0q0-139 27.5-255.5T390 281t143-130.5T739 104t205 46.5T1087.5 281t85 200.5T1200 737t-27.5 256-85 200T944 1322t-205 46-206-46-143-129-83.5-199.5T279 737zm290 856l227 228q45 6 97 6 53 0 100-6l-264-228q-37-6-88-6-35 0-72 6z"/><glyph unicode="Ô" horiz-adv-x="1478" d="M131 737q0 166 38 305.5T281.5 1283 471 1440.5t268 56.5q154 0 268.5-56.5T1197 1283t113-240.5 38-305.5-38-306-113-241.5-189.5-158T739-25 470.5 31.5t-189 158T169 431t-38 306zm148 0q0-139 27.5-255.5T390 281t143-130.5T739 104t205 46.5T1087.5 281t85 200.5T1200 737t-27.5 256-85 200T944 1322t-205 46-206-46-143-129-83.5-199.5T279 737zm128 856l258 228q37 6 76 6 35 0 76-6l252-228q-18-4-40-5t-38-1-40 1-48 5l-162 144-164-144q-49-6-88-6-16 0-38.5 1t-43.5 5z"/><glyph unicode="Õ" horiz-adv-x="1478" d="M131 737q0 166 38 305.5T281.5 1283 471 1440.5t268 56.5q154 0 268.5-56.5T1197 1283t113-240.5 38-305.5-38-306-113-241.5-189.5-158T739-25 470.5 31.5t-189 158T169 431t-38 306zm148 0q0-139 27.5-255.5T390 281t143-130.5T739 104t205 46.5T1087.5 281t85 200.5T1200 737t-27.5 256-85 200T944 1322t-205 46-206-46-143-129-83.5-199.5T279 737zm100 1016q31 33 80 64.5t108 31.5q45 0 91-18.5t90-40 86-38.5 83-17 68.5 17 64.5 52q16-23 28.5-46t22.5-48q-33-31-81-60.5T911 1620q-45 0-89 17.5t-88 38-85 38-80 17.5q-47 0-75.5-18.5T430 1663q-35 41-51 90z"/><glyph unicode="Ö" horiz-adv-x="1478" d="M131 737q0 166 38 305.5T281.5 1283 471 1440.5t268 56.5q154 0 268.5-56.5T1197 1283t113-240.5 38-305.5-38-306-113-241.5-189.5-158T739-25 470.5 31.5t-189 158T169 431t-38 306zm148 0q0-139 27.5-255.5T390 281t143-130.5T739 104t205 46.5T1087.5 281t85 200.5T1200 737t-27.5 256-85 200T944 1322t-205 46-206-46-143-129-83.5-199.5T279 737zm151 967q0 45 6 92 45 6 88 6 49 0 90-6 6-47 6-90 0-47-6-92-41-6-88-6-45 0-90 6-6 45-6 90zm428 0q0 45 6 92 39 6 88 6 43 0 90-6 6-47 6-90 0-47-6-92-47-6-88-6-51 0-90 6-6 45-6 90z"/><glyph unicode="×" d="M256 475l264 264-262 265q39 51 94 94l262-264 265 262q55-43 94-95L711 739l262-262q-43-57-94-94L616 645 350 381q-51 39-94 94z"/><glyph unicode="Ø" horiz-adv-x="1478" d="M127 0l145 201q-72 102-106.5 238T131 737q0 166 38 305.5T281.5 1283 471 1440.5t268 56.5q119 0 214.5-35t166.5-98l80 109q37 6 72 6t69-6l-141-195q74-100 111-237.5t37-303.5-38-306-113-241.5-189.5-158T739-25q-123 0-219 36T350 113L268 0q-35-6-69-6-35 0-72 6zm152 737q0-123 20-227t63-184l676 925q-55 55-128.5 86T739 1368q-119 0-206-46t-143-129-83.5-199.5T279 737zm155-510q55-59 131-91t174-32q119 0 205 46.5T1087.5 281t85 200.5T1200 737q0 125-21.5 231.5T1110 1155z"/><glyph unicode="Ù" horiz-adv-x="1384" d="M190 565v908q14 2 35 3t37 1q18 0 36.5-1t33.5-3V584q0-129 21.5-218.5T419 219t111.5-82.5T692 111q186 0 273.5 108.5T1053 584v889q14 2 32.5 3t36.5 1q16 0 37-1t35-3V565q0-295-121-442.5T692-25 311 122.5 190 565zm218 1256q45 6 100 6 49 0 97-6l227-228q-37-6-72-6-51 0-88 6z"/><glyph unicode="Ú" horiz-adv-x="1384" d="M190 565v908q14 2 35 3t37 1q18 0 36.5-1t33.5-3V584q0-129 21.5-218.5T419 219t111.5-82.5T692 111q186 0 273.5 108.5T1053 584v889q14 2 32.5 3t36.5 1q16 0 37-1t35-3V565q0-295-121-442.5T692-25 311 122.5 190 565zm381 1028l227 228q45 6 97 6 53 0 100-6l-264-228q-37-6-88-6-35 0-72 6z"/><glyph unicode="Û" horiz-adv-x="1384" d="M190 565v908q14 2 35 3t37 1q18 0 36.5-1t33.5-3V584q0-129 21.5-218.5T419 219t111.5-82.5T692 111q186 0 273.5 108.5T1053 584v889q14 2 32.5 3t36.5 1q16 0 37-1t35-3V565q0-295-121-442.5T692-25 311 122.5 190 565zm170 1028l258 228q37 6 76 6 35 0 76-6l252-228q-18-4-40-5t-38-1-40 1-48 5l-162 144-164-144q-49-6-88-6-16 0-38.5 1t-43.5 5z"/><glyph unicode="Ü" horiz-adv-x="1384" d="M190 565v908q14 2 35 3t37 1q18 0 36.5-1t33.5-3V584q0-129 21.5-218.5T419 219t111.5-82.5T692 111q186 0 273.5 108.5T1053 584v889q14 2 32.5 3t36.5 1q16 0 37-1t35-3V565q0-295-121-442.5T692-25 311 122.5 190 565zm193 1139q0 45 6 92 45 6 88 6 49 0 90-6 6-47 6-90 0-47-6-92-41-6-88-6-45 0-90 6-6 45-6 90zm428 0q0 45 6 92 39 6 88 6 43 0 90-6 6-47 6-90 0-47-6-92-47-6-88-6-51 0-90 6-6 45-6 90z"/><glyph unicode="Ý" horiz-adv-x="1175" d="M49 1473q12 2 34.5 3t43.5 1q18 0 44-1t40-3l385-779 379 779q16 2 35.5 3t38.5 1q20 0 42.5-1t34.5-3L664 547V0q-14-2-33-3t-37-1q-20 0-39.5 1T522 0v547zm428 120l227 228q45 6 97 6 53 0 100-6l-264-228q-37-6-88-6-35 0-72 6z"/><glyph unicode="Þ" horiz-adv-x="1177" d="M207 0v1473q14 2 32.5 3t36.5 1q20 0 40-1t32-3v-232q45 4 80 6t82 2q109 0 208-26.5t174-84T1011 989t44-221-44-220-119-148.5-174.5-84T510 289q-47 0-82 2t-80 6V0q-14-2-32.5-3T279-4q-20 0-40 1t-32 3zm141 428q20-2 35.5-3l31-2 35-2 50.5-1q74 0 145.5 12t130 50 94 106.5T905 770q0 111-35.5 179.5t-94 106.5-130.5 50-145 12q-29 0-48.5-1t-35-2-31.5-3-37-4V428z"/><glyph unicode="ß" horiz-adv-x="1120" d="M180 0v1028q0 113 16.5 204t57.5 154.5 110.5 98.5 178.5 35q166 0 253-83t87-225q0-96-29-161.5T789.5 934 725 834.5 696 725q0-45 24.5-77t61.5-59.5 80-56 80-64.5 61.5-84 24.5-118q0-78-25.5-133T933 43 827.5-8.5 694-25q-82 0-138 15.5T453 27q6 29 16 59.5t23 58.5q45-18 91-33.5T688 96q37 0 73 6.5t63.5 23.5 45 49 17.5 83q0 57-24.5 93T802 414.5 724 467t-78 57.5-60.5 78.5T561 719q0 74 30 130t64.5 109.5T720 1071t30 139q0 96-55.5 144.5T549 1403q-76 0-122-22.5t-70.5-68.5-33-119-8.5-171V0q-12-2-33.5-3T248-4q-10 0-32.5 1T180 0z"/><glyph unicode="à" horiz-adv-x="1050" d="M113 297q0 82 31.5 146.5t88 108.5 135 66.5T541 641q74 0 127-5t88-9v63q0 135-63.5 197.5T504 950q-82 0-149.5-11T233 911q-10 18-17 53t-7 66q53 16 131 27.5t160 11.5q199 0 295-87t96-273V18Q819 4 716.5-10.5T522-25q-190 0-299.5 76T113 297zm114 1184q23 2 47.5 3t48.5 1h46.5l45.5-4 240-267q-37-6-68-6-47 0-84 6zm21-1180q0-68 25.5-108.5t66.5-62 90-29 98-7.5q63 0 118.5 6T756 117v391q-35 4-87.5 9t-99.5 5q-154 0-237.5-57T248 301z"/><glyph unicode="á" horiz-adv-x="1050" d="M113 297q0 82 31.5 146.5t88 108.5 135 66.5T541 641q74 0 127-5t88-9v63q0 135-63.5 197.5T504 950q-82 0-149.5-11T233 911q-10 18-17 53t-7 66q53 16 131 27.5t160 11.5q199 0 295-87t96-273V18Q819 4 716.5-10.5T522-25q-190 0-299.5 76T113 297zm135 4q0-68 25.5-108.5t66.5-62 90-29 98-7.5q63 0 118.5 6T756 117v391q-35 4-87.5 9t-99.5 5q-154 0-237.5-57T248 301zm104 913l240 267q23 4 46 4h46q25 0 49.5-1t46.5-3l-276-267q-37-6-84-6-31 0-68 6z"/><glyph unicode="â" horiz-adv-x="1050" d="M113 297q0 82 31.5 146.5t88 108.5 135 66.5T541 641q74 0 127-5t88-9v63q0 135-63.5 197.5T504 950q-82 0-149.5-11T233 911q-10 18-17 53t-7 66q53 16 131 27.5t160 11.5q199 0 295-87t96-273V18Q819 4 716.5-10.5T522-25q-190 0-299.5 76T113 297zm77 917l240 265q20 4 43.5 5t44.5 1q20 0 45-1t45-5l238-265q-35-6-70-6-18 0-43 1t-45 5l-170 189-170-189q-23-4-46.5-5t-41.5-1q-37 0-70 6zm58-913q0-68 25.5-108.5t66.5-62 90-29 98-7.5q63 0 118.5 6T756 117v391q-35 4-87.5 9t-99.5 5q-154 0-237.5-57T248 301z"/><glyph unicode="ã" horiz-adv-x="1050" d="M113 297q0 82 31.5 146.5t88 108.5 135 66.5T541 641q74 0 127-5t88-9v63q0 135-63.5 197.5T504 950q-82 0-149.5-11T233 911q-10 18-17 53t-7 66q53 16 131 27.5t160 11.5q199 0 295-87t96-273V18Q819 4 716.5-10.5T522-25q-190 0-299.5 76T113 297zm71 1059q31 35 74 63.5t104 28.5q49 0 89-16.5t77-36 74-36 80-16.5q35 0 63.5 14.5T815 1409q33-47 49-98-31-33-75-60.5T686 1223q-47 0-87 16t-76 35.5-73 36-78 16.5q-43 0-71.5-16t-67.5-49q-35 47-49 94zm64-1055q0-68 25.5-108.5t66.5-62 90-29 98-7.5q63 0 118.5 6T756 117v391q-35 4-87.5 9t-99.5 5q-154 0-237.5-57T248 301z"/><glyph unicode="ä" horiz-adv-x="1050" d="M113 297q0 82 31.5 146.5t88 108.5 135 66.5T541 641q74 0 127-5t88-9v63q0 135-63.5 197.5T504 950q-82 0-149.5-11T233 911q-10 18-17 53t-7 66q53 16 131 27.5t160 11.5q199 0 295-87t96-273V18Q819 4 716.5-10.5T522-25q-190 0-299.5 76T113 297zm132 1044q0 45 6 89 39 6 82 6t84-6q6-43 7-87 0-45-7-88-41-6-82-6-45 0-84 6-6 43-6 86zm3-1040q0-68 25.5-108.5t66.5-62 90-29 98-7.5q63 0 118.5 6T756 117v391q-35 4-87.5 9t-99.5 5q-154 0-237.5-57T248 301zm388 1040q0 45 7 89 39 6 82 6t84-6q6-43 6-87 0-45-6-88-41-6-82-6-45 0-84 6-6 43-7 86z"/><glyph unicode="å" horiz-adv-x="1050" d="M113 297q0 82 31.5 146.5t88 108.5 135 66.5T541 641q74 0 127-5t88-9v63q0 135-63.5 197.5T504 950q-82 0-149.5-11T233 911q-10 18-17 53t-7 66q53 16 131 27.5t160 11.5q199 0 295-87t96-273V18Q819 4 716.5-10.5T522-25q-190 0-299.5 76T113 297zm135 4q0-68 25.5-108.5t66.5-62 90-29 98-7.5q63 0 118.5 6T756 117v391q-35 4-87.5 9t-99.5 5q-154 0-237.5-57T248 301zm81 1114q0 88 56.5 148.5T536 1624q96 0 152.5-60.5T745 1415q0-86-55.5-146.5T536 1208q-96 0-151.5 60.5T329 1415zm103 0q0-53 24.5-85t79.5-32q57 0 82 32t25 85-25 86-82 33q-55 0-79.5-33t-24.5-86z"/><glyph unicode="æ" horiz-adv-x="1738" d="M100 297q0 82 32 145.5T220 549t135 65.5T528 637q72 0 127.5-4t89.5-8v65q0 135-64.5 197.5T492 950q-82 0-150-11t-121-28q-10 18-17 53t-7 66q53 16 131 27.5t159 11.5q135 0 217-46t134-151q53 90 144 143.5t214 53.5q102 0 182-35t134.5-97.5 82-148.5 27.5-188q0-18-1-47t-3-49H872q0-111 23-188.5t69-127 118.5-71T1257 96q78 0 144.5 13.5T1532 145q10-23 16-55.5t8-58.5q-59-27-139-41.5T1243-25q-111 0-204 25T879 84Q816 41 711 8T494-25q-90 0-162 18.5T208 51t-80 100.5T100 297zm136 4q0-68 25.5-108.5t63-62 84-29T496 94q33 0 73.5 3t81.5 12.5 82 26 76 42.5q-35 53-50.5 131T743 465l-2 41q-35 4-87 8t-97 4q-154 0-237.5-55T236 301zm641 315h610q0 63-16.5 124T1419 848t-90 74.5-133 27.5q-143 0-223-87t-96-247z"/><glyph unicode="ç" horiz-adv-x="983" d="M121 522q0 117 32.5 216.5t96 173 159 115.5 220.5 42q78 0 148.5-11t111.5-26q0-27-7.5-61.5T866 915q-41 14-103.5 24.5T629 950q-92 0-161-31.5t-115-89T284.5 694 262 522q0-221 105.5-324.5T653 94q61 0 117.5 10.5T872 131q10-20 19.5-55T905 18Q854 0 788.5-12.5T643-25h-25l-40-100q10 2 19 2h19q104 0 154.5-49T821-297q0-98-75.5-147.5T541-494q-27 0-71 5.5T391-467q0 27 4 52.5t19 47.5q29-10 61.5-17t65.5-7q70 0 110.5 23.5T692-295q0 45-40 63.5T547-213q-29 0-55.5-4t-51.5-8l-10 8 76 205Q316 23 218.5 158T121 522z"/><glyph unicode="è" horiz-adv-x="1132" d="M123 516q0 115 27.5 215t84 176T379 1026t211 43q102 0 182-35t134.5-97.5 82-149.5 27.5-189q0-18-1-47t-3-49H266q0-209 96.5-307.5T651 96q78 0 144.5 13.5T926 145q10-23 16-55.5t8-58.5Q891 4 811-10.5T637-25q-135 0-232.5 40t-160 112-92 171T123 516zm147 98h611q0 63-16.5 125T813 847t-90 74.5T590 950q-143 0-223-88t-97-248zm52 867q23 2 47.5 3t48.5 1h46.5l45.5-4 240-267q-37-6-68-6-47 0-84 6z"/><glyph unicode="é" horiz-adv-x="1132" d="M123 516q0 115 27.5 215t84 176T379 1026t211 43q102 0 182-35t134.5-97.5 82-149.5 27.5-189q0-18-1-47t-3-49H266q0-209 96.5-307.5T651 96q78 0 144.5 13.5T926 145q10-23 16-55.5t8-58.5Q891 4 811-10.5T637-25q-135 0-232.5 40t-160 112-92 171T123 516zm147 98h611q0 63-16.5 125T813 847t-90 74.5T590 950q-143 0-223-88t-97-248zm162 600l240 267q23 4 46 4h46q25 0 49.5-1t46.5-3l-276-267q-37-6-84-6-31 0-68 6z"/><glyph unicode="ê" horiz-adv-x="1132" d="M123 516q0 115 27.5 215t84 176T379 1026t211 43q102 0 182-35t134.5-97.5 82-149.5 27.5-189q0-18-1-47t-3-49H266q0-209 96.5-307.5T651 96q78 0 144.5 13.5T926 145q10-23 16-55.5t8-58.5Q891 4 811-10.5T637-25q-135 0-232.5 40t-160 112-92 171T123 516zm133 698l240 265q20 4 43.5 5t44.5 1q20 0 45-1t45-5l238-265q-35-6-70-6-18 0-43 1t-45 5l-170 189-170-189q-23-4-46.5-5t-41.5-1q-37 0-70 6zm14-600h611q0 63-16.5 125T813 847t-90 74.5T590 950q-143 0-223-88t-97-248z"/><glyph unicode="ë" horiz-adv-x="1132" d="M123 516q0 115 27.5 215t84 176T379 1026t211 43q102 0 182-35t134.5-97.5 82-149.5 27.5-189q0-18-1-47t-3-49H266q0-209 96.5-307.5T651 96q78 0 144.5 13.5T926 145q10-23 16-55.5t8-58.5Q891 4 811-10.5T637-25q-135 0-232.5 40t-160 112-92 171T123 516zm147 98h611q0 63-16.5 125T813 847t-90 74.5T590 950q-143 0-223-88t-97-248zm25 727q0 45 6 89 39 6 82 6t84-6q6-43 7-87 0-45-7-88-41-6-82-6-45 0-84 6-6 43-6 86zm391 0q0 45 7 89 39 6 82 6t84-6q6-43 6-87 0-45-6-88-41-6-82-6-45 0-84 6-6 43-7 86z"/><glyph unicode="ì" horiz-adv-x="559" d="M31 1481q23 2 47.5 3t48.5 1h46.5l45.5-4 240-267q-37-6-68-6-47 0-84 6zm78-496q0 16 1 32.5t3 26.5h266V0q-12-2-33.5-3T311-4q-10 0-32.5 1T244 0v930H113q-2 10-3 24.5t-1 30.5z"/><glyph unicode="í" horiz-adv-x="559" d="M109 985q0 16 1 32.5t3 26.5h266V0q-12-2-33.5-3T311-4q-10 0-32.5 1T244 0v930H113q-2 10-3 24.5t-1 30.5zm0 229l240 267q23 4 46 4h46q25 0 49.5-1t46.5-3l-276-267q-37-6-84-6-31 0-68 6z"/><glyph unicode="î" horiz-adv-x="559" d="M-45 1214l240 265q20 4 43.5 5t44.5 1q20 0 45-1t45-5l238-265q-35-6-70-6-18 0-43 1t-45 5l-170 189-170-189q-23-4-46.5-5t-41.5-1q-37 0-70 6zm154-229q0 16 1 32.5t3 26.5h266V0q-12-2-33.5-3T311-4q-10 0-32.5 1T244 0v930H113q-2 10-3 24.5t-1 30.5z"/><glyph unicode="ï" horiz-adv-x="559" d="M-2 1341q0 45 6 89 39 6 82 6t84-6q6-43 7-87 0-45-7-88-41-6-82-6-45 0-84 6-6 43-6 86zm111-356q0 16 1 32.5t3 26.5h266V0q-12-2-33.5-3T311-4q-10 0-32.5 1T244 0v930H113q-2 10-3 24.5t-1 30.5zm280 356q0 45 7 89 39 6 82 6t84-6q6-43 6-87 0-45-6-88-41-6-82-6-45 0-84 6-6 43-7 86z"/><glyph unicode="ð" horiz-adv-x="1204" d="M121 487q0 109 28.5 203t87 163T381 960.5 584 999q76 0 155.5-22.5T872 909q10-10 19.5-20t19.5-21q-4 16-9 33t-11 33q-39 111-89 188.5T686 1253l-213-129q-25 23-38 47.5t-23 49.5l166 100q-55 29-117 45t-129 29q-2 10-2 45 0 14 4 35.5t10 33.5q207-23 354-112l193 114q23-16 39-43.5t28-50.5l-159-94q137-125 210.5-315.5T1083 575q0-281-116.5-440.5T602-25q-123 0-213 38T238.5 118.5t-89 162T121 487zm153 0q0-178 80-282.5T602 100q170 0 249 104.5T930 487q0 193-80 289t-248 96q-152 0-240-96t-88-289z"/><glyph unicode="ñ" horiz-adv-x="1171" d="M180 0v1044q16 2 31.5 3.5t30.5 1.5q16 0 30.5-1t30.5-4q4-37 6-92t2-96q20 37 53 75t77 68.5 101.5 50T668 1069q180 0 262-107.5t82-302.5V0q-12-2-34-3t-34-1q-10 0-32.5 1T877 0v618q0 174-54.5 250T659 944q-72 0-135-28.5t-109-83T342 698t-27-182V0q-12-2-33.5-3T248-4q-10 0-32.5 1T180 0zm66 1356q31 35 74 63.5t104 28.5q49 0 89-16.5t77-36 74-36 80-16.5q35 0 63.5 14.5T877 1409q33-47 49-98-31-33-75-60.5T748 1223q-47 0-87 16t-76 35.5-73 36-78 16.5q-43 0-71.5-16t-67.5-49q-35 47-49 94z"/><glyph unicode="ò" horiz-adv-x="1175" d="M121 522q0 115 28.5 215.5t87 174T383 1027t205 42 204-42 145-115.5 88-174 30-215.5-30-215-88-174T792 17 588-25 383 17 236.5 133t-87 174.5T121 522zm141 0q0-199 81-313.5T588 94t244.5 115T913 522q0 199-80.5 313.5T588 950 343 835.5 262 522zm58 959q23 2 47.5 3t48.5 1h46.5l45.5-4 240-267q-37-6-68-6-47 0-84 6z"/><glyph unicode="ó" horiz-adv-x="1175" d="M121 522q0 115 28.5 215.5t87 174T383 1027t205 42 204-42 145-115.5 88-174 30-215.5-30-215-88-174T792 17 588-25 383 17 236.5 133t-87 174.5T121 522zm141 0q0-199 81-313.5T588 94t244.5 115T913 522q0 199-80.5 313.5T588 950 343 835.5 262 522zm152 692l240 267q23 4 46 4h46q25 0 49.5-1t46.5-3l-276-267q-37-6-84-6-31 0-68 6z"/><glyph unicode="ô" horiz-adv-x="1175" d="M121 522q0 115 28.5 215.5t87 174T383 1027t205 42 204-42 145-115.5 88-174 30-215.5-30-215-88-174T792 17 588-25 383 17 236.5 133t-87 174.5T121 522zm139 692l240 265q20 4 43.5 5t44.5 1q20 0 45-1t45-5l238-265q-35-6-70-6-18 0-43 1t-45 5l-170 189-170-189q-23-4-46.5-5t-41.5-1q-37 0-70 6zm2-692q0-199 81-313.5T588 94t244.5 115T913 522q0 199-80.5 313.5T588 950 343 835.5 262 522z"/><glyph unicode="õ" horiz-adv-x="1175" d="M121 522q0 115 28.5 215.5t87 174T383 1027t205 42 204-42 145-115.5 88-174 30-215.5-30-215-88-174T792 17 588-25 383 17 236.5 133t-87 174.5T121 522zm127 834q31 35 74 63.5t104 28.5q49 0 89-16.5t77-36 74-36 80-16.5q35 0 63.5 14.5T879 1409q33-47 49-98-31-33-75-60.5T750 1223q-47 0-87 16t-76 35.5-73 36-78 16.5q-43 0-71.5-16t-67.5-49q-35 47-49 94zm14-834q0-199 81-313.5T588 94t244.5 115T913 522q0 199-80.5 313.5T588 950 343 835.5 262 522z"/><glyph unicode="ö" horiz-adv-x="1175" d="M121 522q0 115 28.5 215.5t87 174T383 1027t205 42 204-42 145-115.5 88-174 30-215.5-30-215-88-174T792 17 588-25 383 17 236.5 133t-87 174.5T121 522zm141 0q0-199 81-313.5T588 94t244.5 115T913 522q0 199-80.5 313.5T588 950 343 835.5 262 522zm41 819q0 45 6 89 39 6 82 6t84-6q6-43 7-87 0-45-7-88-41-6-82-6-45 0-84 6-6 43-6 86zm391 0q0 45 7 89 39 6 82 6t84-6q6-43 6-87 0-45-6-88-41-6-82-6-45 0-84 6-6 43-7 86z"/><glyph unicode="÷" d="M174 719q0 16 1 38.5t3 33.5h873q2-10 3-33t1-39-1-36.5-3-31.5H178q-2 10-3 30.5t-1 37.5zm311-332q0 49 34 85t85 36q49 0 85-36t36-85q0-51-36-85t-85-34q-51 0-85 34t-34 85zm0 672q0 49 34 85t85 36q49 0 85-36t36-85q0-51-36-85t-85-34q-51 0-85 34t-34 85z"/><glyph unicode="ø" horiz-adv-x="1175" d="M121 522q0 115 28.5 215.5t87 174T383 1027t205 42q94 0 170-28.5T889 961l65 83q25 6 62 7 33 0 63-7L954 887q100-147 101-365 0-115-30-215t-88-174T792 17 588-25q-168 0-279 86L260 0q-29-6-61-6-37 0-64 6l103 131q-59 74-88 174.5T121 522zm141 0q0-176 62-282l487 620q-41 43-96.5 66.5T588 950q-164 0-245-114.5T262 522zm125-360q76-68 201-68 164 0 244.5 115T913 522q0 147-47 252z"/><glyph unicode="ù" horiz-adv-x="1177" d="M172 449v595q12 2 34.5 3.5t33.5 1.5q12 0 33.5-1t33.5-4V457q0-111 22.5-181.5T396 165t107.5-55.5T647 94q68 0 121 7.5t94 19.5v923q12 2 35 3.5t33 1.5q12 0 33.5-1t33.5-4V27Q921 7 828-9T637-25q-96 0-181 18.5t-147.5 71T209 209t-37 240zm127 1032q23 2 47.5 3t48.5 1h46.5l45.5-4 240-267q-37-6-68-6-47 0-84 6z"/><glyph unicode="ú" horiz-adv-x="1177" d="M172 449v595q12 2 34.5 3.5t33.5 1.5q12 0 33.5-1t33.5-4V457q0-111 22.5-181.5T396 165t107.5-55.5T647 94q68 0 121 7.5t94 19.5v923q12 2 35 3.5t33 1.5q12 0 33.5-1t33.5-4V27Q921 7 828-9T637-25q-96 0-181 18.5t-147.5 71T209 209t-37 240zm293 765l240 267q23 4 46 4h46q25 0 49.5-1t46.5-3l-276-267q-37-6-84-6-31 0-68 6z"/><glyph unicode="û" horiz-adv-x="1177" d="M172 449v595q12 2 34.5 3.5t33.5 1.5q12 0 33.5-1t33.5-4V457q0-111 22.5-181.5T396 165t107.5-55.5T647 94q68 0 121 7.5t94 19.5v923q12 2 35 3.5t33 1.5q12 0 33.5-1t33.5-4V27Q921 7 828-9T637-25q-96 0-181 18.5t-147.5 71T209 209t-37 240zm88 765l240 265q20 4 43.5 5t44.5 1q20 0 45-1t45-5l238-265q-35-6-70-6-18 0-43 1t-45 5l-170 189-170-189q-23-4-46.5-5t-41.5-1q-37 0-70 6z"/><glyph unicode="ü" horiz-adv-x="1177" d="M172 449v595q12 2 34.5 3.5t33.5 1.5q12 0 33.5-1t33.5-4V457q0-111 22.5-181.5T396 165t107.5-55.5T647 94q68 0 121 7.5t94 19.5v923q12 2 35 3.5t33 1.5q12 0 33.5-1t33.5-4V27Q921 7 828-9T637-25q-96 0-181 18.5t-147.5 71T209 209t-37 240zm141 892q0 45 6 89 39 6 82 6t84-6q6-43 7-87 0-45-7-88-41-6-82-6-45 0-84 6-6 43-6 86zm391 0q0 45 7 89 39 6 82 6t84-6q6-43 6-87 0-45-6-88-41-6-82-6-45 0-84 6-6 43-7 86z"/><glyph unicode="ý" horiz-adv-x="1054" d="M33 1044q12 2 34.5 3.5t43.5 1.5q16 0 40.5-1t36.5-4L535 29l339 1015q12 2 33 3.5t37 1.5 36.5-1 33.5-4L555-309q-37-113-104.5-158T291-512q-43 0-87 8t-73 17q0 63 31 114 16-6 49-13t74-7q59 0 95 28.5T442-258L526-4h-39q-18 0-41.5 1T410 0zm348 170l240 267q23 4 46 4h46q25 0 49.5-1t46.5-3l-276-267q-37-6-84-6-31 0-68 6z"/><glyph unicode="þ" horiz-adv-x="1206" d="M180-483v1988q12 2 34 3t34 1 33.5-1 33.5-3V901q43 66 124 117t210 51q96 0 176-29.5t136.5-93 88-160T1081 555t-36.5-242.5T937 130 762.5 15 526-25q-49 0-106.5 8.5T315 8v-491q-12-2-34.5-3t-32.5-1q-12 0-33.5 1t-34.5 3zm135 616q47-18 97.5-27.5T547 96q80 0 151.5 25.5t125 81 84 140.5T938 547q0 188-70.5 294.5T639 948q-49 0-106.5-16.5t-105.5-56-80-104T315 608V133z"/><glyph unicode="ÿ" horiz-adv-x="1054" d="M33 1044q12 2 34.5 3.5t43.5 1.5q16 0 40.5-1t36.5-4L535 29l339 1015q12 2 33 3.5t37 1.5 36.5-1 33.5-4L555-309q-37-113-104.5-158T291-512q-43 0-87 8t-73 17q0 63 31 114 16-6 49-13t74-7q59 0 95 28.5T442-258L526-4h-39q-18 0-41.5 1T410 0zm208 297q0 45 6 89 39 6 82 6t84-6q6-43 7-87 0-45-7-88-41-6-82-6-45 0-84 6-6 43-6 86zm391 0q0 45 7 89 39 6 82 6t84-6q6-43 6-87 0-45-6-88-41-6-82-6-45 0-84 6-6 43-7 86z"/><glyph unicode="Œ" horiz-adv-x="1873" d="M125 737q0 166 40 305.5T283.5 1283 479 1440.5t271 56.5q63 0 127.5-5t119.5-19h766q2-12 3-30t1-34q0-14-1-33.5t-3-32.5h-647V846h520q2-12 3-29.5t1-34.5q0-14-1-33.5t-3-31.5h-520V129h666q2-12 3-29.5t1-33.5q0-14-1-34t-3-32h-776q-57-12-130-18.5T739-25q-154 0-269.5 56.5t-192 158T163 431t-38 306zm147 0q0-139 29-255.5T388 281t145.5-130.5T739 104q63 0 123 4.5T975 129v1214q-53 14-107.5 19.5T750 1368q-119 0-208-46t-149.5-129T302 993.5 272 737z"/><glyph unicode="œ" horiz-adv-x="1923" d="M123 522q0 115 28.5 215.5t87 174T385 1027t205 42q141 0 241.5-64.5T985 827q51 113 148.5 177.5T1380 1069q102 0 182-38t134.5-102.5 82-150.5 27.5-180q0-18-1-47t-3-49h-745q0-209 96-307.5T1442 96q78 0 144.5 13.5T1716 145q10-23 16.5-55.5T1741 31q-59-27-139-41.5T1427-25q-168 0-280.5 65.5T981 229Q926 112 828.5 43.5T590-25q-117 0-205 42T238.5 133t-87 174.5T123 522zm141 0q0-199 81-313.5T590 94t244.5 115T915 522q0 199-80.5 313.5T590 950 345 835.5 264 522zm797 92h610q0 72-16.5 133.5t-51 105.5-90 69.5T1380 948q-143 0-223-87t-96-247z"/><glyph unicode="Ÿ" horiz-adv-x="1175" d="M49 1473q12 2 34.5 3t43.5 1q18 0 44-1t40-3l385-779 379 779q16 2 35.5 3t38.5 1q20 0 42.5-1t34.5-3L664 547V0q-14-2-33-3t-37-1q-20 0-39.5 1T522 0v547zm238 231q0 45 6 92 45 6 88 6 49 0 90-6 6-47 6-90 0-47-6-92-41-6-88-6-45 0-90 6-6 45-6 90zm428 0q0 45 6 92 39 6 88 6 43 0 90-6 6-47 6-90 0-47-6-92-47-6-88-6-51 0-90 6-6 45-6 90z"/><glyph unicode="ˆ" horiz-adv-x="1019" d="M182 1214l240 265q20 4 43.5 5t44.5 1q20 0 45-1t45-5l238-265q-35-6-70-6-18 0-43 1t-45 5l-170 189-170-189q-23-4-46.5-5t-41.5-1q-37 0-70 6z"/><glyph unicode="˜" horiz-adv-x="1024" d="M172 1356q31 35 74 63.5t104 28.5q49 0 89-16.5t77-36 74-36 80-16.5q35 0 63.5 14.5T803 1409q33-47 49-98-31-33-75-60.5T674 1223q-47 0-87 16t-76 35.5-73 36-78 16.5q-43 0-71.5-16t-67.5-49q-35 47-49 94z"/><glyph horiz-adv-x="958"/><glyph horiz-adv-x="1917"/><glyph horiz-adv-x="958"/><glyph horiz-adv-x="1917"/><glyph horiz-adv-x="639"/><glyph horiz-adv-x="479"/><glyph horiz-adv-x="319"/><glyph horiz-adv-x="319"/><glyph horiz-adv-x="239"/><glyph horiz-adv-x="383"/><glyph horiz-adv-x="106"/><glyph unicode="‐" horiz-adv-x="722" d="M88 582q0 16 1 37.5t3 31.5h539q2-10 3-31.5t1-37.5-1-37-3-31H92q-2 10-3 30.5T88 582z"/><glyph unicode="‑" horiz-adv-x="722" d="M88 582q0 16 1 37.5t3 31.5h539q2-10 3-31.5t1-37.5-1-37-3-31H92q-2 10-3 30.5T88 582z"/><glyph unicode="‒" horiz-adv-x="722" d="M88 582q0 16 1 37.5t3 31.5h539q2-10 3-31.5t1-37.5-1-37-3-31H92q-2 10-3 30.5T88 582z"/><glyph unicode="–" horiz-adv-x="1024" d="M-4 584q0 18 1 35.5T0 651h1024q2-14 3-31.5t1-35.5q0-20-1-39t-3-31H0q-2 14-3 33.5T-4 584z"/><glyph unicode="—" horiz-adv-x="2048" d="M-4 584q0 18 1 35.5T0 651h2048q2-14 3-31.5t1-35.5q0-20-1-39t-3-31H0q-2 14-3 33.5T-4 584z"/><glyph unicode="‘" horiz-adv-x="456" d="M102 1473q18 2 37 3t35 1 34.5-1 35.5-3l110-406q-16-4-33.5-4H251l-38 4z"/><glyph unicode="’" horiz-adv-x="456" d="M102 1067l111 406q18 2 35.5 3t34.5 1q16 0 34.5-1t36.5-3l-110-406q-20-4-38-4h-69.5l-34.5 4z"/><glyph unicode="‚" horiz-adv-x="456" d="M102-231l111 405q16 2 34.5 3t35.5 1q16 0 34.5-1t36.5-3L244-231q-20-4-38-4.5t-34-.5h-35.5l-34.5 5z"/><glyph unicode="“" horiz-adv-x="829" d="M103 1472l110-405q20-4 38-4.5t34-.5h35.5l34.5 5-111 405q-16 2-34.5 3t-35.5 1q-16 0-34.5-1t-36.5-3zm372 0l110-405q20-4 38-4.5t34-.5h35.5l34.5 5-111 405q-16 2-34.5 3t-35.5 1q-16 0-34.5-1t-36.5-3z"/><glyph unicode="”" horiz-adv-x="829" d="M102 1067l111 405q16 2 34.5 3t35.5 1q16 0 34.5-1t36.5-3l-110-405q-20-4-38-4.5t-34-.5h-35.5l-34.5 5zm373 0l111 405q16 2 34.5 3t35.5 1q16 0 34.5-1t36.5-3l-110-405q-20-4-38-4.5t-34-.5h-35.5l-34.5 5z"/><glyph unicode="„" horiz-adv-x="829" d="M102-231l111 405q16 2 34.5 3t35.5 1q16 0 34.5-1t36.5-3L244-231q-20-4-38-4.5t-34-.5h-35.5l-34.5 5zm373 0l111 405q16 2 34.5 3t35.5 1q16 0 34.5-1t36.5-3L617-231q-20-4-38-4.5t-34-.5h-35.5l-34.5 5z"/><glyph unicode="•" horiz-adv-x="768" d="M154 778q0 47 18 89t49 73 73 49.5 91 18.5q47 0 89-18.5t73-49.5 49-73 18-89q0-49-18-91t-49-72.5-73-49-89-18.5q-49 0-91 18.5t-73 49-49 72.5-18 91z"/><glyph unicode="…" horiz-adv-x="1353" d="M117 86q0 45 6 88 43 6 86 6 45 0 88-6 6-43 6-86 0-45-6-88-43-6-86-6-45 0-88 6-6 43-6 86zm467 0q0 45 6 88 43 6 86 6 45 0 88-6 6-43 6-86 0-45-6-88-43-6-86-6-45 0-88 6-6 43-6 86zm467 0q0 45 6 88 43 6 86 6 45 0 88-6 6-43 6-86 0-45-6-88-43-6-86-6-45 0-88 6-6 43-6 86z"/><glyph horiz-adv-x="383"/><glyph unicode="‹" horiz-adv-x="735" d="M113 547l358 452q37 6 76 7 39 0 80-7L276 551 627 94q-37-6-76-6-41 0-80 6z"/><glyph unicode="›" horiz-adv-x="735" d="M109 94l350 449-350 456q37 6 75 7 39 0 80-7l359-452L264 94q-37-6-76-6-41 0-79 6z"/><glyph horiz-adv-x="479"/><glyph unicode="€" d="M49 561q0 35 8 62h142q-2 20-2 41.5V709q0 31 1 61.5t3 58.5H57q-8 25-8 58 0 35 8 61h160q47 256 201.5 390.5T827 1473q129 0 215-18.5t125-31.5q-4-37-11-61.5t-21-58.5q-63 25-145.5 35T829 1348q-190 0-303.5-102.5T371 948h596q6-29 6-55 0-33-6-64H352q-2-29-3-59.5t-1-60.5v-44.5l2-41.5h617q6-29 6-56 0-33-6-63H367q41-211 164.5-306.5T842 102q96 0 175 18.5t132 47.5q16-31 28.5-59.5T1196 49q-70-35-166-54.5T827-25q-256 0-413.5 133.5T213 504H57q-8 25-8 57z"/><glyph unicode="™" horiz-adv-x="1730" d="M63 1389q0 16 1.5 29.5T70 1448h630q4-16 5.5-28.5t1.5-28.5q0-27-7-58H444V629q-16-4-29.5-5t-29.5-1h-29.5l-29.5 4v706H70q-4 16-5.5 27.5T63 1389zm736-762l39 821q16 2 31.5 3t31.5 1q18 0 36.5-1t35.5-3l239-492 238 492q16 2 32.5 3t33.5 1q18 0 35.5-1t33.5-3l37-819q-16-4-28.5-5t-28.5-1h-29.5l-30.5 4-32 602-224-441q-12-2-22-3t-21-1q-10 0-20 1t-23 3l-215 439-28-598q-16-4-29.5-5t-30.5-1h-29.5l-31.5 4z"/><glyph unicode="◼" horiz-adv-x="1054" d="M0 0v1055h1055V0H0z"/></font>
</defs>
</svg>
